SplineFontDB: 3.2
FontName: Kenig-Sans-Bold
FullName: Kenig Sans
FamilyName: Kenig Sans
Weight: Bold
Copyright: Copyright 2011 Google Inc. All Rights Reserved.
Version: 2.137; 2017
ItalicAngle: 0
UnderlinePosition: -200
UnderlineWidth: 100
Ascent: 1536
Descent: 512
InvalidEm: 0
sfntRevision: 0x00022312
LayerCount: 2
Layer: 0 1 "Warstwa t+AUIA-a" 1
Layer: 1 1 "Plan pierwszy" 0
XUID: [1021 925 798089043 2727]
StyleMap: 0x0040
FSType: 0
OS2Version: 3
OS2_WeightWidthSlopeOnly: 0
OS2_UseTypoMetrics: 0
CreationTime: 1221222574
ModificationTime: 1731267905
PfmFamily: 17
TTFWeight: 400
TTFWidth: 5
LineGap: 0
VLineGap: 0
Panose: 2 0 0 0 0 0 0 0 0 0
OS2TypoAscent: 1536
OS2TypoAOffset: 0
OS2TypoDescent: -512
OS2TypoDOffset: 0
OS2TypoLinegap: 102
OS2WinAscent: 1946
OS2WinAOffset: 0
OS2WinDescent: 512
OS2WinDOffset: 0
HheadAscent: 1900
HheadAOffset: 0
HheadDescent: -500
HheadDOffset: 0
OS2SubXSize: 1434
OS2SubYSize: 1331
OS2SubXOff: 0
OS2SubYOff: 287
OS2SupXSize: 1434
OS2SupYSize: 1331
OS2SupXOff: 0
OS2SupYOff: 977
OS2StrikeYSize: 102
OS2StrikeYPos: 512
OS2CapHeight: 1456
OS2XHeight: 1082
OS2Vendor: 'GOOG'
OS2CodePages: 2000019f.00000000
OS2UnicodeRanges: e00002ff.5000205b.00000020.00000000
Lookup: 1 0 0 "'c2sc' Wersaliki na kapitaliki w tablicy 0" { "Podtablica 'c2sc' Wersaliki na kapitaliki w tablicy 0"  } ['c2sc' ('DFLT' <'dflt' > 'cyrl' <'dflt' > 'grek' <'dflt' > 'latn' <'AZE ' 'CRT ' 'FRA ' 'MOL ' 'NAV ' 'ROM ' 'TRK ' 'dflt' > ) ]
Lookup: 1 0 0 "'smcp' Tekstowe na kapitaliki w tablicy 1" { "Podtablica 'smcp' Tekstowe na kapitaliki w tablicy 1"  } ['smcp' ('DFLT' <'dflt' > 'cyrl' <'dflt' > 'grek' <'dflt' > 'latn' <'AZE ' 'CRT ' 'FRA ' 'MOL ' 'NAV ' 'ROM ' 'TRK ' 'dflt' > ) ]

StartChar: .notdef
Encoding: 65536 -1 0
Width: 908
GlyphClass: 1
Flags: W
LayerCount: 2
Fore
SplineSet
808 0 m 1,0,-1
 100 0 l 1,1,-1
 100 1456 l 1,2,-1
 808 1456 l 1,3,-1
 808 0 l 1,0,-1
754 84 m 1,4,-1
 754 1371 l 1,5,-1
 480 728 l 1,6,-1
 754 84 l 1,4,-1
154 1359 m 1,7,-1
 154 96 l 1,8,-1
 422 728 l 1,9,-1
 154 1359 l 1,7,-1
194 54 m 1,10,-1
 709 54 l 1,11,-1
 451 660 l 1,12,-1
 194 54 l 1,10,-1
451 796 m 1,13,-1
 709 1402 l 1,14,-1
 194 1402 l 1,15,-1
 451 796 l 1,13,-1
EndSplineSet
EndChar

StartChar: exclam
Encoding: 33 33 5
Width: 527
GlyphClass: 1
Flags: W
LayerCount: 2
Fore
SplineSet
371.667357188 386 m 1
 155.309034047 386 l 1
 141.687024478 1481 l 1
 386.337213648 1481 l 1
 371.667357188 386 l 1
269 -36 m 0
 204.133753524 -36 204.133753524 -36 169.566876762 1.08083143565 c 0
 135 38.1616628713 135 38.1616628713 135 92.8805507721 c 0
 135 147.599438673 135 147.599438673 169.442876008 185.799719336 c 0
 203.885752016 224 203.885752016 224 269 224 c 0
 333.980058478 224 333.980058478 224 368.990029239 185.864138993 c 0
 404 147.728277985 404 147.728277985 404 92.8799413826 c 0
 404 38.03160478 404 38.03160478 368.866357054 1.01580239 c 0
 333.732714107 -36 333.732714107 -36 269 -36 c 0
EndSplineSet
EndChar

StartChar: quotedbl
Encoding: 34 34 6
Width: 655
GlyphClass: 1
Flags: W
LayerCount: 2
Fore
SplineSet
269.993881853 1017 m 1
 110.949340489 1017 l 1
 112.050555064 1561 l 1
 302 1561 l 1
 302 1398.93967656 l 1
 269.993881853 1017 l 1
539.993881853 1017 m 1
 380.949340489 1017 l 1
 382.050555064 1561 l 1
 572 1561 l 1
 572 1398.93967656 l 1
 539.993881853 1017 l 1
EndSplineSet
EndChar

StartChar: numbersign
Encoding: 35 35 7
Width: 1261
GlyphClass: 1
Flags: W
LayerCount: 2
Fore
SplineSet
849.597348187 -25 m 1
 654.646554252 -25 l 1
 734.646554252 385 l 1
 521.597348187 385 l 1
 441.597348187 -25 l 1
 247.646554252 -25 l 1
 327.646554252 385 l 1
 94 385 l 1
 94 572 l 1
 363.398477633 572 l 1
 422.652714921 876 l 1
 170 876 l 1
 170 1065 l 1
 459.442857061 1065 l 1
 541.442857061 1481 l 1
 735.41291217 1481 l 1
 653.41291217 1065 l 1
 866.442857061 1065 l 1
 948.442857061 1481 l 1
 1143.41291217 1481 l 1
 1061.41291217 1065 l 1
 1260 1065 l 1
 1260 876 l 1
 1024.60152237 876 l 1
 965.347285079 572 l 1
 1185 572 l 1
 1185 385 l 1
 929.597348187 385 l 1
 849.597348187 -25 l 1
616.601522367 876 m 1
 557.347285079 572 l 1
 770.398477633 572 l 1
 829.652714921 876 l 1
 616.601522367 876 l 1
EndSplineSet
EndChar

StartChar: dollar
Encoding: 36 36 8
Width: 1250
GlyphClass: 1
Flags: W
LayerCount: 2
Fore
SplineSet
833.200235693 234.672851562 m 0,0,1
 906 289.55078125 906 289.55078125 906 384.41015625 c 0,2,3
 906 463.799804688 906 463.799804688 844.316443838 518.01171875 c 0,4,5
 777.844145349 575.41015625 777.844145349 575.41015625 615.466567358 623.30078125 c 0,6,7
 373.92152482 688.517578125 373.92152482 688.517578125 269.119140625 796.206054688 c 0,8,9
 166 903.89453125 166 903.89453125 166 1071.73144531 c 128,-1,10
 166 1239.56738281 166 1239.56738281 268.002929688 1348.84179688 c 0,11,12
 364.025860831 1450.88964844 364.025860831 1450.88964844 541.185584702 1475.48046875 c 1,13,14
 541.185584702 1562.15722656 541.185584702 1562.15722656 541.185584702 1692 c 1,15,-1
 760.513279399 1692 l 1,16,17
 760.513279399 1561.4921875 760.513279399 1561.4921875 760.513279399 1474.11425781 c 1,18,19
 935.590820312 1445.99804688 935.590820312 1445.99804688 1029.10449219 1331.0078125 c 0,20,21
 1128 1209.3984375 1128 1209.3984375 1128 1001.1796875 c 2,22,23
 1128 982.666992188 1128 982.666992188 1128 976.8203125 c 1,24,-1
 893.873334968 976.8203125 l 1,25,26
 893.873334968 982.666992188 893.873334968 982.666992188 893.873334968 1001.1796875 c 2,27,28
 893.873334968 1129.96484375 893.873334968 1129.96484375 826.13313435 1204.15234375 c 0,29,30
 760.575705819 1275.94824219 760.575705819 1275.94824219 648.094059001 1275.94824219 c 0,31,32
 528.149225964 1275.94824219 528.149225964 1275.94824219 466.885228329 1223.07714844 c 128,-1,33
 405.621230694 1170.20605469 405.621230694 1170.20605469 405.621230694 1073.28222656 c 0,34,35
 405.621230694 984.661132812 405.621230694 984.661132812 469.892459696 932.969726562 c 0,36,37
 538.784320143 877.560546875 538.784320143 877.560546875 705.979495699 829.583007812 c 128,-1,38
 873.174671255 781.60546875 873.174671255 781.60546875 964.8125 720.85546875 c 0,39,40
 1054.40625 660.10546875 1054.40625 660.10546875 1097.703125 577.815429688 c 128,-1,41
 1141 495.525390625 1141 495.525390625 1141 386.359375 c 0,42,43
 1141 211.713867188 1141 211.713867188 1032.3046875 104.240234375 c 0,44,45
 930.915039062 3.990234375 930.915039062 3.990234375 740.674593446 -19.1640625 c 1,46,47
 740.674593446 -91.64453125 740.674593446 -91.64453125 740.674593446 -208 c 1,48,-1
 522.449047969 -208 l 1,49,50
 522.449047969 -91.7548828125 522.449047969 -91.7548828125 522.449047969 -19.390625 c 1,51,52
 327.415039062 2.7392578125 327.415039062 2.7392578125 222.0390625 115.145507812 c 0,53,54
 110 234.659179688 110 234.659179688 110 437.025390625 c 2,55,56
 110 456.712890625 110 456.712890625 110 461.384765625 c 1,57,-1
 345 461.384765625 l 1,58,59
 345 456.712890625 345 456.712890625 345 437.025390625 c 2,60,61
 345 311.48046875 345 311.48046875 416.393017207 245.637695312 c 0,62,63
 488.885160017 179.794921875 488.885160017 179.794921875 624.0932529 179.794921875 c 128,-1,64
 759.300269466 179.794921875 759.300269466 179.794921875 833.200235693 234.672851562 c 0,0,1
EndSplineSet
Substitution2: "Podtablica 'c2sc' Wersaliki na kapitaliki w tablicy 0" dollar.c2sc
Position2: "Podtablica 'cpsp' +AVoA-wiat+AUIA-o wersalikowe w tablicy 0" dx=36 dy=0 dh=72 dv=0
EndChar

StartChar: percent
Encoding: 37 37 9
Width: 1600
GlyphClass: 1
Flags: W
LayerCount: 2
Fore
SplineSet
105 1162.2109375 m 2,0,1
 105 1298.57226562 105 1298.57226562 195.66796875 1387.6953125 c 128,-1,2
 286.520507812 1477 286.520507812 1477 433.595510813 1477 c 0,3,4
 584.384979807 1477 584.384979807 1477 679.267078095 1387.24023438 c 128,-1,5
 774.149176383 1297.48046875 774.149176383 1297.48046875 774.149176383 1156.41699219 c 2,6,7
 774.149176383 1110.20019531 774.149176383 1110.20019531 774.149176383 1087.85839844 c 2,8,9
 774.149176383 950.405273438 774.149176383 950.405273438 678.069778762 862.702148438 c 128,-1,10
 581.991414185 775 581.991414185 775 434.123396887 775 c 0,11,12
 289.782226562 775 289.782226562 775 197.390625 862.87109375 c 128,-1,13
 105 950.741210938 105 950.741210938 105 1094.6171875 c 2,14,15
 105 1116.26074219 105 1116.26074219 105 1162.2109375 c 2,0,1
293 1157.29785156 m 2,16,17
 293 1111.62304688 293 1111.62304688 293 1089.02636719 c 2,18,19
 293 1024.828125 293 1024.828125 330.184570312 984.9140625 c 0,20,21
 368.330817099 945 368.330817099 945 433.070723874 945 c 128,-1,22
 497.809597605 945 497.809597605 945 536.542592621 983.573242188 c 128,-1,23
 575.275587636 1022.14648438 575.275587636 1022.14648438 575.275587636 1092.76660156 c 2,24,25
 575.275587636 1115.12109375 575.275587636 1115.12109375 575.275587636 1161.0390625 c 2,26,27
 575.275587636 1225.45214844 575.275587636 1225.45214844 536.868001844 1265.72558594 c 128,-1,28
 498.459383007 1306 498.459383007 1306 432.467425504 1306 c 128,-1,29
 366.475468002 1306 366.475468002 1306 329.307617188 1265.72558594 c 0,30,31
 293 1225.45214844 293 1225.45214844 293 1157.29785156 c 2,16,17
840.792985378 298.6328125 m 2,32,33
 840.792985378 345.368164062 840.792985378 345.368164062 840.792985378 368.161132812 c 2,34,35
 840.792985378 504.571289062 840.792985378 504.571289062 936.759781079 593.224609375 c 128,-1,36
 1032.85880656 682 1032.85880656 682 1182.47473626 682 c 0,37,38
 1328.34863281 682 1328.34863281 682 1419.67382812 593.810546875 c 128,-1,39
 1511 505.62109375 1511 505.62109375 1511 361.401367188 c 2,40,41
 1511 339.306640625 1511 339.306640625 1511 292.838867188 c 2,42,43
 1511 156.428710938 1511 156.428710938 1420.28027344 67.775390625 c 128,-1,44
 1329.43554688 -21 1329.43554688 -21 1184.70508075 -21 c 0,45,46
 1036.26269034 -21 1036.26269034 -21 938.627526718 66.5546875 c 128,-1,47
 840.792985378 154.287109375 840.792985378 154.287109375 840.792985378 298.6328125 c 2,32,33
1039.66657413 363.20703125 m 2,48,49
 1039.66657413 340.379882812 1039.66657413 340.379882812 1039.66657413 293.987304688 c 2,50,51
 1039.66657413 228.842773438 1039.66657413 228.842773438 1079.00183447 188.920898438 c 128,-1,52
 1118.33812785 149 1118.33812785 149 1183.521211 149 c 128,-1,53
 1248.7032611 149 1248.7032611 149 1285.80371094 187.975585938 c 0,54,55
 1322 226.952148438 1322 226.952148438 1322 297.728515625 c 2,56,57
 1322 343.879882812 1322 343.879882812 1322 366.948242188 c 2,58,59
 1322 432.102539062 1322 432.102539062 1285.30957031 471.551757812 c 0,60,61
 1247.6578194 511 1247.6578194 511 1183.40344385 511 c 128,-1,62
 1119.14803525 511 1119.14803525 511 1079.40782121 471.91015625 c 128,-1,63
 1039.66657413 432.8203125 1039.66657413 432.8203125 1039.66657413 363.20703125 c 2,48,49
1267.41210938 1255.89746094 m 1,64,-1
 487.389271133 75.494140625 l 1,65,-1
 332.587890625 168.102539062 l 1,66,-1
 1111.68531706 1348.50585938 l 1,67,-1
 1267.41210938 1255.89746094 l 1,64,-1
EndSplineSet
EndChar

StartChar: ampersand
Encoding: 38 38 10
Width: 1273
GlyphClass: 1
Flags: W
LayerCount: 2
Fore
SplineSet
626.640589226 991.461982813 m 2
 690.070778871 1036.23623433 690.070778871 1036.23623433 712.035389435 1074.45465671 c 0
 734 1112.67307909 734 1112.67307909 734 1168.23093889 c 0
 734 1223.78879869 734 1223.78879869 691.74651612 1261.39439935 c 0
 649.493032241 1299 649.493032241 1299 580.959243265 1299 c 0
 512.42545429 1299 512.42545429 1299 471.212727145 1251.34778424 c 0
 430 1203.69556848 430 1203.69556848 430 1128 c 0
 430 1047.11883775 430 1047.11883775 527.828757935 921.958739338 c 1
 626.640589226 991.461982813 l 2
311 391 m 0
 311 283.89896105 311 283.89896105 379.903313523 219.949480525 c 0
 448.806627047 156 448.806627047 156 573.810061624 156 c 0
 698.813496201 156 698.813496201 156 806.173502218 245.702998888 c 1
 481.800442904 634.036943138 l 1
 467.752095277 623.820056945 467.752095277 623.820056945 467.681943157 623.768713324 c 0
 311 508.36824022 311 508.36824022 311 391 c 0
195 1122 m 0
 195 1298.65498963 195 1298.65498963 300.47771817 1399.82749482 c 0
 405.95543634 1501 405.95543634 1501 584 1501 c 0
 743.529743725 1501 743.529743725 1501 849.264871862 1406.59363559 c 0
 955 1312.18727118 955 1312.18727118 955 1168 c 0
 955 1073.10216427 955 1073.10216427 907.446837486 993.490689951 c 0
 859.893674972 913.87921563 859.893674972 913.87921563 744.827497772 828.875372974 c 2
 659.222865737 765.671953265 l 1
 941.273576685 428.778048522 l 1
 990 539.733363855 990 539.733363855 990 672 c 2
 990 697 l 1
 1207 697 l 1
 1207 672 l 2
 1207 420.812648217 1207 420.812648217 1090.51083276 250.26729325 c 1
 1320.45298937 -25 l 1
 1033.38683706 -25 l 1
 945.042540247 79.7380838563 l 1
 873.978547882 22.5273944368 873.978547882 22.5273944368 782.683544015 -9.12765715516 c 0
 679.225627695 -45 679.225627695 -45 572 -45 c 0
 349.605610849 -45 349.605610849 -45 212.802805424 74.8350156042 c 0
 76 194.670031208 76 194.670031208 76 391 c 0
 76 503.548668875 76 503.548668875 138.665597479 597.814866793 c 0
 195.895982604 683.905018776 195.895982604 683.905018776 346.874287202 793.826965444 c 1
 261.727114767 899.949914144 261.727114767 899.949914144 230.260299058 968.604784783 c 0
 195 1045.53634636 195 1045.53634636 195 1122 c 0
EndSplineSet
Substitution2: "Podtablica 'smcp' Tekstowe na kapitaliki w tablicy 1" ampersand.c2sc
Substitution2: "Podtablica 'c2sc' Wersaliki na kapitaliki w tablicy 0" ampersand.c2sc
Position2: "Podtablica 'cpsp' +AVoA-wiat+AUIA-o wersalikowe w tablicy 0" dx=36 dy=0 dh=72 dv=0
EndChar

StartChar: quotesingle
Encoding: 39 39 11
Width: 357
GlyphClass: 1
Flags: W
LayerCount: 2
Fore
SplineSet
255.61468063 1032 m 1
 77.947752388 1032 l 1
 79.0521365216 1561 l 1
 278 1561 l 1
 278 1425 l 1
 277.958906803 1423.55596342 l 1
 255.61468063 1032 l 1
EndSplineSet
EndChar

StartChar: parenleft
Encoding: 40 40 12
Width: 700
GlyphClass: 1
Flags: W
LayerCount: 2
Fore
SplineSet
108 591 m 0
 108 820.57951757 108 820.57951757 169.576284704 1032.27980217 c 0
 231.152569407 1243.98008677 231.152569407 1243.98008677 354.051178959 1418.0864503 c 0
 476.949788511 1592.19281383 476.949788511 1592.19281383 611.102630244 1664.9889295 c 2
 637.824321318 1679.48907195 l 1
 690.059232235 1511.78751585 l 1
 676.19658259 1501.15315448 l 2
 535.611678763 1393.30720085 535.611678763 1393.30720085 444.249325616 1168.56558349 c 0
 352.886972469 943.823966121 352.886972469 943.823966121 343.995270842 663.448198502 c 1
 343.000005338 578.850630662 l 1
 343.027166551 198.814618962 343.027166551 198.814618962 481.375258329 -79.843948875 c 0
 563.986050217 -245.065532652 563.986050217 -245.065532652 676.841666971 -337.665013065 c 2
 690.197592898 -348.623721518 l 1
 637.118121275 -506.465308187 l 1
 610.871487301 -491.861917856 l 2
 472.787950008 -415.033483572 472.787950008 -415.033483572 348.448488038 -236.231282061 c 0
 108 110.177556637 108 110.177556637 108 591 c 0
EndSplineSet
EndChar

StartChar: parenright
Encoding: 41 41 13
Width: 712
GlyphClass: 1
Flags: W
LayerCount: 2
Fore
SplineSet
89.0724007457 1664.89304369 m 2
 226.165901773 1589.07618327 226.165901773 1589.07618327 348.521975442 1413.9892494 c 0
 470.878049111 1238.90231553 470.878049111 1238.90231553 531.439024555 1029.2290224 c 0
 592 819.55572926 592 819.55572926 592 587.016251377 c 0
 592 354.476773494 592 354.476773494 532.451116528 146.310163749 c 0
 472.902233056 -61.8564459956 472.902233056 -61.8564459956 349.543032123 -238.961356878 c 0
 226.183831191 -416.06626776 226.183831191 -416.06626776 89.0724007457 -491.893043688 c 2
 63.067448915 -506.274570079 l 1
 8.48472191345 -348.124617485 l 1
 22.8145900651 -337.144588641 l 2
 171.110416477 -223.515319053 171.110416477 -223.515319053 262.570527159 19.5631569307 c 0
 354.030637841 262.641632914 354.030637841 262.641632914 356 561 c 1
 356 593 l 2
 356 799.977499927 356 799.977499927 312.743296529 977.428294848 c 0
 269.486593058 1154.87908977 269.486593058 1154.87908977 192.951885926 1294.29900212 c 0
 116.417178794 1433.71891448 116.417178794 1433.71891448 22.2071339165 1510.62507356 c 2
 8.67386299969 1521.67264166 l 1
 63.067448915 1679.27457008 l 1
 89.0724007457 1664.89304369 l 2
EndSplineSet
EndChar

StartChar: asterisk
Encoding: 42 42 14
Width: 882
GlyphClass: 1
Flags: W
LayerCount: 2
Fore
SplineSet
341.337223308 1481 m 1
 545.726773717 1481 l 1
 536.050925333 1143.31289138 l 1
 823.235598853 1249.67758527 l 1
 884.217237373 1048.1730406 l 1
 587.110121017 960.105458877 l 1
 778.672456319 697.916606013 l 1
 613.621679164 572.797468492 l 1
 434.086102114 850.788039409 l 1
 260.739135849 580.174164296 l 1
 94.0750691603 701.505604846 l 1
 288.97796339 969.133459609 l 1
 -3.25076165349 1056.22149025 l 1
 57.8135085473 1256.67159461 l 1
 350.041699497 1148.29557677 l 1
 341.337223308 1481 l 1
EndSplineSet
EndChar

StartChar: plus
Encoding: 43 43 15
Width: 1161
GlyphClass: 1
Flags: W
LayerCount: 2
Fore
SplineSet
459 806 m 1
 459 1231 l 1
 695 1231 l 1
 695 806 l 1
 1101 806 l 1
 1101 581 l 1
 695 581 l 1
 695 121 l 1
 459 121 l 1
 459 581 l 1
 53 581 l 1
 53 806 l 1
 459 806 l 1
EndSplineSet
EndChar

StartChar: comma
Encoding: 44 44 16
Width: 402
GlyphClass: 1
Flags: W
LayerCount: 2
Fore
SplineSet
102 244 m 1
 333 244 l 1
 333 74 l 2
 333 -32.8023075335 333 -32.8023075335 281.020842766 -138.860789971 c 0
 229.041685531 -244.919272409 229.041685531 -244.919272409 149.757790865 -309.403506737 c 2
 135.273638657 -321.183950534 l 1
 -6.19789471573 -224.174899078 l 1
 8.67486540191 -203.447967425 l 2
 98.1085078373 -78.8117210522 98.1085078373 -78.8117210522 102 52.3715165167 c 1
 102 244 l 1
EndSplineSet
EndChar

StartChar: hyphen
Encoding: 45 45 17
Width: 565
GlyphClass: 1
Flags: W
LayerCount: 2
Fore
SplineSet
550 518 m 1
 12 518 l 1
 12 719 l 1
 550 719 l 1
 550 518 l 1
EndSplineSet
EndChar

StartChar: period
Encoding: 46 46 18
Width: 539
GlyphClass: 1
Flags: W
LayerCount: 2
Fore
SplineSet
119 97.8866785335 m 0
 119 154.511954284 119 154.511954284 154.397020358 194.255977142 c 0
 189.794040716 234 189.794040716 234 257.871521145 234 c 0
 325.949001574 234 325.949001574 234 362.474500787 194.379119498 c 0
 399 154.758238996 399 154.758238996 399 97.8855532925 c 0
 399 41.0128675894 399 41.0128675894 362.356780744 2.50643379469 c 0
 325.713561488 -36 325.713561488 -36 257.872102991 -36 c 0
 190.030644494 -36 190.030644494 -36 154.515322247 2.63070139158 c 0
 119 41.2614027832 119 41.2614027832 119 97.8866785335 c 0
EndSplineSet
EndChar

StartChar: slash
Encoding: 47 47 19
Width: 844
GlyphClass: 1
Flags: W
LayerCount: 2
Fore
SplineSet
194.185553001 -150 m 1
 -18.4037406808 -150 l 1
 608.824595815 1481 l 1
 820.382263944 1481 l 1
 194.185553001 -150 l 1
EndSplineSet
Substitution2: "Podtablica 'frac' U+AUIA-amki uko+AVsA-ne w tablicy 22" fraction
EndChar

StartChar: zero
Encoding: 48 48 20
Width: 1250
GlyphClass: 1
Flags: W
LayerCount: 2
Fore
SplineSet
1133.99707031 856.93359375 m 1,0,1
 1133.99707031 740.287109375 1133.99707031 740.287109375 1133.99707031 624.4609375 c 2,2,3
 1133.99707031 302.327148438 1133.99707031 302.327148438 1018.46777344 143.198242188 c 0,4,5
 899.984375 -20 899.984375 -20 627.941605987 -20 c 0,6,7
 355.24609375 -20 355.24609375 -20 235.744140625 139.517578125 c 0,8,9
 119.103515625 295.215820312 119.103515625 295.215820312 115 599.948242188 c 1,10,11
 115 719.885742188 115 719.885742188 115 839.280273438 c 2,12,13
 115 1157.62304688 115 1157.62304688 230.614257812 1314.85644531 c 0,14,15
 349.106445312 1476 349.106445312 1476 622.692042252 1476 c 0,16,17
 896.620117188 1476 896.620117188 1476 1015.12988281 1320.51367188 c 0,18,19
 1130.91992188 1168.59765625 1130.91992188 1168.59765625 1133.99707031 856.93359375 c 1,0,1
898.998046875 578.006835938 m 1,20,21
 898.998046875 723.004882812 898.998046875 723.004882812 898.998046875 867.591796875 c 2,22,23
 898.998046875 1085.55957031 898.998046875 1085.55957031 831.277512937 1182.62597656 c 0,24,25
 766.469242847 1274 766.469242847 1274 623.945637208 1274 c 0,26,27
 482.611975836 1274 482.611975836 1274 418.890082787 1183.20117188 c 0,28,29
 351.952148438 1086.50390625 351.952148438 1086.50390625 349.998046875 880.869140625 c 1,30,31
 349.998046875 738.877929688 349.998046875 738.877929688 349.998046875 597.927734375 c 2,32,33
 349.998046875 378.956054688 349.998046875 378.956054688 420.533133664 277.080078125 c 0,34,35
 458.194923634 223.5390625 458.194923634 223.5390625 516.653228219 200.0390625 c 0,36,37
 564.015814963 181 564.015814963 181 625.774246031 181 c 128,-1,38
 687.532677099 181 687.532677099 181 734.076435468 198.962890625 c 0,39,40
 791.230440309 221.01953125 791.230440309 221.01953125 827.5523293 271.135742188 c 0,41,42
 896.067382812 366.802734375 896.067382812 366.802734375 898.998046875 578.006835938 c 1,20,21
EndSplineSet
Substitution2: "Podtablica 'numr' Cyfry frakcji g+APMA-rnej (licznika) w tablicy 25" zero.numr
Substitution2: "Podtablica 'dnom' Cyfry frakcji dolnej (mianownika) w tablicy 24" zero.dnom
Substitution2: "Podtablica 'pnum' Cyfry proporcjonalnej szeroko+AVsA-ci w tablicy 19" zero.pnum
Substitution2: "Podtablica 'onum' Cyfry nautyczne w tablicy 18" zero.oldstyle
Substitution2: "Podtablica 'c2sc' Wersaliki na kapitaliki w tablicy 0" zero.c2sc
Position2: "Podtablica 'cpsp' +AVoA-wiat+AUIA-o wersalikowe w tablicy 0" dx=36 dy=0 dh=72 dv=0
EndChar

StartChar: one
Encoding: 49 49 21
Width: 1200
GlyphClass: 1
Flags: W
LayerCount: 2
Fore
SplineSet
779 1463 m 1,0,1
 779 731.5 779 731.5 779 0 c 1,2,-1
 543 0 l 1,3,4
 543 595.541992188 543 595.541992188 543 1181.79101562 c 1,5,6
 356.5 1102.86230469 356.5 1102.86230469 170 1049.31835938 c 1,7,8
 170 1142.19921875 170 1142.19921875 170 1263.15234375 c 1,9,10
 445.224609375 1342.20410156 445.224609375 1342.20410156 720.448242188 1463 c 1,11,12
 722.724609375 1438 722.724609375 1438 725 1463 c 1,13,-1
 754 1463 l 1,14,-1
 779 1463 l 1,0,1
EndSplineSet
Substitution2: "Podtablica 'numr' Cyfry frakcji g+APMA-rnej (licznika) w tablicy 25" uni00B9
Substitution2: "Podtablica 'dnom' Cyfry frakcji dolnej (mianownika) w tablicy 24" one.dnom
Substitution2: "Podtablica 'pnum' Cyfry proporcjonalnej szeroko+AVsA-ci w tablicy 19" one.pnum
Substitution2: "Podtablica 'onum' Cyfry nautyczne w tablicy 18" one.oldstyle
Substitution2: "Podtablica 'c2sc' Wersaliki na kapitaliki w tablicy 0" one.c2sc
Position2: "Podtablica 'cpsp' +AVoA-wiat+AUIA-o wersalikowe w tablicy 0" dx=36 dy=0 dh=72 dv=0
EndChar

StartChar: two
Encoding: 50 50 22
Width: 1250
GlyphClass: 1
Flags: W
LayerCount: 2
Fore
SplineSet
1175 201 m 1,0,1
 1175 125.5 1175 125.5 1175 0 c 1,2,-1
 121 0 l 1,3,4
 121 101.639648438 121 101.639648438 121 161.2578125 c 1,5,6
 379.579515835 441.686523438 379.579515835 441.686523438 658.303021013 706.78515625 c 1,7,8
 778.551710256 826.87890625 778.551710256 826.87890625 822.627675139 899.49609375 c 128,-1,9
 866.704706927 972.114257812 866.704706927 972.114257812 866.704706927 1047.875 c 0,10,11
 866.704706927 1148.00683594 866.704706927 1148.00683594 799.098159998 1211.00292969 c 128,-1,12
 731.491613068 1274 731.491613068 1274 617.612344583 1274 c 0,13,14
 478.358882816 1274 478.358882816 1274 402.681202213 1202.91992188 c 0,15,16
 328 1131.83984375 328 1131.83984375 328 1002 c 2,17,18
 328 964.5 328 964.5 328 977 c 1,19,-1
 93 977 l 1,20,21
 93 964.5 93 964.5 93 1002 c 2,22,23
 93 1213.66796875 93 1213.66796875 229.984375 1344.83398438 c 0,24,25
 369.577284746 1476 369.577284746 1476 617.612344583 1476 c 0,26,27
 849.887088936 1476 849.887088936 1476 982.303710938 1366.83398438 c 0,28,29
 1108 1257.66894531 1108 1257.66894531 1108 1076.66015625 c 0,30,31
 1108 860.37890625 1108 860.37890625 817.958900393 567.682617188 c 2,32,33
 626.040891314 401.479492188 626.040891314 401.479492188 434.122882235 201 c 1,34,-1
 1175 201 l 1,0,1
EndSplineSet
Substitution2: "Podtablica 'numr' Cyfry frakcji g+APMA-rnej (licznika) w tablicy 25" uni00B2
Substitution2: "Podtablica 'dnom' Cyfry frakcji dolnej (mianownika) w tablicy 24" two.dnom
Substitution2: "Podtablica 'pnum' Cyfry proporcjonalnej szeroko+AVsA-ci w tablicy 19" two.pnum
Substitution2: "Podtablica 'onum' Cyfry nautyczne w tablicy 18" two.oldstyle
Substitution2: "Podtablica 'c2sc' Wersaliki na kapitaliki w tablicy 0" two.c2sc
Position2: "Podtablica 'cpsp' +AVoA-wiat+AUIA-o wersalikowe w tablicy 0" dx=36 dy=0 dh=72 dv=0
EndChar

StartChar: three
Encoding: 51 51 23
Width: 1250
GlyphClass: 1
Flags: W
LayerCount: 2
Fore
SplineSet
576.055110918 642 m 1,0,-1
 395.217246822 642 l 1,1,-1
 395.217246822 843 l 1,2,-1
 576.030317491 843 l 1,3,4
 710.20803061 844.797851562 710.20803061 844.797851562 784.520398125 901.641601562 c 128,-1,5
 858.832765639 958.484375 858.832765639 958.484375 858.832765639 1056.71582031 c 128,-1,6
 858.832765639 1154.94628906 858.832765639 1154.94628906 809.235132592 1208.24023438 c 0,7,8
 748.035253849 1274 748.035253849 1274 604.948076763 1274 c 0,9,10
 483.56484977 1274 483.56484977 1274 412.898193948 1212.66796875 c 128,-1,11
 342.2326161 1151.3359375 342.2326161 1151.3359375 342.2326161 1049 c 2,12,13
 342.2326161 1011.5 342.2326161 1011.5 342.2326161 1024 c 1,14,-1
 107 1024 l 1,15,16
 107 1011.5 107 1011.5 107 1049 c 2,17,18
 107 1233.08496094 107 1233.08496094 241.186523438 1354.54296875 c 0,19,20
 379.071336199 1476 379.071336199 1476 604.948076763 1476 c 0,21,22
 843.19565925 1476 843.19565925 1476 970.416992188 1363.68945312 c 0,23,24
 1095 1251.37792969 1095 1251.37792969 1095 1053.1328125 c 0,25,26
 1095 953.6640625 1095 953.6640625 1029.08105469 861.354492188 c 0,27,28
 979.666992188 792.157226562 979.666992188 792.157226562 903.137695312 749.145507812 c 1,29,30
 992.220703125 709.537109375 992.220703125 709.537109375 1046.56640625 638.883789062 c 0,31,32
 1117 547.31640625 1117 547.31640625 1117 416.4140625 c 0,33,34
 1117 215.97265625 1117 215.97265625 981.287109375 97.986328125 c 0,35,36
 842.908917881 -20 842.908917881 -20 606.204995697 -20 c 128,-1,37
 369.502151488 -20 369.502151488 -20 230.352539062 97.783203125 c 0,38,39
 94 215.565429688 94 215.565429688 94 409 c 2,40,41
 94 446.5 94 446.5 94 434 c 1,42,-1
 330 434 l 1,43,44
 330 446.5 330 446.5 330 409 c 2,45,46
 330 304.963867188 330 304.963867188 403.354880638 242.982421875 c 0,47,48
 477.722224881 181 477.722224881 181 606.051923237 181 c 0,49,50
 742.658314192 181 742.658314192 181 812.970316216 240.569335938 c 0,51,52
 882 299.999023438 882 299.999023438 882 414.345703125 c 0,53,54
 882 524.03125 882 524.03125 805.592654825 582.109375 c 0,55,56
 728.068999572 640.186523438 728.068999572 640.186523438 576.055110918 642 c 1,0,-1
EndSplineSet
Substitution2: "Podtablica 'numr' Cyfry frakcji g+APMA-rnej (licznika) w tablicy 25" uni00B3
Substitution2: "Podtablica 'dnom' Cyfry frakcji dolnej (mianownika) w tablicy 24" three.dnom
Substitution2: "Podtablica 'pnum' Cyfry proporcjonalnej szeroko+AVsA-ci w tablicy 19" three.pnum
Substitution2: "Podtablica 'onum' Cyfry nautyczne w tablicy 18" three.oldstyle
Substitution2: "Podtablica 'c2sc' Wersaliki na kapitaliki w tablicy 0" three.c2sc
Position2: "Podtablica 'cpsp' +AVoA-wiat+AUIA-o wersalikowe w tablicy 0" dx=36 dy=0 dh=72 dv=0
EndChar

StartChar: four
Encoding: 52 52 24
Width: 1250
GlyphClass: 1
Flags: W
LayerCount: 2
Fore
SplineSet
766 0 m 1,0,-1
 766 313 l 1,1,-1
 53 313 l 1,2,-1
 53 451.346679688 l 1,3,4
 391.745200314 939.959960938 391.745200314 939.959960938 750.651849733 1456 c 1,5,-1
 1002 1456 l 1,6,-1
 1002 514 l 1,7,-1
 1204 514 l 1,8,-1
 1204 313 l 1,9,-1
 1002 313 l 1,10,-1
 1002 0 l 1,11,-1
 766 0 l 1,0,-1
337.842420205 514 m 1,12,-1
 766 514 l 1,13,-1
 750.229178972 1111.90527344 l 1,14,-1
 337.842420205 514 l 1,12,-1
EndSplineSet
Substitution2: "Podtablica 'numr' Cyfry frakcji g+APMA-rnej (licznika) w tablicy 25" four.numr
Substitution2: "Podtablica 'dnom' Cyfry frakcji dolnej (mianownika) w tablicy 24" four.dnom
Substitution2: "Podtablica 'pnum' Cyfry proporcjonalnej szeroko+AVsA-ci w tablicy 19" four.pnum
Substitution2: "Podtablica 'onum' Cyfry nautyczne w tablicy 18" four.oldstyle
Substitution2: "Podtablica 'c2sc' Wersaliki na kapitaliki w tablicy 0" four.c2sc
Position2: "Podtablica 'cpsp' +AVoA-wiat+AUIA-o wersalikowe w tablicy 0" dx=36 dy=0 dh=72 dv=0
EndChar

StartChar: five
Encoding: 53 53 25
Width: 1250
GlyphClass: 1
Flags: W
LayerCount: 2
Fore
SplineSet
206.296875 711.130859375 m 1,0,-1
 284.767578125 1456 l 1,1,-1
 1128.35058594 1456 l 1,2,3
 1128.35058594 1320.5 1128.35058594 1320.5 1128.35058594 1235 c 1,4,-1
 495.874670695 1235 l 1,5,-1
 455.677406945 931.802734375 l 1,6,7
 562.50318938 976 562.50318938 976 691.048530724 976 c 0,8,9
 923.351548273 976 923.351548273 976 1047.45800781 840.162109375 c 0,10,11
 1171.35058594 704.32421875 1171.35058594 704.32421875 1171.35058594 475.86328125 c 128,-1,12
 1171.35058594 247.403320312 1171.35058594 247.403320312 1042.75976562 113.702148438 c 0,13,14
 912.969845167 -20 912.969845167 -20 660.106307081 -20 c 0,15,16
 436.435643289 -20 436.435643289 -20 303.646484375 93.4033203125 c 0,17,18
 174.345703125 206.806640625 174.345703125 206.806640625 156.452148438 405.735351562 c 2,19,20
 155.2265625 444.368164062 155.2265625 444.368164062 154 433 c 1,21,-1
 378.18359375 433 l 1,22,23
 379.653320312 447.197265625 379.653320312 447.197265625 381.122070312 411.39453125 c 2,24,25
 396.872070312 295.583007812 396.872070312 295.583007812 468.402007914 238.25390625 c 0,26,27
 540.142598075 181 540.142598075 181 660.106307081 181 c 0,28,29
 789.747015228 181 789.747015228 181 863.61466743 257.717773438 c 0,30,31
 936.350585938 334.435546875 936.350585938 334.435546875 936.350585938 474.333984375 c 0,32,33
 936.350585938 605.114257812 936.350585938 605.114257812 857.285281908 682.557617188 c 0,34,35
 777.088244186 760 777.088244186 760 643.530115843 760 c 0,36,37
 519.482793059 760 519.482793059 760 450.688361887 712.381835938 c 1,38,-1
 387.36328125 664.640625 l 1,39,-1
 206.296875 711.130859375 l 1,0,-1
EndSplineSet
Substitution2: "Podtablica 'numr' Cyfry frakcji g+APMA-rnej (licznika) w tablicy 25" five.numr
Substitution2: "Podtablica 'dnom' Cyfry frakcji dolnej (mianownika) w tablicy 24" five.dnom
Substitution2: "Podtablica 'pnum' Cyfry proporcjonalnej szeroko+AVsA-ci w tablicy 19" five.pnum
Substitution2: "Podtablica 'onum' Cyfry nautyczne w tablicy 18" five.oldstyle
Substitution2: "Podtablica 'c2sc' Wersaliki na kapitaliki w tablicy 0" five.c2sc
Position2: "Podtablica 'cpsp' +AVoA-wiat+AUIA-o wersalikowe w tablicy 0" dx=36 dy=0 dh=72 dv=0
EndChar

StartChar: six
Encoding: 54 54 26
Width: 1250
GlyphClass: 1
Flags: W
LayerCount: 2
Fore
SplineSet
922 1456.99707031 m 1,0,-1
 947 1456.99707031 l 1,1,2
 947 1328.49902344 947 1328.49902344 947 1250 c 1,3,-1
 922 1250 l 1,4,-1
 886.356066672 1250 l 1,5,6
 658.833880531 1246.45019531 658.833880531 1246.45019531 525.353622735 1139.29589844 c 0,7,8
 413.694742335 1046.83789062 413.694742335 1046.83789062 380.432538978 890.3203125 c 1,9,10
 505.042300619 980 505.042300619 980 689.493395753 980 c 0,11,12
 911.58203125 980 911.58203125 980 1031.79101562 841.541015625 c 128,-1,13
 1152 703.081054688 1152 703.081054688 1152 487.317382812 c 0,14,15
 1152 258.395507812 1152 258.395507812 1022.53320312 119.197265625 c 0,16,17
 891.68979764 -20 891.68979764 -20 651.940478181 -20 c 0,18,19
 407.937117278 -20 407.937117278 -20 268.541015625 143.055664062 c 0,20,21
 132 306.112304688 132 306.112304688 132 559.38671875 c 2,22,23
 132 597.809570312 132 597.809570312 132 628.061523438 c 2,24,25
 132 1025.43359375 132 1025.43359375 309.036132812 1237.61035156 c 0,26,27
 499.42489498 1451.99414062 499.42489498 1451.99414062 886.784275205 1456.99707031 c 1,28,-1
 887.198461796 1456.99707031 l 1,29,-1
 922 1456.99707031 l 1,0,-1
846.126036812 696.450195312 m 0,30,31
 774.357423834 776 774.357423834 776 655.253970908 776 c 0,32,33
 559.152974328 776 559.152974328 776 478.92050151 726.336914062 c 128,-1,34
 398.689107303 676.673828125 398.689107303 676.673828125 368 603.782226562 c 1,35,36
 368 581.505859375 368 581.505859375 368 542.830078125 c 2,37,38
 368 377.986328125 368 377.986328125 451.080475216 278.764648438 c 0,39,40
 532.250260917 183 532.250260917 183 651.940478181 183 c 0,41,42
 776.496309276 183 776.496309276 183 847.160424678 261.991210938 c 0,43,44
 919 343.788085938 919 343.788085938 919 478.993164062 c 128,-1,45
 919 614.197265625 919 614.197265625 846.126036812 696.450195312 c 0,30,31
EndSplineSet
Substitution2: "Podtablica 'numr' Cyfry frakcji g+APMA-rnej (licznika) w tablicy 25" six.numr
Substitution2: "Podtablica 'dnom' Cyfry frakcji dolnej (mianownika) w tablicy 24" six.dnom
Substitution2: "Podtablica 'lnum' Cyfry zwyk+AUIA-e w tablicy 21" six.pnum
Substitution2: "Podtablica 'tnum' Cyfry tabelaryczne w tablicy 20" six.oldstyle
Substitution2: "Podtablica 'pnum' Cyfry proporcjonalnej szeroko+AVsA-ci w tablicy 19" six.pnum
Substitution2: "Podtablica 'onum' Cyfry nautyczne w tablicy 18" six.oldstyle
Substitution2: "Podtablica 'c2sc' Wersaliki na kapitaliki w tablicy 0" six.c2sc
Position2: "Podtablica 'cpsp' +AVoA-wiat+AUIA-o wersalikowe w tablicy 0" dx=36 dy=0 dh=72 dv=0
EndChar

StartChar: seven
Encoding: 55 55 27
Width: 1250
GlyphClass: 1
Flags: W
LayerCount: 2
Fore
SplineSet
1161 1326.12890625 m 1,0,1
 849.571443878 665.220703125 849.571443878 665.220703125 499.227539062 -0 c 1,2,3
 374.586914062 25 374.586914062 25 249.947265625 0 c 1,4,5
 571.433040734 627 571.433040734 627 899.629914352 1254 c 1,6,-1
 77 1254 l 1,7,8
 77 1330 77 1330 77 1456 c 1,9,-1
 1161 1456 l 1,10,11
 1161 1369.05078125 1161 1369.05078125 1161 1326.12890625 c 1,0,1
EndSplineSet
Substitution2: "Podtablica 'numr' Cyfry frakcji g+APMA-rnej (licznika) w tablicy 25" seven.numr
Substitution2: "Podtablica 'dnom' Cyfry frakcji dolnej (mianownika) w tablicy 24" seven.dnom
Substitution2: "Podtablica 'pnum' Cyfry proporcjonalnej szeroko+AVsA-ci w tablicy 19" seven.pnum
Substitution2: "Podtablica 'onum' Cyfry nautyczne w tablicy 18" seven.oldstyle
Substitution2: "Podtablica 'c2sc' Wersaliki na kapitaliki w tablicy 0" seven.c2sc
Position2: "Podtablica 'cpsp' +AVoA-wiat+AUIA-o wersalikowe w tablicy 0" dx=36 dy=0 dh=72 dv=0
EndChar

StartChar: eight
Encoding: 56 56 28
Width: 1250
GlyphClass: 1
Flags: W
LayerCount: 2
Fore
SplineSet
977.837890625 1364.73535156 m 0,0,1
 1104 1253.47167969 1104 1253.47167969 1104 1064.74511719 c 0,2,3
 1104 951.859375 1104 951.859375 1042.22167969 863.48828125 c 0,4,5
 994.337890625 794.993164062 994.337890625 794.993164062 919.986328125 749.736328125 c 1,6,7
 1009.91308594 701.874023438 1009.91308594 701.874023438 1066.92285156 623.89453125 c 0,8,9
 1138 526.673828125 1138 526.673828125 1138 403.833984375 c 0,10,11
 1138 210.00390625 1138 210.00390625 1002.70703125 95.001953125 c 0,12,13
 864.851940483 -20 864.851940483 -20 623.848315946 -20 c 128,-1,14
 382.844691409 -20 382.844691409 -20 246.249023438 95.5302734375 c 0,15,16
 112 211.060546875 112 211.060546875 112 403.833984375 c 0,17,18
 112 525.451171875 112 525.451171875 180.801757812 623.510742188 c 0,19,20
 236.314453125 702.627929688 236.314453125 702.627929688 326.326171875 750.794921875 c 1,21,22
 252.80078125 796.122070312 252.80078125 796.122070312 206.108398438 864.703125 c 0,23,24
 146 952.98828125 146 952.98828125 146 1064.74511719 c 0,25,26
 146 1253.44140625 146 1253.44140625 271.646484375 1364.72070312 c 0,27,28
 401.372906905 1476 401.372906905 1476 624.432238076 1476 c 128,-1,29
 847.4904919 1476 847.4904919 1476 977.837890625 1364.73535156 c 0,0,1
622.793593131 648 m 128,-1,31
 496.362601075 648 496.362601075 648 421.163773208 582.87109375 c 0,32,33
 347 517.676757812 347 517.676757812 347 409.897460938 c 128,-1,34
 347 302.119140625 347 302.119140625 418.753747736 241.559570312 c 0,35,36
 491.617964428 181 491.617964428 181 624.447320936 181 c 128,-1,37
 757.276677443 181 757.276677443 181 830.6935732 242.033203125 c 0,38,39
 903 303.06640625 903 303.06640625 903 409.376953125 c 128,-1,40
 903 515.6875 903 515.6875 826.758024228 581.811523438 c 0,41,30
 749.330165203 648 749.330165203 648 622.793593131 648 c 128,-1,31
866.60155218 1060.58398438 m 128,-1,43
 866.60155218 1155.73046875 866.60155218 1155.73046875 798.421640696 1214.93652344 c 128,-1,44
 730.406563319 1274 730.406563319 1274 623.287018104 1274 c 128,-1,45
 516.16747289 1274 516.16747289 1274 449.782421681 1217.17578125 c 128,-1,46
 383.39844782 1160.35253906 383.39844782 1160.35253906 383.39844782 1062.84179688 c 128,-1,47
 383.39844782 965.33203125 383.39844782 965.33203125 448.799881123 907.666015625 c 128,-1,48
 514.201314425 850 514.201314425 850 625 850 c 128,-1,49
 735.798685575 850 735.798685575 850 801.200118877 907.666015625 c 128,-1,42
 866.60155218 965.33203125 866.60155218 965.33203125 866.60155218 1060.58398438 c 128,-1,43
EndSplineSet
Substitution2: "Podtablica 'numr' Cyfry frakcji g+APMA-rnej (licznika) w tablicy 25" eight.numr
Substitution2: "Podtablica 'dnom' Cyfry frakcji dolnej (mianownika) w tablicy 24" eight.dnom
Substitution2: "Podtablica 'lnum' Cyfry zwyk+AUIA-e w tablicy 21" eight.pnum
Substitution2: "Podtablica 'tnum' Cyfry tabelaryczne w tablicy 20" eight.oldstyle
Substitution2: "Podtablica 'pnum' Cyfry proporcjonalnej szeroko+AVsA-ci w tablicy 19" eight.pnum
Substitution2: "Podtablica 'onum' Cyfry nautyczne w tablicy 18" eight.oldstyle
Substitution2: "Podtablica 'c2sc' Wersaliki na kapitaliki w tablicy 0" eight.c2sc
Position2: "Podtablica 'cpsp' +AVoA-wiat+AUIA-o wersalikowe w tablicy 0" dx=36 dy=0 dh=72 dv=0
EndChar

StartChar: nine
Encoding: 57 57 29
Width: 1250
GlyphClass: 1
Flags: W
LayerCount: 2
Fore
SplineSet
768.323064197 506.8203125 m 0,0,1
 673.365220215 462 673.365220215 462 560.468723655 462 c 0,2,3
 412.863989262 462 412.863989262 462 306.829101562 526.48046875 c 0,4,5
 207.190429688 590.9609375 207.190429688 590.9609375 153.595703125 706.340820312 c 128,-1,6
 100 821.721679688 100 821.721679688 100 959.728515625 c 0,7,8
 100 1107.71484375 100 1107.71484375 158.307617188 1227.67675781 c 128,-1,9
 216.615234375 1347.63769531 216.615234375 1347.63769531 324.806640625 1411.81835938 c 0,10,11
 442.192142582 1476 442.192142582 1476 600.262350363 1476 c 0,12,13
 852.608176319 1476 852.608176319 1476 986.310546875 1310.3515625 c 0,14,15
 1116 1147.62792969 1116 1147.62792969 1116 869.530273438 c 2,16,17
 1116 839.946289062 1116 839.946289062 1116 817.298828125 c 2,18,19
 1116 397.258789062 1116 397.258789062 941.309570312 200.62890625 c 0,20,21
 755.698648389 3.9990234375 755.698648389 3.9990234375 368.547378182 -0.9970703125 c 1,22,-1
 368.132861238 -0.9970703125 l 1,23,-1
 330 -0.9970703125 l 1,24,-1
 305 -0.9970703125 l 1,25,26
 305 127.000976562 305 127.000976562 305 205 c 1,27,-1
 330 205 l 1,28,-1
 371.201797889 205 l 1,29,30
 613.509621059 208.538085938 613.509621059 208.538085938 741.634217986 307.731445312 c 0,31,32
 850.450313369 395.223632812 850.450313369 395.223632812 874.602539062 573.079101562 c 1,33,34
 826.67819837 534.364257812 826.67819837 534.364257812 768.323064197 506.8203125 c 0,0,1
404.167769189 747.9453125 m 0,35,36
 474.899040792 665 474.899040792 665 593.630079245 665 c 0,37,38
 687.460955283 665 687.460955283 665 766.33791664 714.764648438 c 128,-1,39
 845.215957469 764.529296875 845.215957469 764.529296875 881 836.19140625 c 1,40,41
 881 861.1328125 881 861.1328125 881 902.229492188 c 2,42,43
 881 1069.52734375 881 1069.52734375 799.714087001 1172.8671875 c 0,44,45
 720.650377123 1272 720.650377123 1272 600.263429834 1272 c 128,-1,46
 479.877562015 1272 479.877562015 1272 406.393638826 1191.32617188 c 0,47,48
 332 1108.06152344 332 1108.06152344 332 971.168945312 c 128,-1,49
 332 834.275390625 332 834.275390625 404.167769189 747.9453125 c 0,35,36
EndSplineSet
Substitution2: "Podtablica 'numr' Cyfry frakcji g+APMA-rnej (licznika) w tablicy 25" nine.numr
Substitution2: "Podtablica 'dnom' Cyfry frakcji dolnej (mianownika) w tablicy 24" nine.dnom
Substitution2: "Podtablica 'pnum' Cyfry proporcjonalnej szeroko+AVsA-ci w tablicy 19" nine.pnum
Substitution2: "Podtablica 'onum' Cyfry nautyczne w tablicy 18" nine.oldstyle
Substitution2: "Podtablica 'c2sc' Wersaliki na kapitaliki w tablicy 0" nine.c2sc
Position2: "Podtablica 'cpsp' +AVoA-wiat+AUIA-o wersalikowe w tablicy 0" dx=36 dy=0 dh=72 dv=0
EndChar

StartChar: colon
Encoding: 58 58 30
Width: 496
GlyphClass: 1
Flags: W
LayerCount: 2
Fore
SplineSet
110 980.886678533 m 0
 110 1037.51195428 110 1037.51195428 145.397020358 1077.25597714 c 0
 180.794040716 1117 180.794040716 1117 248.871521145 1117 c 0
 316.949001574 1117 316.949001574 1117 353.474500787 1077.3791195 c 0
 390 1037.758239 390 1037.758239 390 980.885553293 c 0
 390 924.012867589 390 924.012867589 353.356780744 885.506433795 c 0
 316.713561488 847 316.713561488 847 248.872102991 847 c 0
 181.030644494 847 181.030644494 847 145.515322247 885.630701392 c 0
 110 924.261402783 110 924.261402783 110 980.886678533 c 0
109 97.8866785335 m 0
 109 154.511954284 109 154.511954284 144.397020358 194.255977142 c 0
 179.794040716 234 179.794040716 234 247.871521145 234 c 0
 315.949001574 234 315.949001574 234 352.474500787 194.379119498 c 0
 389 154.758238996 389 154.758238996 389 97.8855532925 c 0
 389 41.0128675894 389 41.0128675894 352.356780744 2.50643379469 c 0
 315.713561488 -36 315.713561488 -36 247.872102991 -36 c 0
 180.030644494 -36 180.030644494 -36 144.515322247 2.63070139158 c 0
 109 41.2614027832 109 41.2614027832 109 97.8866785335 c 0
EndSplineSet
EndChar

StartChar: semicolon
Encoding: 59 59 31
Width: 433
GlyphClass: 1
Flags: W
LayerCount: 2
Fore
SplineSet
114 244 m 1
 345 244 l 1
 345 74 l 2
 345 -32.8023075335 345 -32.8023075335 293.020842766 -138.860789971 c 0
 241.041685531 -244.919272409 241.041685531 -244.919272409 161.757790865 -309.403506737 c 2
 147.273638657 -321.183950534 l 1
 5.80210528427 -224.174899078 l 1
 20.6748654019 -203.447967425 l 2
 110.108507837 -78.8117210522 110.108507837 -78.8117210522 114 52.3715165167 c 1
 114 244 l 1
86 980.886678533 m 0
 86 1037.51195428 86 1037.51195428 121.397020358 1077.25597714 c 0
 156.794040716 1117 156.794040716 1117 224.871521145 1117 c 0
 292.949001574 1117 292.949001574 1117 329.474500787 1077.3791195 c 0
 366 1037.758239 366 1037.758239 366 980.885553293 c 0
 366 924.012867589 366 924.012867589 329.356780744 885.506433795 c 0
 292.713561488 847 292.713561488 847 224.872102991 847 c 0
 157.030644494 847 157.030644494 847 121.515322247 885.630701392 c 0
 86 924.261402783 86 924.261402783 86 980.886678533 c 0
EndSplineSet
EndChar

StartChar: less
Encoding: 60 60 32
Width: 1041
GlyphClass: 1
Flags: W
LayerCount: 2
Fore
SplineSet
915 407.865102879 m 1
 915 155.860572038 l 1
 47 558.026831207 l 1
 47 735.990923206 l 1
 915 1137.09605768 l 1
 915 885.259246724 l 1
 330.168817911 644.226587014 l 1
 915 407.865102879 l 1
EndSplineSet
EndChar

StartChar: equal
Encoding: 61 61 33
Width: 1124
GlyphClass: 1
Flags: W
LayerCount: 2
Fore
SplineSet
1011 789 m 1
 127 789 l 1
 127 1000 l 1
 1011 1000 l 1
 1011 789 l 1
1011 374 m 1
 127 374 l 1
 127 584 l 1
 1011 584 l 1
 1011 374 l 1
EndSplineSet
EndChar

StartChar: greater
Encoding: 62 62 34
Width: 1070
GlyphClass: 1
Flags: W
LayerCount: 2
Fore
SplineSet
109 891.940568435 m 1
 109 1137.40875533 l 1
 1013 737.277607789 l 1
 1013 558.739827598 l 1
 109 157.550132048 l 1
 109 404.987506857 l 1
 726.804172175 649.866013831 l 1
 109 891.940568435 l 1
EndSplineSet
EndChar

StartChar: question
Encoding: 63 63 35
Width: 967
GlyphClass: 1
Flags: W
LayerCount: 2
Fore
SplineSet
598.647796388 902.979588866 m 1
 676 990.69931667 676 990.69931667 676 1087.96083586 c 0
 676 1185.22235505 676 1185.22235505 628.03554225 1237.11117752 c 0
 580.071084499 1289 580.071084499 1289 486.712525904 1289 c 0
 393.353967309 1289 393.353967309 1289 339.176983654 1241.81359488 c 0
 285 1194.62718976 285 1194.62718976 285 1115 c 2
 285 1090 l 1
 49.6894171039 1090 l 1
 50.0019390525 1115.31427784 l 2
 52.1393716654 1288.44631949 52.1393716654 1288.44631949 173.369737185 1394.72315974 c 0
 294.600102704 1501 294.600102704 1501 486 1501 c 0
 685.066485471 1501 685.066485471 1501 798.033242735 1392.31634254 c 0
 911 1283.63268507 911 1283.63268507 911 1097.31772598 c 0
 911 911.002766879 911 911.002766879 741.848702098 733.498318463 c 1
 633.11205293 625.759253232 l 1
 567 551.909081949 567 551.909081949 567 410 c 2
 567 385 l 1
 331.576236166 385 l 1
 332.003590968 410.427610685 l 2
 334.073826366 533.606616867 334.073826366 533.606616867 360.629021661 606.898955882 c 0
 387.184216956 680.191294897 387.184216956 680.191294897 467.569065568 767.88385702 c 1
 468.060027781 768.404407477 l 1
 598.647796388 902.979588866 l 1
458 -36 m 0
 393.133753524 -36 393.133753524 -36 358.566876762 1.08083143565 c 0
 324 38.1616628713 324 38.1616628713 324 92.8805507721 c 0
 324 147.599438673 324 147.599438673 358.442876008 185.799719336 c 0
 392.885752016 224 392.885752016 224 458 224 c 0
 522.980058478 224 522.980058478 224 557.990029239 185.864138993 c 0
 593 147.728277985 593 147.728277985 593 92.8799413826 c 0
 593 38.03160478 593 38.03160478 557.866357054 1.01580239 c 0
 522.732714107 -36 522.732714107 -36 458 -36 c 0
EndSplineSet
EndChar

StartChar: at
Encoding: 64 64 36
Width: 1839
GlyphClass: 1
Flags: W
LayerCount: 2
Fore
SplineSet
822 -45 m 0
 666.195269013 -45 666.195269013 -45 585.825491452 82.7108794123 c 0
 524.076086957 180.833220803 524.076086957 180.833220803 524.076086957 336.122046314 c 0
 524.076086957 375.834290239 524.076086957 375.834290239 528.103513691 419.288105009 c 0
 543.497675817 588.623888391 543.497675817 588.623888391 606.199082813 722.83599097 c 0
 668.90048981 857.048093549 668.90048981 857.048093549 770.176888905 935.524046774 c 0
 871.453288 1014 871.453288 1014 985 1014 c 0
 1070.10207118 1014 1070.10207118 1014 1138.07312064 991.165975573 c 0
 1206.04417009 968.331951147 1206.04417009 968.331951147 1289.44866197 902.650913792 c 2
 1300.16382042 894.212726511 l 1
 1246.90335515 326.783923401 l 2
 1244.8253012 301.456249295 1244.8253012 301.456249295 1244.8253012 279.146719408 c 0
 1244.8253012 158.803875438 1244.8253012 158.803875438 1304.00872604 131.801364799 c 0
 1323.29933642 123 1323.29933642 123 1350 123 c 0
 1449.14464982 123 1449.14464982 123 1511.78434512 223.22351247 c 0
 1578.23749313 329.548549301 1578.23749313 329.548549301 1584.01408528 502.84631358 c 1
 1584.03015425 503.23745576 l 2
 1585.97808219 543.118717218 1585.97808219 543.118717218 1585.97808219 580.992081066 c 0
 1585.97808219 903.462308935 1585.97808219 903.462308935 1444.98303996 1079.3827286 c 0
 1289.00302097 1274 1289.00302097 1274 967 1274 c 0
 773.292223633 1274 773.292223633 1274 623.417563483 1178.4068674 c 0
 473.47037751 1082.76747635 473.47037751 1082.76747635 386.108981045 900.279225958 c 0
 286.285714286 691.759513171 286.285714286 691.759513171 286.285714286 408.479591837 c 0
 286.285714286 208.693256621 286.285714286 208.693256621 346.265557191 56.6610159227 c 0
 415.345459493 -118.437347551 415.345459493 -118.437347551 556.397227556 -210.718673776 c 0
 697.448995619 -303 697.448995619 -303 899 -303 c 0
 985.985540846 -303 985.985540846 -303 1073.27540506 -281.7803645 c 0
 1160.56526928 -260.560728999 1160.56526928 -260.560728999 1217.43003701 -227.389614488 c 2
 1244.27584738 -211.729558443 l 1
 1296.7487122 -374.820895056 l 1
 1280.28489904 -385.177164626 l 2
 1214.85695175 -426.33345405 1214.85695175 -426.33345405 1108.94053255 -452.166727025 c 0
 1003.02411335 -478 1003.02411335 -478 895 -478 c 0
 637.831439715 -478 637.831439715 -478 451.439656405 -361.505135431 c 0
 265.047873094 -245.010270862 265.047873094 -245.010270862 172.465108589 -26.2253022259 c 0
 91.5812807882 164.913575761 91.5812807882 164.913575761 91.5812807882 412.083137179 c 0
 91.5812807882 732.431038996 91.5812807882 732.431038996 218.67562749 983.757247114 c 0
 332.815760948 1209.4667903 332.815760948 1209.4667903 528.716389954 1332.67797539 c 0
 724.793249169 1456 724.793249169 1456 971 1456 c 0
 1227.20932179 1456 1227.20932179 1456 1411.64269721 1339.95203344 c 0
 1596.07607264 1223.90406688 1596.07607264 1223.90406688 1686.12332176 1005.5136121 c 0
 1764.45454545 815.537885684 1764.45454545 815.537885684 1764.45454545 569.548209366 c 0
 1764.45454545 535.779717475 1764.45454545 535.779717475 1762.96892515 500.743838683 c 0
 1750.58203084 250.941470109 1750.58203084 250.941470109 1637.80540058 104.749541987 c 0
 1522.28432533 -45 1522.28432533 -45 1329 -45 c 0
 1239.10438445 -45 1239.10438445 -45 1177.7187708 -9.03563001333 c 0
 1116.33315715 26.9287399733 1116.33315715 26.9287399733 1082.89598019 95.6299875174 c 1
 1035.73669234 34.3221821757 1035.73669234 34.3221821757 978.290145524 0.0195678916516 c 0
 902.895929416 -45 902.895929416 -45 822 -45 c 0
733.403669725 348.401060517 m 0
 733.403669725 261.72554473 733.403669725 261.72554473 760.578223905 210.731319601 c 0
 779.338945616 175.526014663 779.338945616 175.526014663 809.405136584 160.343087662 c 0
 833.847698336 148 833.847698336 148 867 148 c 0
 917.264804173 148 917.264804173 148 966.568005962 193.305644887 c 0
 1015.87120775 238.611289774 1015.87120775 238.611289774 1049.50495594 325.946468197 c 1
 1050.12694945 331.544409752 l 1
 1094.51532048 816.921597381 l 1
 1050.50747736 836 1050.50747736 836 1001 836 c 0
 897.647470483 836 897.647470483 836 828.544891453 728.507099286 c 0
 755.335116297 614.625226821 755.335116297 614.625226821 736.893482985 414.67909723 c 0
 733.403669725 379.282419874 733.403669725 379.282419874 733.403669725 348.401060517 c 0
EndSplineSet
EndChar

StartChar: A
Encoding: 65 65 37
Width: 1436
GlyphClass: 2
Flags: W
LayerCount: 2
Fore
SplineSet
424.928703353 355 m 1,0,-1
 279.87890625 0 l 1,1,2
 153.939453125 25 153.939453125 25 28 0 c 1,3,4
 317.642640777 728 317.642640777 728 622.085092429 1456 c 1,5,-1
 836.404935484 1456 l 1,6,7
 1141.39537693 728 1141.39537693 728 1431.64746094 0 c 1,8,9
 1306.24023438 25 1306.24023438 25 1180.83203125 -0 c 1,10,-1
 1033.66471886 355 l 1,11,-1
 424.928703353 355 l 1,0,-1
954.008715364 563 m 1,12,-1
 729.300846879 1145.796875 l 1,13,-1
 505.499746414 563 l 1,14,-1
 954.008715364 563 l 1,12,-1
EndSplineSet
Substitution2: "Podtablica 'c2sc' Wersaliki na kapitaliki w tablicy 0" A.c2sc
Position2: "Podtablica 'cpsp' +AVoA-wiat+AUIA-o wersalikowe w tablicy 0" dx=36 dy=0 dh=72 dv=0
EndChar

StartChar: B
Encoding: 66 66 38
Width: 1375
GlyphClass: 2
Flags: W
LayerCount: 2
Fore
SplineSet
703.927949973 0 m 2,0,-1
 169 0 l 1,1,2
 169 728 169 728 169 1456 c 1,3,-1
 670 1456 l 2,4,5
 957.724919496 1456 957.724919496 1456 1092.33691406 1355.78027344 c 0,6,7
 1221 1253.76953125 1221 1253.76953125 1221 1056.71191406 c 0,8,9
 1221 950.142578125 1221 950.142578125 1158.11914062 867.862304688 c 0,10,11
 1112.62890625 808.337890625 1112.62890625 808.337890625 1043.04101562 768.548828125 c 1,12,13
 1130.46582031 731.056640625 1130.46582031 731.056640625 1186.60351562 657.768554688 c 0,14,15
 1260 561.946289062 1260 561.946289062 1260 430.225585938 c 0,16,17
 1260 229.828125 1260 229.828125 1125.22070312 114.9140625 c 0,18,19
 986.398470158 0 986.398470158 0 703.927949973 0 c 2,0,-1
411 656 m 1,20,-1
 411 207 l 1,21,-1
 708.60766721 207 l 2,22,23
 854.193030668 207 854.193030668 207 935.831017781 266.276367188 c 0,24,25
 1017 325.553710938 1017 325.553710938 1017 430.552734375 c 0,26,27
 1017 556.983398438 1017 556.983398438 926.13911316 611.383789062 c 0,28,29
 851.235074631 656 851.235074631 656 712.117455139 656 c 2,30,-1
 411 656 l 1,20,-1
670 1248 m 2,31,-1
 411 1248 l 1,32,-1
 411 860 l 1,33,-1
 677.019575856 860 l 2,34,35
 813.838467057 860 813.838467057 860 892.839543188 912.936523438 c 128,-1,36
 971.841761827 965.872070312 971.841761827 965.872070312 971.841761827 1056.34863281 c 0,37,38
 971.841761827 1157.609375 971.841761827 1157.609375 901.249552608 1201.74414062 c 0,39,40
 827.262948879 1248 827.262948879 1248 670 1248 c 2,31,-1
EndSplineSet
Substitution2: "Podtablica 'c2sc' Wersaliki na kapitaliki w tablicy 0" B.c2sc
Position2: "Podtablica 'cpsp' +AVoA-wiat+AUIA-o wersalikowe w tablicy 0" dx=36 dy=0 dh=72 dv=0
EndChar

StartChar: C
Encoding: 67 67 39
Width: 1433
GlyphClass: 2
Flags: W
LayerCount: 2
Fore
SplineSet
1161.04882812 111.767578125 m 0,0,1
 1004.01340629 -20 1004.01340629 -20 738.509294913 -20 c 0,2,3
 449.117988676 -20 449.117988676 -20 281.180664062 166.70703125 c 0,4,5
 119 353.415039062 119 353.415039062 119 662.19921875 c 2,6,7
 119 729.873046875 119 729.873046875 119 797.671875 c 2,8,9
 119 999.522460938 119 999.522460938 194.264648438 1154.22363281 c 128,-1,10
 269.528320312 1308.92382812 269.528320312 1308.92382812 411.922049118 1392.46191406 c 0,11,12
 561.290645868 1476 561.290645868 1476 756.754579813 1476 c 0,13,14
 1016.24785083 1476 1016.24785083 1476 1168.85644531 1339.95605469 c 0,15,16
 1315.93066406 1203.91308594 1315.93066406 1203.91308594 1339.87402344 965.5234375 c 2,17,18
 1341.25585938 926.76171875 1341.25585938 926.76171875 1342.63867188 938 c 1,19,-1
 1100.33203125 938 l 1,20,21
 1098.79394531 923.709960938 1098.79394531 923.709960938 1097.24903409 959.418945312 c 2,22,23
 1071.75510545 1124.74707031 1071.75510545 1124.74707031 989.461617712 1196.37304688 c 128,-1,24
 907.167081879 1268 907.167081879 1268 756.754579813 1268 c 0,25,26
 572.49271417 1268 572.49271417 1268 468.409275088 1147.3671875 c 0,27,28
 362 1023.8046875 362 1023.8046875 362 792.015625 c 2,29,30
 362 724.759765625 362 724.759765625 362 657.249023438 c 2,31,32
 362 438.317382812 362 438.317382812 463.14048791 310.689453125 c 0,33,34
 561.355627926 187 561.355627926 187 738.509294913 187 c 0,35,36
 900.392178295 187 900.392178295 187 984.655041623 253.57421875 c 128,-1,37
 1068.77431556 320.03515625 1068.77431556 320.03515625 1097.29515039 490.8671875 c 2,38,39
 1098.94140625 526.43359375 1098.94140625 526.43359375 1100.58496094 512 c 1,40,-1
 1343.09472656 512 l 1,41,42
 1341.46191406 523.036132812 1341.46191406 523.036132812 1339.83007812 484.071289062 c 2,43,44
 1311.71484375 243.534179688 1311.71484375 243.534179688 1161.04882812 111.767578125 c 0,0,1
EndSplineSet
Substitution2: "Podtablica 'ss06' Styl 6 w tablicy 16" C.ss06
Substitution2: "Podtablica 'c2sc' Wersaliki na kapitaliki w tablicy 0" C.c2sc
Position2: "Podtablica 'cpsp' +AVoA-wiat+AUIA-o wersalikowe w tablicy 0" dx=36 dy=0 dh=72 dv=0
EndChar

StartChar: D
Encoding: 68 68 40
Width: 1443
GlyphClass: 2
Flags: W
LayerCount: 2
Fore
SplineSet
597.259765625 0.0009765625 m 1,0,-1
 169 0.0009765625 l 1,1,2
 169 728.000976562 169 728.000976562 169 1456 c 1,3,-1
 605 1456 l 2,4,5
 825.025011721 1456 825.025011721 1456 995.176230816 1371.39746094 c 0,6,7
 1155.875 1286.79394531 1155.875 1286.79394531 1238.421875 1131.19628906 c 128,-1,8
 1320.96972656 975.59765625 1320.96972656 975.59765625 1322 775.373046875 c 1,9,10
 1322 763.051757812 1322 763.051757812 1322 753.13671875 c 1,11,12
 1322 730.5703125 1322 730.5703125 1322 708.180664062 c 1,13,14
 1322 697.85546875 1322 697.85546875 1322 685.4609375 c 2,15,16
 1322 480.458984375 1322 480.458984375 1239.40820312 324.776367188 c 128,-1,17
 1156.81542969 169.09375 1156.81542969 169.09375 994.578645506 85.5458984375 c 0,18,19
 822.777785062 1.998046875 822.777785062 1.998046875 597.259765625 0.0009765625 c 1,0,-1
610.45911114 1248 m 1,20,-1
 411 1248 l 1,21,22
 411 727.5 411 727.5 411 207 c 1,23,-1
 588 207 l 2,24,25
 821.83716175 207 821.83716175 207 952.260428753 331.302734375 c 0,26,27
 1082 455.60546875 1082 455.60546875 1082 689.810546875 c 2,28,29
 1082 730.231445312 1082 730.231445312 1082 770.915039062 c 2,30,31
 1082 998.80859375 1082 998.80859375 959.828021882 1122.484375 c 0,32,33
 836.973440486 1246.16015625 836.973440486 1246.16015625 610.45911114 1248 c 1,20,-1
EndSplineSet
Substitution2: "Podtablica 'ss06' Styl 6 w tablicy 16" D.ss06
Substitution2: "Podtablica 'c2sc' Wersaliki na kapitaliki w tablicy 0" D.c2sc
Position2: "Podtablica 'cpsp' +AVoA-wiat+AUIA-o wersalikowe w tablicy 0" dx=36 dy=0 dh=72 dv=0
EndChar

StartChar: E
Encoding: 69 69 41
Width: 1264
GlyphClass: 2
Flags: W
LayerCount: 2
Fore
SplineSet
411 1248 m 1,0,-1
 411 855 l 1,1,-1
 1092 855 l 1,2,-1
 1092 648 l 1,3,-1
 411 648 l 1,4,-1
 411 207 l 1,5,-1
 1194 207 l 1,6,7
 1194 128.5 1194 128.5 1194 0 c 1,8,-1
 169 0 l 1,9,10
 169 728 169 728 169 1456 c 1,11,-1
 1184 1456 l 1,12,13
 1184 1327 1184 1327 1184 1248 c 1,14,-1
 411 1248 l 1,0,-1
EndSplineSet
Substitution2: "Podtablica 'c2sc' Wersaliki na kapitaliki w tablicy 0" E.c2sc
Position2: "Podtablica 'cpsp' +AVoA-wiat+AUIA-o wersalikowe w tablicy 0" dx=36 dy=0 dh=72 dv=0
EndChar

StartChar: F
Encoding: 70 70 42
Width: 1232
GlyphClass: 2
Flags: W
LayerCount: 2
Fore
SplineSet
411 1248 m 1,0,-1
 411 825 l 1,1,-1
 1072 825 l 1,2,-1
 1072 618 l 1,3,-1
 411 618 l 1,4,-1
 411 0 l 1,5,-1
 169 0 l 1,6,7
 169 728 169 728 169 1456 c 1,8,-1
 1171 1456 l 1,9,10
 1171 1327 1171 1327 1171 1248 c 1,11,-1
 411 1248 l 1,0,-1
EndSplineSet
Substitution2: "Podtablica 'c2sc' Wersaliki na kapitaliki w tablicy 0" F.c2sc
Position2: "Podtablica 'cpsp' +AVoA-wiat+AUIA-o wersalikowe w tablicy 0" dx=36 dy=0 dh=72 dv=0
EndChar

StartChar: G
Encoding: 71 71 43
Width: 1495
GlyphClass: 2
Flags: W
LayerCount: 2
Fore
SplineSet
1343.99902344 200.966796875 m 1,0,1
 1341.75488281 215.216796875 1341.75488281 215.216796875 1339.51171875 194.741210938 c 2,2,3
 1261.1875 86.0751953125 1261.1875 86.0751953125 1122.98535156 33.037109375 c 0,4,5
 976.209186582 -20 976.209186582 -20 779.969045476 -20 c 128,-1,6
 583.72890437 -20 583.72890437 -20 429.075099423 64.384765625 c 0,7,8
 280.776367188 148.770507812 280.776367188 148.770507812 202.416015625 303.435546875 c 128,-1,9
 124.055664062 458.100585938 124.055664062 458.100585938 122 660.021484375 c 1,10,11
 122 721.795898438 122 721.795898438 122 783.15625 c 2,12,13
 122 1110.38671875 122 1110.38671875 282.212890625 1293.19335938 c 0,14,15
 447.881952769 1476 447.881952769 1476 758.610529573 1476 c 0,16,17
 1013.01600203 1476 1013.01600203 1476 1165.22949219 1353.51074219 c 0,18,19
 1311.37597656 1231.02050781 1311.37597656 1231.02050781 1343.73925781 1007.609375 c 2,20,21
 1345.81152344 968.3046875 1345.81152344 968.3046875 1347.88378906 979 c 1,22,-1
 1106.23339844 979 l 1,23,24
 1104.32910156 964.193359375 1104.32910156 964.193359375 1102.42382812 999.38671875 c 2,25,26
 1072.27325634 1149.87597656 1072.27325634 1149.87597656 971.004214131 1215.359375 c 0,27,28
 889.597271344 1268 889.597271344 1268 759.683590131 1268 c 0,29,30
 566.161729383 1268 566.161729383 1268 467.449589284 1148.26367188 c 0,31,32
 365.966796875 1025.00683594 365.966796875 1025.00683594 364.999023438 787.237304688 c 2,33,34
 364.999023438 730.240234375 364.999023438 730.240234375 364.999023438 673.498046875 c 2,35,36
 364.999023438 447.5 364.999023438 447.5 479.367477684 315.836914062 c 0,37,38
 591.479251913 187 591.479251913 187 783.290922397 187 c 0,39,40
 895.271707789 187 895.271707789 187 978.475817427 208.470703125 c 0,41,42
 1053.03675961 227.711914062 1053.03675961 227.711914062 1102.99902344 271.188476562 c 1,43,-1
 1102.99902344 544 l 1,44,-1
 741.441560653 544 l 1,45,-1
 741.441560653 750 l 1,46,-1
 1343.99902344 750 l 1,47,-1
 1343.99902344 200.966796875 l 1,0,1
EndSplineSet
Substitution2: "Podtablica 'ss06' Styl 6 w tablicy 16" G.ss06
Substitution2: "Podtablica 'c2sc' Wersaliki na kapitaliki w tablicy 0" G.c2sc
Position2: "Podtablica 'cpsp' +AVoA-wiat+AUIA-o wersalikowe w tablicy 0" dx=36 dy=0 dh=72 dv=0
EndChar

StartChar: H
Encoding: 72 72 44
Width: 1560
GlyphClass: 2
Flags: W
LayerCount: 2
Fore
SplineSet
1388 1456 m 1,0,1
 1388 728 1388 728 1388 0 c 1,2,-1
 1145 0 l 1,3,-1
 1145 648 l 1,4,-1
 411 648 l 1,5,-1
 411 0 l 1,6,-1
 169 0 l 1,7,8
 169 728 169 728 169 1456 c 1,9,-1
 411 1456 l 1,10,-1
 411 855 l 1,11,-1
 1145 855 l 1,12,-1
 1145 1456 l 1,13,-1
 1388 1456 l 1,0,1
EndSplineSet
Substitution2: "Podtablica 'c2sc' Wersaliki na kapitaliki w tablicy 0" H.c2sc
Position2: "Podtablica 'cpsp' +AVoA-wiat+AUIA-o wersalikowe w tablicy 0" dx=36 dy=0 dh=72 dv=0
EndChar

StartChar: I
Encoding: 73 73 45
Width: 607
GlyphClass: 2
Flags: W
LayerCount: 2
Fore
SplineSet
425 1456 m 1,0,1
 425 728 425 728 425 0 c 1,2,-1
 183 0 l 1,3,4
 183 728 183 728 183 1456 c 1,5,-1
 425 1456 l 1,0,1
EndSplineSet
Substitution2: "Podtablica 'c2sc' Wersaliki na kapitaliki w tablicy 0" I.c2sc
Position2: "Podtablica 'cpsp' +AVoA-wiat+AUIA-o wersalikowe w tablicy 0" dx=36 dy=0 dh=72 dv=0
EndChar

StartChar: J
Encoding: 74 74 46
Width: 1230
GlyphClass: 2
Flags: W
LayerCount: 2
Fore
SplineSet
829 437.14453125 m 2,0,1
 829 941.831054688 829 941.831054688 829 1456 c 1,2,-1
 1072 1456 l 1,3,4
 1072 937.852539062 1072 937.852539062 1072 434.600585938 c 2,5,6
 1072 222 1072 222 938.950195312 101 c 0,7,8
 803.495383819 -20 803.495383819 -20 561.804264534 -20 c 0,9,10
 311.476467495 -20 311.476467495 -20 181.638671875 98 c 0,11,12
 53 216 53 216 53 427 c 2,13,14
 53 464.5 53 464.5 53 452 c 1,15,-1
 295 452 l 1,16,17
 295 464.5 295 464.5 295 427 c 2,18,19
 295 312.190429688 295 312.190429688 362.23986184 249.594726562 c 0,20,21
 429.871194611 187 429.871194611 187 561.804264534 187 c 0,22,23
 681.603934361 187 681.603934361 187 754.792500234 252.075195312 c 128,-1,24
 827.979987871 317.150390625 827.979987871 317.150390625 829 437.14453125 c 2,0,1
EndSplineSet
Substitution2: "Podtablica 'c2sc' Wersaliki na kapitaliki w tablicy 0" J.c2sc
Position2: "Podtablica 'cpsp' +AVoA-wiat+AUIA-o wersalikowe w tablicy 0" dx=36 dy=0 dh=72 dv=0
EndChar

StartChar: K
Encoding: 75 75 47
Width: 1384
GlyphClass: 2
Flags: W
LayerCount: 2
Fore
SplineSet
750.00522449 808.958984375 m 1,0,1
 1090.45754379 415.220703125 1090.45754379 415.220703125 1410.40234375 -0 c 1,2,3
 1264.01367188 25 1264.01367188 25 1117.625 -0 c 1,4,5
 845.451248654 356.829101562 845.451248654 356.829101562 573.277497308 663.657226562 c 1,6,7
 492.138748654 610.294921875 492.138748654 610.294921875 411 506.932617188 c 1,8,9
 411 278.466796875 411 278.466796875 411 0 c 1,10,-1
 169 0 l 1,11,12
 169 728 169 728 169 1456 c 1,13,-1
 411 1456 l 1,14,15
 411 1091.10839844 411 1091.10839844 411 776.216796875 c 1,16,17
 741.430704029 1091.10839844 741.430704029 1091.10839844 1071.86035156 1456 c 1,18,19
 1221.30957031 1431 1221.30957031 1431 1370.75878906 1456 c 1,20,21
 1072.55761719 1119.05078125 1072.55761719 1119.05078125 750.00522449 808.958984375 c 1,0,1
EndSplineSet
Substitution2: "Podtablica 'ss05' Styl 5 w tablicy 15" K.ss05
Substitution2: "Podtablica 'ss04' Styl 4 w tablicy 14" K.ss04
Substitution2: "Podtablica 'c2sc' Wersaliki na kapitaliki w tablicy 0" K.c2sc
Position2: "Podtablica 'cpsp' +AVoA-wiat+AUIA-o wersalikowe w tablicy 0" dx=36 dy=0 dh=72 dv=0
EndChar

StartChar: L
Encoding: 76 76 48
Width: 1202
GlyphClass: 2
Flags: W
LayerCount: 2
Fore
SplineSet
412 1456 m 1,0,1
 412 831.5 412 831.5 412 207 c 1,2,-1
 1152 207 l 1,3,4
 1152 128.5 1152 128.5 1152 0 c 1,5,-1
 169 0 l 1,6,7
 169 728 169 728 169 1456 c 1,8,-1
 412 1456 l 1,0,1
EndSplineSet
Substitution2: "Podtablica 'c2sc' Wersaliki na kapitaliki w tablicy 0" L.c2sc
Position2: "Podtablica 'cpsp' +AVoA-wiat+AUIA-o wersalikowe w tablicy 0" dx=36 dy=0 dh=72 dv=0
EndChar

StartChar: M
Encoding: 77 77 49
Width: 1938
GlyphClass: 2
Flags: W
LayerCount: 2
Fore
SplineSet
411 592.396484375 m 1,0,1
 411 321.198242188 411 321.198242188 411 0 c 1,2,-1
 169 0 l 1,3,4
 169 728 169 728 169 1456 c 1,5,-1
 458.919921875 1456 l 1,6,7
 700.959960938 858.114257812 700.959960938 858.114257812 968 310.228515625 c 1,8,9
 1185.04003906 858.114257812 1185.04003906 858.114257812 1427.08007812 1456 c 1,10,-1
 1718 1456 l 1,11,12
 1768 728 1768 728 1768 0 c 1,13,-1
 1526 0 l 1,14,15
 1526 321 1526 321 1526 592 c 2,16,17
 1526 592.374023438 1526 592.374023438 1489.921875 1065.72949219 c 1,18,19
 1299.71618629 557.865234375 1299.71618629 557.865234375 1057.84472656 0 c 1,20,21
 967.500976562 25 967.500976562 25 877.157226562 0 c 1,22,23
 635.870583738 556.064453125 635.870583738 556.064453125 396.344726562 1062.12988281 c 1,24,25
 403.672851562 852.262695312 403.672851562 852.262695312 411 592.396484375 c 1,0,1
EndSplineSet
Substitution2: "Podtablica 'c2sc' Wersaliki na kapitaliki w tablicy 0" M.c2sc
Position2: "Podtablica 'cpsp' +AVoA-wiat+AUIA-o wersalikowe w tablicy 0" dx=36 dy=0 dh=72 dv=0
EndChar

StartChar: N
Encoding: 78 78 50
Width: 1560
GlyphClass: 2
Flags: W
LayerCount: 2
Fore
SplineSet
1388 1456 m 1,0,1
 1388 728 1388 728 1388 0 c 1,2,3
 1272.23632812 25 1272.23632812 25 1156.47167969 -0 c 1,4,5
 784.987687541 556.512695312 784.987687541 556.512695312 412.822660389 1063.02539062 c 1,6,7
 412.822660389 556.512695312 412.822660389 556.512695312 412.822660389 0 c 1,8,-1
 169 0 l 1,9,10
 169 728 169 728 169 1456 c 1,11,-1
 400.541015625 1456 l 1,12,13
 773.770507812 897.047851562 773.770507812 897.047851562 1147 388.095703125 c 1,14,15
 1147 897.047851562 1147 897.047851562 1147 1456 c 1,16,-1
 1388 1456 l 1,0,1
EndSplineSet
Substitution2: "Podtablica 'c2sc' Wersaliki na kapitaliki w tablicy 0" N.c2sc
Position2: "Podtablica 'cpsp' +AVoA-wiat+AUIA-o wersalikowe w tablicy 0" dx=36 dy=0 dh=72 dv=0
EndChar

StartChar: O
Encoding: 79 79 51
Width: 1508
GlyphClass: 2
Flags: W
LayerCount: 2
Fore
SplineSet
1388.99902344 771.544921875 m 2,0,1
 1388.99902344 727.063476562 1388.99902344 727.063476562 1388.99902344 682.520507812 c 2,2,3
 1388.99902344 470.2265625 1388.99902344 470.2265625 1314.359375 310.227539062 c 128,-1,4
 1239.72070312 150.229492188 1239.72070312 150.229492188 1098.63807757 65.1142578125 c 0,5,6
 950.942398268 -20 950.942398268 -20 757.244104694 -20 c 128,-1,7
 563.545811121 -20 563.545811121 -20 414.898461544 65.5244140625 c 0,8,9
 272.454101562 151.08203125 272.454101562 151.08203125 196.252929688 308.083984375 c 128,-1,10
 120.052734375 465.086914062 120.052734375 465.086914062 118 669.701171875 c 1,11,12
 118 720.861328125 118 720.861328125 118 771.544921875 c 2,13,14
 118 979.98828125 118 979.98828125 193.639648438 1141.41699219 c 128,-1,15
 269.279296875 1302.84472656 269.279296875 1302.84472656 412.145713524 1389.45996094 c 0,16,17
 561.356552081 1476 561.356552081 1476 754.528922606 1476 c 128,-1,18
 947.701293132 1476 947.701293132 1476 1097.02482949 1390.40820312 c 0,19,20
 1239.734375 1304.81542969 1239.734375 1304.81542969 1314.36621094 1143.828125 c 128,-1,21
 1388.99902344 982.840820312 1388.99902344 982.840820312 1388.99902344 771.544921875 c 2,0,1
1147.99902344 669.828125 m 1,22,23
 1147.99902344 721.59375 1147.99902344 721.59375 1147.99902344 772.853515625 c 2,24,25
 1147.99902344 1012.30664062 1147.99902344 1012.30664062 1042.53648856 1138.25585938 c 0,26,27
 939.438875079 1261 939.438875079 1261 752.964718936 1261 c 0,28,29
 571.794663697 1261 571.794663697 1261 468.163822679 1138.21191406 c 0,30,31
 361.9296875 1012.18847656 361.9296875 1012.18847656 358.999023438 785.123046875 c 1,32,33
 358.999023438 733.772460938 358.999023438 733.772460938 358.999023438 683.057617188 c 2,34,35
 358.999023438 451.112304688 358.999023438 451.112304688 466.226046685 320.325195312 c 0,36,37
 570.933777755 193 570.933777755 193 755.731032432 193 c 128,-1,38
 940.52724361 193 940.52724361 193 1041.48672946 312.901367188 c 0,39,40
 1145.06738281 436.064453125 1145.06738281 436.064453125 1147.99902344 669.828125 c 1,22,23
EndSplineSet
Substitution2: "Podtablica 'ss06' Styl 6 w tablicy 16" O.ss06
Substitution2: "Podtablica 'c2sc' Wersaliki na kapitaliki w tablicy 0" O.c2sc
Position2: "Podtablica 'cpsp' +AVoA-wiat+AUIA-o wersalikowe w tablicy 0" dx=36 dy=0 dh=72 dv=0
EndChar

StartChar: P
Encoding: 80 80 52
Width: 1392
GlyphClass: 2
Flags: W
LayerCount: 2
Fore
SplineSet
729 545 m 2,0,-1
 411 545 l 1,1,-1
 411 0 l 1,2,-1
 169 0 l 1,3,4
 169 728 169 728 169 1456 c 1,5,-1
 731 1456 l 2,6,7
 1022.56278037 1456 1022.56278037 1456 1172.79492188 1330.50585938 c 0,8,9
 1316 1205.01269531 1316 1205.01269531 1316 998.553710938 c 0,10,11
 1316 781.08984375 1316 781.08984375 1175.64941406 663.044921875 c 0,12,13
 1029.25865874 545 1029.25865874 545 729 545 c 2,0,-1
743.584265419 1248 m 1,14,-1
 411 1248 l 1,15,-1
 411 752 l 1,16,-1
 731 752 l 2,17,18
 900.526216469 752 900.526216469 752 987.587525174 814.481445312 c 0,19,20
 1074 876.961914062 1074 876.961914062 1074 996.66796875 c 0,21,22
 1074 1110.22753906 1074 1110.22753906 987.194660603 1177.75195312 c 0,23,24
 899.740487328 1245.27636719 899.740487328 1245.27636719 743.584265419 1248 c 1,14,-1
EndSplineSet
Substitution2: "Podtablica 'c2sc' Wersaliki na kapitaliki w tablicy 0" P.c2sc
Position2: "Podtablica 'cpsp' +AVoA-wiat+AUIA-o wersalikowe w tablicy 0" dx=36 dy=0 dh=72 dv=0
EndChar

StartChar: Q
Encoding: 81 81 53
Width: 1508
GlyphClass: 2
Flags: W
LayerCount: 2
Fore
SplineSet
1380.99902344 771.376953125 m 2,0,1
 1380.99902344 725.15234375 1380.99902344 725.15234375 1380.99902344 681.239257812 c 2,2,3
 1380.99902344 471.637695312 1380.99902344 471.637695312 1311.89941406 319.200195312 c 0,4,5
 1249.63476562 181.840820312 1249.63476562 181.840820312 1141.12246048 97.44921875 c 1,6,7
 1270.71484375 20.7158203125 1270.71484375 20.7158203125 1399.51660156 -98.44921875 c 1,8,9
 1315.3671875 -151.173828125 1315.3671875 -151.173828125 1231.21875 -253.899414062 c 1,10,11
 1068.78098727 -104.022460938 1068.78098727 -104.022460938 901.172163137 -4.1455078125 c 1,12,13
 826.966992232 -20 826.966992232 -20 745.447667308 -20 c 0,14,15
 554.211865085 -20 554.211865085 -20 405.812982568 65.5244140625 c 0,16,17
 263.454101562 151.08203125 263.454101562 151.08203125 187.252929688 308.083984375 c 128,-1,18
 111.052734375 465.086914062 111.052734375 465.086914062 109 669.701171875 c 1,19,20
 109 720.861328125 109 720.861328125 109 771.544921875 c 2,21,22
 109 979.98828125 109 979.98828125 184.639648438 1141.41699219 c 128,-1,23
 260.279296875 1302.84472656 260.279296875 1302.84472656 403.064835822 1389.45996094 c 0,24,25
 552.026265436 1476 552.026265436 1476 745.427873984 1476 c 128,-1,26
 938.830524286 1476 938.830524286 1476 1087.87841947 1389.77734375 c 0,27,28
 1231.72265625 1303.5546875 1231.72265625 1303.5546875 1306.36035156 1143.29882812 c 128,-1,29
 1380.99902344 983.043945312 1380.99902344 983.043945312 1380.99902344 771.376953125 c 2,0,1
1138.01386689 669.828125 m 1,30,31
 1138.01386689 721.59375 1138.01386689 721.59375 1138.01386689 772.853515625 c 2,32,33
 1138.01386689 1010.53320312 1138.01386689 1010.53320312 1033.83535324 1137.50097656 c 0,34,35
 932.502911195 1261 932.502911195 1261 743.314155354 1261 c 0,36,37
 563.513685514 1261 563.513685514 1261 460.056065549 1138.21191406 c 0,38,39
 353.9296875 1012.18847656 353.9296875 1012.18847656 350.999023438 785.123046875 c 1,40,41
 350.999023438 733.772460938 350.999023438 733.772460938 350.999023438 683.057617188 c 2,42,43
 350.999023438 451.986328125 350.999023438 451.986328125 457.152697475 320.68359375 c 0,44,45
 560.624901994 193 560.624901994 193 745.594554606 193 c 128,-1,46
 930.563165463 193 930.563165463 193 1031.35389549 312.901367188 c 0,47,48
 1134.88652173 436.064453125 1134.88652173 436.064453125 1138.01386689 669.828125 c 1,30,31
EndSplineSet
Substitution2: "Podtablica 'ss06' Styl 6 w tablicy 16" Q.ss06
Substitution2: "Podtablica 'c2sc' Wersaliki na kapitaliki w tablicy 0" Q.c2sc
Position2: "Podtablica 'cpsp' +AVoA-wiat+AUIA-o wersalikowe w tablicy 0" dx=36 dy=0 dh=72 dv=0
EndChar

StartChar: R
Encoding: 82 82 54
Width: 1361
GlyphClass: 2
Flags: W
LayerCount: 2
Fore
SplineSet
1325 42.8349609375 m 1,0,1
 1325 63.3740234375 1325 63.3740234375 1325 36.5947265625 c 1,2,3
 1325 54.7578125 1325 54.7578125 1325 25 c 1,4,5
 1325 37.5 1325 37.5 1325 0 c 1,6,7
 1202.02050781 25 1202.02050781 25 1079.04003906 -0 c 1,8,-1
 737.475352309 564 l 1,9,-1
 411 564 l 1,10,-1
 411 0 l 1,11,-1
 168 0 l 1,12,13
 168 728 168 728 168 1456 c 1,14,-1
 696.357839567 1456 l 2,15,16
 972.142739358 1456 972.142739358 1456 1120.57226562 1341.30566406 c 0,17,18
 1261 1226.61230469 1261 1226.61230469 1261 1008.63085938 c 0,19,20
 1261 869.368164062 1261 869.368164062 1182.7265625 765.440429688 c 0,21,22
 1112.58105469 672.303710938 1112.58105469 672.303710938 986.5512329 621.68359375 c 1,23,24
 1159.23632812 346.041992188 1159.23632812 346.041992188 1325 42.8349609375 c 1,0,1
934.366097097 1206.94433594 m 128,-1,26
 855.669333177 1272.0625 855.669333177 1272.0625 701.580786529 1273.00097656 c 2,27,-1
 411 1273 l 1,28,-1
 411 771 l 1,29,-1
 702.843245011 771 l 2,30,31
 847.259628558 771 847.259628558 771 930.160717003 838.166015625 c 128,-1,32
 1013.06180545 905.33203125 1013.06180545 905.33203125 1013.06180545 1018 c 0,33,25
 1013.06180545 1141.82617188 1013.06180545 1141.82617188 934.366097097 1206.94433594 c 128,-1,26
EndSplineSet
Substitution2: "Podtablica 'ss03' Styl 3 w tablicy 13" R.ss03
Substitution2: "Podtablica 'c2sc' Wersaliki na kapitaliki w tablicy 0" R.c2sc
Position2: "Podtablica 'cpsp' +AVoA-wiat+AUIA-o wersalikowe w tablicy 0" dx=36 dy=0 dh=72 dv=0
EndChar

StartChar: S
Encoding: 83 83 55
Width: 1315
GlyphClass: 2
Flags: W
LayerCount: 2
Fore
SplineSet
246.583007812 806.0859375 m 0,0,1
 126 912.87890625 126 912.87890625 126 1069.7578125 c 0,2,3
 126 1246.73535156 126 1246.73535156 271.541015625 1361.3671875 c 0,4,5
 424.488762308 1476 424.488762308 1476 671.973267584 1476 c 0,6,7
 840.452600348 1476 840.452600348 1476 973.71365023 1415.15429688 c 0,8,9
 1098.3671875 1354.30957031 1098.3671875 1354.30957031 1166.64550781 1246.33496094 c 128,-1,10
 1235 1138.23925781 1235 1138.23925781 1235 1010 c 2,11,12
 1235 972.5 1235 972.5 1235 985 c 1,13,-1
 991.980534648 985 l 1,14,15
 991.980534648 972.5 991.980534648 972.5 991.980534648 1010 c 2,16,17
 991.980534648 1130.86230469 991.980534648 1130.86230469 909.505055289 1199.43164062 c 128,-1,18
 827.028520162 1268 827.028520162 1268 671.973267584 1268 c 0,19,20
 527.801919263 1268 527.801919263 1268 449.192659459 1212.97265625 c 0,21,22
 373.588113159 1160.04882812 373.588113159 1160.04882812 373.588113159 1064.88476562 c 0,23,24
 373.588113159 990.642578125 373.588113159 990.642578125 445.235643923 938.67578125 c 0,25,26
 522.503023593 882.633789062 522.503023593 882.633789062 717.767170696 833.778320312 c 128,-1,27
 913.030262032 784.923828125 913.030262032 784.923828125 1025.58203125 723.348632812 c 0,28,29
 1132.19042969 661.7734375 1132.19042969 661.7734375 1185.09570312 577.409179688 c 128,-1,30
 1238 493.043945312 1238 493.043945312 1238 379.4921875 c 0,31,32
 1238 197.284179688 1238 197.284179688 1090.25390625 87.5234375 c 0,33,34
 941.730238106 -20 941.730238106 -20 682.784323903 -20 c 0,35,36
 514.899388083 -20 514.899388083 -20 368.330392409 39.96484375 c 0,37,38
 229.564453125 99.9296875 229.564453125 99.9296875 154.782226562 206.00390625 c 128,-1,39
 80 312.077148438 80 312.077148438 80 447 c 2,40,41
 80 484.5 80 484.5 80 472 c 1,42,-1
 323 472 l 1,43,44
 323 484.5 323 484.5 323 447 c 2,45,46
 323 327.157226562 323 327.157226562 417.819480787 258.178710938 c 0,47,48
 515.894976571 187 515.894976571 187 682.784323903 187 c 0,49,50
 837.962045479 187 837.962045479 187 918.275313575 241.740234375 c 0,51,52
 995 294.185546875 995 294.185546875 995 385.307617188 c 128,-1,53
 995 476.56640625 995 476.56640625 924.566630431 525.641601562 c 0,54,55
 847.590642514 579.103515625 847.590642514 579.103515625 639.636173441 632.681640625 c 0,56,57
 366.493357449 702.59375 366.493357449 702.59375 246.583007812 806.0859375 c 0,0,1
EndSplineSet
Substitution2: "Podtablica 'c2sc' Wersaliki na kapitaliki w tablicy 0" S.c2sc
Position2: "Podtablica 'cpsp' +AVoA-wiat+AUIA-o wersalikowe w tablicy 0" dx=36 dy=0 dh=72 dv=0
EndChar

StartChar: T
Encoding: 84 84 56
Width: 1322
GlyphClass: 2
Flags: W
LayerCount: 2
Fore
SplineSet
566 0 m 1,0,1
 566 624 566 624 532.161173446 1248 c 1,2,-1
 49 1248 l 1,3,4
 49 1327 49 1327 49 1456 c 1,5,-1
 1275 1456 l 1,6,7
 1275 1327 1275 1327 1275 1248 c 1,8,-1
 790.765778401 1248 l 1,9,10
 807 624 807 624 807 0 c 1,11,-1
 566 0 l 1,0,1
EndSplineSet
Substitution2: "Podtablica 'c2sc' Wersaliki na kapitaliki w tablicy 0" T.c2sc
Position2: "Podtablica 'cpsp' +AVoA-wiat+AUIA-o wersalikowe w tablicy 0" dx=36 dy=0 dh=72 dv=0
EndChar

StartChar: U
Encoding: 85 85 57
Width: 1428
GlyphClass: 2
Flags: W
LayerCount: 2
Fore
SplineSet
140 472.104492188 m 1,0,1
 140 955.990234375 140 955.990234375 140 1456 c 1,2,-1
 379.999023438 1456 l 1,3,4
 379.999023438 964.045898438 379.999023438 964.045898438 379.999023438 483.32421875 c 2,5,6
 379.999023438 341.229492188 379.999023438 341.229492188 466.143738678 264.0859375 c 128,-1,7
 552.223032093 187 552.223032093 187 716.039281086 187 c 128,-1,8
 879.85553008 187 879.85553008 187 965.394565846 263.604492188 c 128,-1,9
 1050.99902344 340.267578125 1050.99902344 340.267578125 1050.99902344 482.362304688 c 2,10,11
 1050.99902344 963.583007812 1050.99902344 963.583007812 1050.99902344 1456 c 1,12,-1
 1293.99902344 1456 l 1,13,14
 1293.99902344 957.017578125 1293.99902344 957.017578125 1293.99902344 474.181640625 c 1,15,16
 1292.95019531 265.138671875 1292.95019531 265.138671875 1157.58691406 131.669921875 c 0,17,18
 1019.90677366 -1.798828125 1019.90677366 -1.798828125 771.595072527 -17.9638671875 c 1,19,20
 743.545992791 6.017578125 743.545992791 6.017578125 715.496913056 -20 c 1,21,22
 446.285049316 -20 446.285049316 -20 291.721679688 111.47265625 c 0,23,24
 142.096679688 242.9453125 142.096679688 242.9453125 140 472.104492188 c 1,0,1
EndSplineSet
Substitution2: "Podtablica 'c2sc' Wersaliki na kapitaliki w tablicy 0" U.c2sc
Position2: "Podtablica 'cpsp' +AVoA-wiat+AUIA-o wersalikowe w tablicy 0" dx=36 dy=0 dh=72 dv=0
EndChar

StartChar: V
Encoding: 86 86 58
Width: 1403
GlyphClass: 2
Flags: W
LayerCount: 2
Fore
SplineSet
711.914370781 306.561523438 m 1,0,1
 923.514802578 856.280273438 923.514802578 856.280273438 1135.11523438 1456 c 1,2,3
 1266.98632812 1431 1266.98632812 1431 1398.85839844 1456 c 1,4,5
 1118.60951214 728 1118.60951214 728 821.758753325 0 c 1,6,7
 712.910880016 25 712.910880016 25 604.063006707 0 c 1,8,9
 307.762404031 728 307.762404031 728 28 1456 c 1,10,-1
 290.748046875 1456 l 1,11,12
 501.331208828 856.280273438 501.331208828 856.280273438 711.914370781 306.561523438 c 1,0,1
EndSplineSet
Substitution2: "Podtablica 'c2sc' Wersaliki na kapitaliki w tablicy 0" V.c2sc
Position2: "Podtablica 'cpsp' +AVoA-wiat+AUIA-o wersalikowe w tablicy 0" dx=36 dy=0 dh=72 dv=0
EndChar

StartChar: W
Encoding: 87 87 59
Width: 1967
GlyphClass: 2
Flags: W
LayerCount: 2
Fore
SplineSet
1003.75 1075.5078125 m 1,0,1
 808.84904429 562.75390625 808.84904429 562.75390625 638.498046875 0 c 1,2,3
 531.79296875 25 531.79296875 25 425.087890625 0 c 1,4,5
 243.043945312 728 243.043945312 728 61 1456 c 1,6,-1
 304.663085938 1456 l 1,7,8
 432.713696981 922.321289062 432.713696981 922.321289062 539.359375 438.641601562 c 1,9,10
 543.990234375 381.883789062 543.990234375 381.883789062 548.622070312 375.125976562 c 1,11,12
 554.03125 372.952148438 554.03125 372.952148438 559.44140625 420.778320312 c 1,13,14
 559.577148438 396.30078125 559.577148438 396.30078125 559.712890625 421.823242188 c 1,15,16
 742.920255729 913.911132812 742.920255729 913.911132812 902.865234375 1456 c 1,17,18
 1002.83203125 1431 1002.83203125 1431 1102.79785156 1456 c 1,19,20
 1259.18471688 913.55859375 1259.18471688 913.55859375 1389.02050781 421.116210938 c 1,21,22
 1394.69238281 371.16015625 1394.69238281 371.16015625 1400.36425781 371.203125 c 1,23,24
 1405.78515625 380.473632812 1405.78515625 380.473632812 1411.20507812 439.744140625 c 1,25,26
 1565.80845022 922.872070312 1565.80845022 922.872070312 1691.80175781 1456 c 1,27,28
 1814.18066406 1431 1814.18066406 1431 1936.55859375 1456 c 1,29,30
 1703.99804688 728 1703.99804688 728 1521.43652344 0 c 1,31,32
 1414.64453125 25 1414.64453125 25 1307.85253906 0 c 1,33,34
 1143.52681808 562.75390625 1143.52681808 562.75390625 1003.75 1075.5078125 c 1,0,1
EndSplineSet
Substitution2: "Podtablica 'c2sc' Wersaliki na kapitaliki w tablicy 0" W.c2sc
Position2: "Podtablica 'cpsp' +AVoA-wiat+AUIA-o wersalikowe w tablicy 0" dx=36 dy=0 dh=72 dv=0
EndChar

StartChar: X
Encoding: 88 88 60
Width: 1384
GlyphClass: 2
Flags: W
LayerCount: 2
Fore
SplineSet
559.423202481 733.846679688 m 1,0,1
 306.640625 1082.74121094 306.640625 1082.74121094 68.1748046875 1456 c 1,2,-1
 352.60546875 1456 l 1,3,4
 533.707642301 1163.0234375 533.707642301 1163.0234375 714.808766666 920.047851562 c 1,5,6
 894.878540739 1163.0234375 894.878540739 1163.0234375 1074.94726562 1456 c 1,7,8
 1217.65722656 1431 1217.65722656 1431 1360.3671875 1456 c 1,9,10
 1122.41894531 1082.74121094 1122.41894531 1082.74121094 870.304495429 733.84765625 c 1,11,12
 1128.00683594 378.911132812 1128.00683594 378.911132812 1371.54296875 0 c 1,13,14
 1227.7734375 25 1227.7734375 25 1084.00488281 0 c 1,15,16
 899.4068993 298.104492188 899.4068993 298.104492188 714.808915788 546.208984375 c 1,17,18
 529.179360238 298.104492188 529.179360238 298.104492188 343.549804688 0 c 1,19,20
 200.275390625 25 200.275390625 25 57 0 c 1,21,22
 301.053710938 378.911132812 301.053710938 378.911132812 559.423202481 733.846679688 c 1,0,1
EndSplineSet
Substitution2: "Podtablica 'c2sc' Wersaliki na kapitaliki w tablicy 0" X.c2sc
Position2: "Podtablica 'cpsp' +AVoA-wiat+AUIA-o wersalikowe w tablicy 0" dx=36 dy=0 dh=72 dv=0
EndChar

StartChar: Y
Encoding: 89 89 61
Width: 1330
GlyphClass: 2
Flags: W
LayerCount: 2
Fore
SplineSet
550.892359165 542.93359375 m 1,0,1
 274.638671875 990.454101562 274.638671875 990.454101562 15 1456 c 1,2,3
 153.748046875 1431 153.748046875 1431 292.49609375 1456 c 1,4,5
 486.383048526 1080.15917969 486.383048526 1080.15917969 680.270003301 754.318359375 c 1,6,7
 875.181843096 1080.15917969 875.181843096 1080.15917969 1070.09472656 1456 c 1,8,9
 1207.82421875 1431 1207.82421875 1431 1345.55371094 1456 c 1,10,11
 1085.91503906 990.454101562 1085.91503906 990.454101562 809.522406906 542.93359375 c 1,12,13
 809.522406906 286.624023438 809.522406906 286.624023438 809.522406906 0 c 1,14,-1
 550.892359165 0 l 1,15,16
 550.892359165 286.624023438 550.892359165 286.624023438 550.892359165 542.93359375 c 1,0,1
EndSplineSet
Substitution2: "Podtablica 'c2sc' Wersaliki na kapitaliki w tablicy 0" Y.c2sc
Position2: "Podtablica 'cpsp' +AVoA-wiat+AUIA-o wersalikowe w tablicy 0" dx=36 dy=0 dh=72 dv=0
EndChar

StartChar: Z
Encoding: 90 90 62
Width: 1326
GlyphClass: 2
Flags: W
LayerCount: 2
Fore
SplineSet
904.130690867 1248 m 1,0,-1
 99 1248 l 1,1,2
 99 1327 99 1327 99 1456 c 1,3,-1
 1214 1456 l 1,4,5
 1214 1351.62304688 1214 1351.62304688 1214 1288.88964844 c 1,6,7
 810.664128185 751.161132812 810.664128185 751.161132812 390.048235695 207 c 1,8,-1
 1246 207 l 1,9,10
 1246 128.5 1246 128.5 1246 0 c 1,11,-1
 86 0 l 1,12,13
 86 105.756835938 86 105.756835938 86 169.98828125 c 1,14,15
 485.131841369 705.719726562 485.131841369 705.719726562 904.130690867 1248 c 1,0,-1
EndSplineSet
Substitution2: "Podtablica 'c2sc' Wersaliki na kapitaliki w tablicy 0" Z.c2sc
Position2: "Podtablica 'cpsp' +AVoA-wiat+AUIA-o wersalikowe w tablicy 0" dx=36 dy=0 dh=72 dv=0
EndChar

StartChar: bracketleft
Encoding: 91 91 63
Width: 543
GlyphClass: 1
Flags: W
LayerCount: 2
Fore
SplineSet
357 -135 m 1
 548 -135 l 1
 548 -337 l 1
 121 -337 l 1
 121 1689 l 1
 548 1689 l 1
 548 1487 l 1
 357 1487 l 1
 357 -135 l 1
EndSplineSet
EndChar

StartChar: backslash
Encoding: 92 92 64
Width: 840
GlyphClass: 1
Flags: W
LayerCount: 2
Fore
SplineSet
3.59625931924 1481 m 1
 233.175404185 1481 l 1
 860.403740681 -150 l 1
 630.824595815 -150 l 1
 3.59625931924 1481 l 1
EndSplineSet
EndChar

StartChar: bracketright
Encoding: 93 93 65
Width: 543
GlyphClass: 1
Flags: W
LayerCount: 2
Fore
SplineSet
-16 1689 m 1
 412 1689 l 1
 412 -337 l 1
 -16 -337 l 1
 -16 -135 l 1
 177 -135 l 1
 177 1487 l 1
 -16 1487 l 1
 -16 1689 l 1
EndSplineSet
EndChar

StartChar: asciicircum
Encoding: 94 94 66
Width: 856
GlyphClass: 1
Flags: W
LayerCount: 2
Fore
SplineSet
253.021975342 704 m 1
 26.6819357535 704 l 1
 346.245897239 1481 l 1
 506.775451306 1481 l 1
 825.270637 704 l 1
 600.010856297 704 l 1
 426.061049834 1142.97281003 l 1
 253.021975342 704 l 1
EndSplineSet
EndChar

StartChar: underscore
Encoding: 95 95 67
Width: 924
GlyphClass: 1
Flags: W
LayerCount: 2
Fore
SplineSet
945 -176 m 1
 -21 -176 l 1
 -21 25 l 1
 945 25 l 1
 945 -176 l 1
EndSplineSet
EndChar

StartChar: grave
Encoding: 96 96 68
Width: 633
GlyphClass: 1
Flags: W
LayerCount: 2
Fore
SplineSet
520.447108459 1217 m 1
 303.683527208 1217 l 1
 1.80597618799 1561 l 1
 293.45391118 1561 l 1
 520.447108459 1217 l 1
EndSplineSet
EndChar

StartChar: a
Encoding: 97 97 69
Width: 1214
GlyphClass: 2
Flags: W
LayerCount: 2
Fore
SplineSet
653.817489147 681 m 2,0,-1
 825.983255072 681 l 1,1,-1
 825.983255072 734.926757812 l 2,2,3
 825.983255072 812.750976562 825.983255072 812.750976562 769.783151126 857.834960938 c 128,-1,4
 713.481084087 903 713.481084087 903 599.390892177 903 c 0,5,6
 498.640509927 903 498.640509927 903 431.591099083 857.952148438 c 0,7,8
 368.355541774 815.466796875 368.355541774 815.466796875 368.355541774 757 c 2,9,10
 368.355541774 719.5 368.355541774 719.5 368.355541774 732 c 1,11,-1
 131 732 l 1,12,13
 131 719.5 131 719.5 131 757 c 2,14,15
 131 846.430664062 131 846.430664062 192.994140625 927.831054688 c 128,-1,16
 254.987304688 1009.23144531 254.987304688 1009.23144531 359.275402998 1055.61621094 c 0,17,18
 474.611931003 1102 474.611931003 1102 611.609107823 1102 c 0,19,20
 829.807955744 1102 829.807955744 1102 946.084960938 1006.20703125 c 0,21,22
 1059.7265625 910.4140625 1059.7265625 910.4140625 1063.9921875 743.2734375 c 2,23,24
 1063.99609375 735.157226562 1063.99609375 735.157226562 1064 742.977539062 c 1,25,26
 1064 507.477539062 1064 507.477539062 1064 266.775390625 c 2,27,28
 1064 129.333007812 1064 129.333007812 1099.96386719 49.744140625 c 2,29,30
 1100.98144531 70.3828125 1100.98144531 70.3828125 1102 45.236328125 c 1,31,32
 1102 65.8662109375 1102 65.8662109375 1102 40.2900390625 c 1,33,34
 1102 56.1962890625 1102 56.1962890625 1102 25 c 1,35,36
 1102 37.5 1102 37.5 1102 0 c 1,37,-1
 867.546875 0 l 1,38,39
 864.0859375 31.921875 864.0859375 31.921875 860.625 13.84375 c 2,40,41
 846.747930331 39.705078125 846.747930331 39.705078125 837.318513728 87.755859375 c 1,42,43
 698.195297964 -20 698.195297964 -20 512.477118484 -20 c 0,44,45
 329.549804688 -20 329.549804688 -20 219.274414062 74.01171875 c 128,-1,46
 109 168.0234375 109 168.0234375 109 313.120117188 c 0,47,48
 109 488.5859375 109 488.5859375 247.813476562 586.112304688 c 0,49,50
 385.985394304 681 385.985394304 681 653.817489147 681 c 2,0,-1
362.308262634 407.436523438 m 0,51,52
 344 378.443359375 344 378.443359375 344 339.024414062 c 0,53,54
 344 269.268554688 344 269.268554688 398.423806841 230.134765625 c 0,55,56
 454.039250078 191 454.039250078 191 544.100863064 191 c 128,-1,57
 634.162476051 191 634.162476051 191 712.39637034 228.592773438 c 128,-1,58
 790.629179916 266.185546875 790.629179916 266.185546875 825.983255072 323.216796875 c 1,59,-1
 825.983255072 500 l 1,60,-1
 692.69362984 500 l 2,61,62
 424.562154003 500 424.562154003 500 362.308262634 407.436523438 c 0,51,52
EndSplineSet
Substitution2: "Podtablica 'smcp' Tekstowe na kapitaliki w tablicy 1" A.c2sc
EndChar

StartChar: b
Encoding: 98 98 70
Width: 1249
GlyphClass: 2
Flags: W
LayerCount: 2
Fore
SplineSet
1156 544.829101562 m 2,0,1
 1156 537.333984375 1156 537.333984375 1156 529.51171875 c 2,2,3
 1156 284.055664062 1156 284.055664062 1036.93945312 133.581054688 c 0,4,5
 915.421875 -20 915.421875 -20 690.004383746 -20 c 0,6,7
 488.736976532 -20 488.736976532 -20 364.711914062 89.53515625 c 1,8,9
 361.489257812 69.767578125 361.489257812 69.767578125 358.265625 0 c 1,10,-1
 140 0 l 1,11,12
 140 768 140 768 140 1536 c 1,13,-1
 375 1536 l 1,14,15
 375 1243.41503906 375 1243.41503906 375 1000.82910156 c 1,16,17
 497.846634078 1102 497.846634078 1102 687.793626707 1102 c 0,18,19
 918.446289062 1102 918.446289062 1102 1038.46289062 949.825195312 c 0,20,21
 1156 800.794921875 1156 800.794921875 1156 544.829101562 c 2,0,1
845.513006344 273.458007812 m 0,22,23
 921 363.575195312 921 363.575195312 921 549.40625 c 0,24,25
 921 718.5078125 921 718.5078125 846.514755627 808.665039062 c 0,26,27
 774.100588407 895 774.100588407 895 636.946214804 895 c 0,28,29
 554.14969348 895 554.14969348 895 492.927483772 866.515625 c 0,30,31
 418.694407562 831.978515625 418.694407562 831.978515625 375 754.256835938 c 1,32,33
 375 541.13671875 375 541.13671875 375 328.03515625 c 1,34,35
 421.547449972 250.140625 421.547449972 250.140625 496.297592891 215.502929688 c 0,36,37
 557.809100884 187 557.809100884 187 639.156971843 187 c 0,38,39
 772.003175845 187 772.003175845 187 845.513006344 273.458007812 c 0,22,23
EndSplineSet
Substitution2: "Podtablica 'ss06' Styl 6 w tablicy 16" b.ss06
Substitution2: "Podtablica 'smcp' Tekstowe na kapitaliki w tablicy 1" B.c2sc
EndChar

StartChar: c
Encoding: 99 99 71
Width: 1172
GlyphClass: 2
Flags: W
LayerCount: 2
Fore
SplineSet
405.370396417 266.2109375 m 0,0,1
 482.213254669 181 482.213254669 181 626.681889143 181 c 0,2,3
 726.378445048 181 726.378445048 181 799.863451409 234.874023438 c 0,4,5
 872.033203125 288.748046875 872.033203125 288.748046875 879.098632812 368.23828125 c 2,6,7
 880.110351562 404.619140625 880.110351562 404.619140625 881.122070312 391 c 1,8,-1
 1105.38085938 391 l 1,9,10
 1104.671875 402.819335938 1104.671875 402.819335938 1103.96386719 364.638671875 c 2,11,12
 1098.58007812 264.502929688 1098.58007812 264.502929688 1035.72363281 175.013671875 c 128,-1,13
 972.868164062 85.5234375 972.868164062 85.5234375 868.791015625 32.6923828125 c 1,14,15
 686.616683276 -20.16796875 686.616683276 -20.16796875 632.392073429 -20.16796875 c 0,16,17
 629.331233204 -20.16796875 629.331233204 -20.16796875 626.681889143 -20 c 0,18,19
 369.81539988 -20 369.81539988 -20 229.372070312 128.643554688 c 0,20,21
 92 277.287109375 92 277.287109375 92 531.426757812 c 2,22,23
 92 546.041015625 92 546.041015625 92 561.104492188 c 2,24,25
 92 717.729492188 92 717.729492188 152.75390625 841.07421875 c 128,-1,26
 213.508789062 964.418945312 213.508789062 964.418945312 328.25 1033.26269531 c 0,27,28
 453.946384396 1102 453.946384396 1102 625.575925702 1102 c 0,29,30
 837.502929822 1102 837.502929822 1102 967.559570312 986.2734375 c 0,31,32
 1095.49609375 870.545898438 1095.49609375 870.545898438 1103.97363281 686.165039062 c 2,33,34
 1104.57519531 648.083007812 1104.57519531 648.083007812 1105.17578125 660 c 1,35,-1
 880.831054688 660 l 1,36,37
 879.952148438 646.5390625 879.952148438 646.5390625 879.073242188 683.078125 c 2,38,39
 871.8046875 778.467773438 871.8046875 778.467773438 801.806447727 839.321289062 c 0,40,41
 730.720215585 900 730.720215585 900 625.575925702 900 c 0,42,43
 483.306257601 900 483.306257601 900 405.910417628 814.307617188 c 0,44,45
 327 725.674804688 327 725.674804688 327 554.057617188 c 2,46,47
 327 537.876953125 327 537.876953125 327 521.333007812 c 2,48,49
 327 354.380859375 327 354.380859375 405.370396417 266.2109375 c 0,0,1
EndSplineSet
Substitution2: "Podtablica 'ss06' Styl 6 w tablicy 16" c.ss06
Substitution2: "Podtablica 'smcp' Tekstowe na kapitaliki w tablicy 1" C.c2sc
EndChar

StartChar: d
Encoding: 100 100 72
Width: 1255
GlyphClass: 2
Flags: W
LayerCount: 2
Fore
SplineSet
218.266601562 947.717773438 m 0,0,1
 344.109211535 1102 344.109211535 1102 568.871553406 1102 c 0,2,3
 752.132213489 1102 752.132213489 1102 873 1007.43554688 c 1,4,5
 873 1246.71777344 873 1246.71777344 873 1536 c 1,6,-1
 1108 1536 l 1,7,8
 1108 768 1108 768 1108 0 c 1,9,10
 998.931640625 25 998.931640625 25 889.86328125 -0 c 1,11,12
 886.649414062 66.4287109375 886.649414062 66.4287109375 883.434570312 82.8583984375 c 1,13,14
 761.324085857 -20 761.324085857 -20 566.659455332 -20 c 0,15,16
 345.113728727 -20 345.113728727 -20 218.67578125 136.787109375 c 0,17,18
 95 291.134765625 95 291.134765625 95 536.212890625 c 2,19,20
 95 542.833007812 95 542.833007812 95 549.616210938 c 2,21,22
 95 796.208984375 95 796.208984375 218.266601562 947.717773438 c 0,0,1
407.681108143 806.606445312 m 0,23,24
 330 714.643554688 330 714.643554688 330 529.791992188 c 0,25,26
 330 365.546875 330 365.546875 407.606579448 274.545898438 c 0,27,28
 483.364457732 187 483.364457732 187 617.537711038 187 c 0,29,30
 697.23480889 187 697.23480889 187 756.993860672 213.490234375 c 0,31,32
 829.01774333 245.416992188 829.01774333 245.416992188 873 316.961914062 c 1,33,34
 873 543.043945312 873 543.043945312 873 769.415039062 c 1,35,36
 828.016466516 838.459960938 828.016466516 838.459960938 756.805918746 869.334960938 c 0,37,38
 697.612852994 895 697.612852994 895 619.749809112 895 c 0,39,40
 483.44330693 895 483.44330693 895 407.681108143 806.606445312 c 0,23,24
EndSplineSet
Substitution2: "Podtablica 'ss06' Styl 6 w tablicy 16" d.ss06
Substitution2: "Podtablica 'smcp' Tekstowe na kapitaliki w tablicy 1" D.c2sc
EndChar

StartChar: e
Encoding: 101 101 73
Width: 1185
GlyphClass: 2
Flags: W
LayerCount: 2
Fore
SplineSet
1092.96972656 200.390625 m 2,0,1
 949.557617188 -20 949.557617188 -20 642.882639355 -20 c 0,2,3
 387.987669997 -20 387.987669997 -20 238.15625 125.508789062 c 0,4,5
 93 271.018554688 93 271.018554688 93 512.280273438 c 2,6,7
 93 529.0859375 93 529.0859375 93 544.829101562 c 2,8,9
 93 704.475585938 93 704.475585938 157.280273438 831.052734375 c 128,-1,10
 221.559570312 957.630859375 221.559570312 957.630859375 338.08984375 1029.81542969 c 0,11,12
 466.776958437 1102 466.776958437 1102 617.469106783 1102 c 0,13,14
 863.459844196 1102 863.459844196 1102 987.314453125 960.58984375 c 128,-1,15
 1111 819.1796875 1111 819.1796875 1111 561.159179688 c 2,16,-1
 1111 463 l 1,17,-1
 329.231445312 463 l 1,18,19
 338.883830545 340.9140625 338.883830545 340.9140625 423.005730992 263.948242188 c 0,20,21
 513.667688374 181 513.667688374 181 653.932001343 181 c 0,22,23
 754.693766167 181 754.693766167 181 824.295035337 218.053710938 c 0,24,25
 891.174804688 255.107421875 891.174804688 255.107421875 939.20703125 317.266601562 c 2,26,27
 946.884765625 352.202148438 946.884765625 352.202148438 954.5625 337.137695312 c 1,28,29
 1030.01953125 303.375 1030.01953125 303.375 1105.4765625 219.611328125 c 1,30,31
 1099.22363281 235.000976562 1099.22363281 235.000976562 1092.96972656 200.390625 c 2,0,1
337.904296875 665 m 1,32,-1
 875.203125 665 l 1,33,34
 865.564453125 776.5078125 865.564453125 776.5078125 799.367070431 838.25390625 c 128,-1,35
 733.136719898 900 733.136719898 900 619.428642073 900 c 128,-1,36
 505.719485209 900 505.719485209 900 429.945032452 833.529296875 c 0,37,38
 360.140903901 772.297851562 360.140903901 772.297851562 337.904296875 665 c 1,32,-1
EndSplineSet
Substitution2: "Podtablica 'ss07' Styl 7 w tablicy 17" e.ss07
Substitution2: "Podtablica 'smcp' Tekstowe na kapitaliki w tablicy 1" E.c2sc
EndChar

StartChar: f
Encoding: 102 102 74
Width: 811
GlyphClass: 2
Flags: W
LayerCount: 2
Fore
SplineSet
747 889 m 1,0,-1
 503.476103199 889 l 1,1,2
 466 444.5 466 444.5 466 0 c 1,3,-1
 231 0 l 1,4,5
 231 444.5 231 444.5 231 889 c 1,6,-1
 60 889 l 1,7,8
 60 960.5 60 960.5 60 1082 c 1,9,-1
 231 1082 l 1,10,11
 231 1100 231 1100 231 1168 c 2,12,13
 231 1352.19335938 231 1352.19335938 337.209059575 1454.59667969 c 0,14,15
 460.90139669 1557 460.90139669 1557 662 1557 c 0,16,17
 729.33203125 1557 729.33203125 1557 795.520507812 1539.13964844 c 2,18,19
 805.415039062 1511.46972656 805.415039062 1511.46972656 815.309570312 1533.79980469 c 1,20,21
 808.6875 1409.46289062 808.6875 1409.46289062 802.064453125 1335.125 c 1,22,23
 788.170898438 1312.78613281 788.170898438 1312.78613281 774.27734375 1340.44628906 c 2,24,25
 729.607421875 1349 729.607421875 1349 679 1349 c 0,26,27
 599.857421875 1349 599.857421875 1349 555.210884395 1304.07617188 c 0,28,29
 503.476103199 1259.15332031 503.476103199 1259.15332031 503.476103199 1171 c 2,30,31
 503.476103199 1101.5 503.476103199 1101.5 503.476103199 1082 c 1,32,-1
 747 1082 l 1,33,34
 747 960.5 747 960.5 747 889 c 1,0,-1
EndSplineSet
Substitution2: "Podtablica 'smcp' Tekstowe na kapitaliki w tablicy 1" F.c2sc
EndChar

StartChar: g
Encoding: 103 103 75
Width: 1249
GlyphClass: 2
Flags: W
LayerCount: 2
Fore
SplineSet
218.661132812 135.84765625 m 0,0,1
 96 288.75390625 96 288.75390625 96 549.616210938 c 0,2,3
 96 800.069335938 96 800.069335938 218.301757812 949.676757812 c 0,4,5
 342.93041894 1102 342.93041894 1102 568.58103869 1102 c 0,6,7
 762.033753015 1102 762.033753015 1102 885.739912146 996.358398438 c 1,8,9
 889.271274534 1014.1796875 889.271274534 1014.1796875 892.803710938 1082 c 1,10,-1
 1110 1082 l 1,11,12
 1110 554.516601562 1110 554.516601562 1110 38.802734375 c 2,13,14
 1110 -174.041992188 1110 -174.041992188 978.0703125 -297.779296875 c 0,15,16
 841.484036671 -426 841.484036671 -426 599.375206083 -426 c 0,17,18
 464.832232325 -426 464.832232325 -426 335.989257812 -373.465820312 c 0,19,20
 218.3125 -320.931640625 218.3125 -320.931640625 155.294921875 -228.006835938 c 2,21,22
 149.919921875 -195.08203125 149.919921875 -195.08203125 144.545898438 -212.158203125 c 1,23,24
 208.58984375 -113.107421875 208.58984375 -113.107421875 272.633789062 -64.056640625 c 1,25,26
 282.037109375 -50.671875 282.037109375 -50.671875 291.439453125 -87.287109375 c 2,27,28
 409.025322031 -225 409.025322031 -225 585.077914079 -225 c 0,29,30
 722.115825437 -225 722.115825437 -225 797.082095111 -156.384765625 c 128,-1,31
 872.123545858 -87.7001953125 872.123545858 -87.7001953125 872.123545858 40 c 2,32,33
 872.123545858 81.6240234375 872.123545858 81.6240234375 872.123545858 73.248046875 c 1,34,35
 750.497754411 -20 750.497754411 -20 566.381455304 -20 c 0,36,37
 343.873404396 -20 343.873404396 -20 218.661132812 135.84765625 c 0,0,1
409.40230141 806.606445312 m 0,38,39
 332 714.643554688 332 714.643554688 332 529.791992188 c 0,40,41
 332 366.37109375 332 366.37109375 408.366950637 274.849609375 c 0,42,43
 482.606111936 187 482.606111936 187 616.971873166 187 c 0,44,45
 695.686456323 187 695.686456323 187 755.024729006 213.642578125 c 0,46,47
 826.660477157 245.806640625 826.660477157 245.806640625 872.123545858 317.923828125 c 1,48,49
 872.123545858 542.596679688 872.123545858 542.596679688 872.123545858 767.494140625 c 1,50,51
 825.068786446 837.680664062 825.068786446 837.680664062 754.220291527 869.030273438 c 0,52,53
 695.529650086 895 695.529650086 895 619.171456551 895 c 0,54,55
 484.735884325 895 484.735884325 895 409.40230141 806.606445312 c 0,38,39
EndSplineSet
Substitution2: "Podtablica 'ss07' Styl 7 w tablicy 17" g.ss07
Substitution2: "Podtablica 'ss06' Styl 6 w tablicy 16" g.ss06
Substitution2: "Podtablica 'ss01' Styl 1 w tablicy 11" g.ss01
Substitution2: "Podtablica 'smcp' Tekstowe na kapitaliki w tablicy 1" G.c2sc
EndChar

StartChar: h
Encoding: 104 104 76
Width: 1228
GlyphClass: 2
Flags: W
LayerCount: 2
Fore
SplineSet
375 748.3203125 m 1,0,1
 375 378.040039062 375 378.040039062 375 0 c 1,2,-1
 140 0 l 1,3,4
 140 768 140 768 140 1536 c 1,5,-1
 375 1536 l 1,6,7
 375 1237.70507812 375 1237.70507812 375 989.411132812 c 1,8,9
 509.596822433 1102 509.596822433 1102 704.222737819 1102 c 0,10,11
 923.391601562 1102 923.391601562 1102 1016.50488281 977.735351562 c 0,12,13
 1089.60449219 880.181640625 1089.60449219 880.181640625 1090.99902344 708.071289062 c 1,14,15
 1090.99902344 362.583984375 1090.99902344 362.583984375 1090.99902344 0 c 1,16,-1
 856 0 l 1,17,18
 856 355.958984375 856 355.958984375 856 701.689453125 c 2,19,20
 854.951561594 803.185546875 854.951561594 803.185546875 804.237440636 849.092773438 c 128,-1,21
 753.523319678 895 753.523319678 895 641.726218097 895 c 0,22,23
 550.136077527 895 550.136077527 895 482.010468025 854.189453125 c 128,-1,24
 413.884858523 813.379882812 413.884858523 813.379882812 375 748.3203125 c 1,0,1
EndSplineSet
Substitution2: "Podtablica 'smcp' Tekstowe na kapitaliki w tablicy 1" H.c2sc
EndChar

StartChar: i
Encoding: 105 105 77
Width: 547
GlyphClass: 2
Flags: W
LayerCount: 2
Fore
SplineSet
391 1082 m 1,0,1
 391 541 391 541 391 0 c 1,2,-1
 156 0 l 1,3,4
 156 541 156 541 156 1082 c 1,5,-1
 391 1082 l 1,0,1
374.928710938 1251.57617188 m 128,-1,7
 339.857421875 1214 339.857421875 1214 275 1214 c 128,-1,8
 210.008789062 1214 210.008789062 1214 175.504882812 1251.64160156 c 128,-1,9
 141 1289.28222656 141 1289.28222656 141 1343.8828125 c 128,-1,10
 141 1398.48339844 141 1398.48339844 175.381835938 1437.2421875 c 128,-1,11
 209.764648438 1476 209.764648438 1476 275 1476 c 128,-1,12
 340.1015625 1476 340.1015625 1476 375.05078125 1437.30566406 c 128,-1,13
 410 1398.61230469 410 1398.61230469 410 1343.8828125 c 128,-1,6
 410 1289.15332031 410 1289.15332031 374.928710938 1251.57617188 c 128,-1,7
EndSplineSet
Substitution2: "Podtablica Podstawienie pojedyncze w tablicy 3" glyph609
Substitution2: "Podtablica 'smcp' Tekstowe na kapitaliki w tablicy 1" I.c2sc
EndChar

StartChar: j
Encoding: 106 106 78
Width: 539
GlyphClass: 2
Flags: W
LayerCount: 2
Fore
SplineSet
146 1082 m 1,0,-1
 381 1082 l 1,1,2
 381 491 381 491 381 -100 c 2,3,4
 381 -246.77734375 381 -246.77734375 320.345703125 -330.364257812 c 0,5,6
 242.966796875 -437 242.966796875 -437 73 -437 c 0,7,8
 7.78125 -437 7.78125 -437 -48.171875 -417.631835938 c 2,9,10
 -56.5859375 -389.71875 -56.5859375 -389.71875 -65 -411.806640625 c 1,11,12
 -65 -287.891601562 -65 -287.891601562 -65 -213.975585938 c 1,13,14
 -49.462890625 -192.860351562 -49.462890625 -192.860351562 -33.92578125 -221.744140625 c 2,15,16
 -4.9033203125 -229 -4.9033203125 -229 45.2626953125 -229 c 128,-1,17
 95.4287109375 -229 95.4287109375 -229 120.71484375 -202.936523438 c 128,-1,18
 146 -176.873046875 146 -176.873046875 146 -104 c 2,19,20
 146 489 146 489 146 1082 c 1,0,-1
160.936523438 1251.70703125 m 128,-1,22
 127 1289.41308594 127 1289.41308594 127 1343.39160156 c 128,-1,23
 127 1397.37011719 127 1397.37011719 161.322265625 1436.68554688 c 128,-1,24
 195.64453125 1476 195.64453125 1476 260.373046875 1476 c 128,-1,25
 325.1015625 1476 325.1015625 1476 360.05078125 1437.30566406 c 128,-1,26
 395 1398.61230469 395 1398.61230469 395 1343.8828125 c 128,-1,27
 395 1289.15332031 395 1289.15332031 359.928710938 1251.57617188 c 128,-1,28
 324.857421875 1214 324.857421875 1214 259.864257812 1214 c 128,-1,21
 194.872070312 1214 194.872070312 1214 160.936523438 1251.70703125 c 128,-1,22
EndSplineSet
Substitution2: "Podtablica Podstawienie pojedyncze w tablicy 3" glyph607
Substitution2: "Podtablica 'smcp' Tekstowe na kapitaliki w tablicy 1" J.c2sc
EndChar

StartChar: k
Encoding: 107 107 79
Width: 1138
GlyphClass: 2
Flags: W
LayerCount: 2
Fore
SplineSet
650.674870052 624.375976562 m 1,0,1
 917.172851562 322.294921875 917.172851562 322.294921875 1160.83789062 -0 c 1,2,3
 1021.18359375 25 1021.18359375 25 881.529296875 -0 c 1,4,5
 677.982178458 268.741210938 677.982178458 268.741210938 474.436143793 487.483398438 c 1,6,7
 425.218613773 466.220703125 425.218613773 466.220703125 376 394.958984375 c 1,8,9
 376 222.479492188 376 222.479492188 376 0 c 1,10,-1
 141 0 l 1,11,12
 141 768 141 768 141 1536 c 1,13,-1
 376 1536 l 1,14,15
 376 1068.56738281 376 1068.56738281 376 651.133789062 c 1,16,17
 406.678862021 659.36328125 406.678862021 659.36328125 437.358807794 717.59375 c 1,18,19
 628.768983447 874.796875 628.768983447 874.796875 820.180242852 1082 c 1,20,21
 972.845703125 1057 972.845703125 1057 1119.44335938 1082 c 1,22,23
 896.475585938 839.3984375 896.475585938 839.3984375 650.674870052 624.375976562 c 1,0,1
EndSplineSet
Substitution2: "Podtablica 'ss05' Styl 5 w tablicy 15" k.ss05
Substitution2: "Podtablica 'ss04' Styl 4 w tablicy 14" k.ss04
Substitution2: "Podtablica 'smcp' Tekstowe na kapitaliki w tablicy 1" K.c2sc
EndChar

StartChar: l
Encoding: 108 108 80
Width: 547
GlyphClass: 2
Flags: W
LayerCount: 2
Fore
SplineSet
391 1536 m 1,0,1
 391 768 391 768 391 0 c 1,2,-1
 156 0 l 1,3,4
 156 768 156 768 156 1536 c 1,5,-1
 391 1536 l 1,0,1
EndSplineSet
Substitution2: "Podtablica 'smcp' Tekstowe na kapitaliki w tablicy 1" L.c2sc
EndChar

StartChar: m
Encoding: 109 109 81
Width: 1945
GlyphClass: 2
Flags: W
LayerCount: 2
Fore
SplineSet
366.56640625 995.92578125 m 1,0,1
 498.269985465 1102 498.269985465 1102 698.837209302 1102 c 0,2,3
 933.181640625 1102 933.181640625 1102 1027.59179688 948.86328125 c 1,4,5
 1079.10644531 1010.20605469 1079.10644531 1010.20605469 1159.63505565 1050.87597656 c 0,6,7
 1262.4528599 1102 1262.4528599 1102 1401.36658933 1102 c 0,8,9
 1629.0625 1102 1629.0625 1102 1726.33691406 981.365234375 c 0,10,11
 1803.19824219 886.044921875 1803.19824219 886.044921875 1805.99707031 717.834960938 c 1,12,13
 1805.99707031 367.254882812 1805.99707031 367.254882812 1805.99707031 0 c 1,14,-1
 1571 0 l 1,15,16
 1571 355.111328125 1571 355.111328125 1571 699.899414062 c 2,17,18
 1571 800.520507812 1571 800.520507812 1519.69190926 847.760742188 c 128,-1,19
 1468.38272867 895 1468.38272867 895 1341.10208817 895 c 0,20,21
 1236.89036217 895 1236.89036217 895 1169.17235762 843.025390625 c 128,-1,22
 1101.45544292 791.05078125 1101.45544292 791.05078125 1090 702.400390625 c 1,23,24
 1090 356.295898438 1090 356.295898438 1090 0 c 1,25,-1
 854 0 l 1,26,27
 854 352.869140625 854 352.869140625 854 695.1640625 c 2,28,29
 854 786.341796875 854 786.341796875 808.988008721 835.112304688 c 0,30,31
 753.714752907 895 753.714752907 895 624.046511628 895 c 0,32,33
 540.651526163 895 540.651526163 895 481.784156977 868.712890625 c 0,34,35
 411.455305233 837.30859375 411.455305233 837.30859375 374 766.876953125 c 1,36,37
 374 386.828125 374 386.828125 374 0 c 1,38,-1
 139 0 l 1,39,40
 139 541 139 541 139 1082 c 1,41,-1
 362.98046875 1082 l 1,42,43
 364.7734375 1013.96289062 364.7734375 1013.96289062 366.56640625 995.92578125 c 1,0,1
EndSplineSet
Substitution2: "Podtablica 'smcp' Tekstowe na kapitaliki w tablicy 1" M.c2sc
EndChar

StartChar: n
Encoding: 110 110 82
Width: 1230
GlyphClass: 2
Flags: W
LayerCount: 2
Fore
SplineSet
375 748.3203125 m 1,0,1
 375 378.040039062 375 378.040039062 375 0 c 1,2,-1
 140 0 l 1,3,4
 140 541 140 541 140 1082 c 1,5,-1
 363.921875 1082 l 1,6,7
 366.107421875 1007.46679688 366.107421875 1007.46679688 368.291992188 982.93359375 c 1,8,9
 504.236926298 1102 504.236926298 1102 704.222737819 1102 c 0,10,11
 923.391601562 1102 923.391601562 1102 1016.50488281 977.735351562 c 0,12,13
 1089.60449219 880.181640625 1089.60449219 880.181640625 1090.99902344 708.071289062 c 1,14,15
 1090.99902344 362.583984375 1090.99902344 362.583984375 1090.99902344 0 c 1,16,-1
 856 0 l 1,17,18
 856 355.958984375 856 355.958984375 856 701.689453125 c 2,19,20
 854.951561594 803.185546875 854.951561594 803.185546875 804.237440636 849.092773438 c 128,-1,21
 753.523319678 895 753.523319678 895 641.726218097 895 c 0,22,23
 550.136077527 895 550.136077527 895 482.010468025 854.189453125 c 128,-1,24
 413.884858523 813.379882812 413.884858523 813.379882812 375 748.3203125 c 1,0,1
EndSplineSet
Substitution2: "Podtablica 'smcp' Tekstowe na kapitaliki w tablicy 1" N.c2sc
EndChar

StartChar: o
Encoding: 111 111 83
Width: 1268
GlyphClass: 2
Flags: W
LayerCount: 2
Fore
SplineSet
91 538.127929688 m 2,0,1
 91 544.208007812 91 544.208007812 91 550.573242188 c 2,2,3
 91 708.365234375 91 708.365234375 156.3671875 835.525390625 c 128,-1,4
 221.735351562 962.685546875 221.735351562 962.685546875 339.611313606 1032.37695312 c 0,5,6
 467.94367354 1102 467.94367354 1102 631.862000442 1102 c 0,7,8
 885.417080522 1102 885.417080522 1102 1032.59667969 948.119140625 c 0,9,10
 1176 794.239257812 1176 794.239257812 1176 541.95703125 c 2,11,12
 1176 535.958984375 1176 535.958984375 1176 529.51171875 c 2,13,14
 1176 372.779296875 1176 372.779296875 1112.68652344 247.045898438 c 128,-1,15
 1049.37304688 121.313476562 1049.37304688 121.313476562 930.680664062 50.611328125 c 0,16,17
 801.276583674 -20 801.276583674 -20 634.045999853 -20 c 0,18,19
 381.582919478 -20 381.582919478 -20 233.841796875 134.483398438 c 0,20,21
 91 287.305664062 91 287.305664062 91 538.127929688 c 2,0,1
412.165309671 807.211914062 m 0,22,23
 327 711.591796875 327 711.591796875 327 529.748046875 c 0,24,25
 327 369.370117188 327 369.370117188 411.668364492 273.734375 c 0,26,27
 494.637947593 181 494.637947593 181 634.510952852 181 c 128,-1,28
 774.385024518 181 774.385024518 181 856.812873389 274.959960938 c 0,29,30
 941 372.051757812 941 372.051757812 941 550.317382812 c 0,31,32
 941 708.8359375 941 708.8359375 855.31777223 805.87890625 c 0,33,34
 771.255123018 900 771.255123018 900 633.468007821 900 c 128,-1,35
 495.680892624 900 495.680892624 900 412.165309671 807.211914062 c 0,22,23
EndSplineSet
Substitution2: "Podtablica 'ss06' Styl 6 w tablicy 16" o.ss06
Substitution2: "Podtablica 'smcp' Tekstowe na kapitaliki w tablicy 1" O.c2sc
EndChar

StartChar: p
Encoding: 112 112 84
Width: 1249
GlyphClass: 2
Flags: W
LayerCount: 2
Fore
SplineSet
1154 545.787109375 m 2,0,1
 1154 537.791992188 1154 537.791992188 1154 529.51171875 c 2,2,3
 1154 285.090820312 1154 285.090820312 1036.02832031 134.171875 c 0,4,5
 915.512695312 -20 915.512695312 -20 690.217294851 -20 c 0,6,7
 500.825432469 -20 500.825432469 -20 376.77666245 71.82421875 c 1,8,9
 376.77666245 -147.087890625 376.77666245 -147.087890625 376.77666245 -416 c 1,10,-1
 140 -416 l 1,11,12
 140 333 140 333 140 1082 c 1,13,-1
 357.196289062 1082 l 1,14,15
 360.752353803 1013.89355469 360.752353803 1013.89355469 364.307344528 995.787109375 c 1,16,17
 490.132535895 1102 490.132535895 1102 686.917919774 1102 c 0,18,19
 914.27734375 1102 914.27734375 1102 1035.29882812 951.946289062 c 0,20,21
 1154 804.768554688 1154 804.768554688 1154 545.787109375 c 2,0,1
839.162814116 270.159179688 m 0,22,23
 919 362.561523438 919 362.561523438 919 549.21484375 c 0,24,25
 919 712.573242188 919 712.573242188 839.625714721 805.474609375 c 0,26,27
 762.100066528 895 762.100066528 895 626.429376678 895 c 0,28,29
 550.886360775 895 550.886360775 895 492.84442459 870.00390625 c 0,30,31
 423.094647349 839.965820312 423.094647349 839.965820312 376.77666245 772.876953125 c 1,32,33
 376.77666245 537.551757812 376.77666245 537.551757812 376.77666245 302.1640625 c 1,34,35
 422.495346798 235.68359375 422.495346798 235.68359375 492.822944284 205.87890625 c 0,36,37
 551.526473909 181 551.526473909 181 628.628960064 181 c 0,38,39
 761.092640153 181 761.092640153 181 839.162814116 270.159179688 c 0,22,23
EndSplineSet
Substitution2: "Podtablica 'ss06' Styl 6 w tablicy 16" p.ss06
Substitution2: "Podtablica 'smcp' Tekstowe na kapitaliki w tablicy 1" P.c2sc
EndChar

StartChar: q
Encoding: 113 113 85
Width: 1264
GlyphClass: 2
Flags: W
LayerCount: 2
Fore
SplineSet
95 537.170898438 m 2,0,1
 95 543.291015625 95 543.291015625 95 549.616210938 c 2,2,3
 95 802.02734375 95 802.02734375 217.352539062 950.696289062 c 0,4,5
 341.985871698 1102 341.985871698 1102 572.108153922 1102 c 0,6,7
 759.790877474 1102 759.790877474 1102 882.511298824 1004.55078125 c 1,8,9
 885.639487498 1018.27539062 885.639487498 1018.27539062 888.766601562 1082 c 1,10,-1
 1107 1082 l 1,11,12
 1107 333 1107 333 1107 -416 c 1,13,-1
 870.316628584 -416 l 1,14,15
 870.316628584 -149.061523438 870.316628584 -149.061523438 870.316628584 67.876953125 c 1,16,17
 748.834157544 -20 748.834157544 -20 569.907353371 -20 c 0,18,19
 340.642578125 -20 340.642578125 -20 216.622070312 135.41796875 c 0,20,21
 95 287.831054688 95 287.831054688 95 537.170898438 c 2,0,1
870.316628584 300.677734375 m 1,22,23
 870.316628584 541.7265625 870.316628584 541.7265625 870.316628584 782.9453125 c 1,24,25
 782.040670154 900 782.040670154 900 622.726566595 900 c 0,26,27
 489.114976503 900 489.114976503 900 410.44925212 809.893554688 c 0,28,29
 330 716.504882812 330 716.504882812 330 529.748046875 c 0,30,31
 330 363.549804688 330 363.549804688 409.911947298 270.624023438 c 0,32,33
 488.027471543 181 488.027471543 181 620.525766044 181 c 0,34,35
 782.961610619 181 782.961610619 181 870.316628584 300.677734375 c 1,22,23
EndSplineSet
Substitution2: "Podtablica 'ss06' Styl 6 w tablicy 16" q.ss06
Substitution2: "Podtablica 'smcp' Tekstowe na kapitaliki w tablicy 1" Q.c2sc
EndChar

StartChar: r
Encoding: 114 114 86
Width: 743
GlyphClass: 2
Flags: W
LayerCount: 2
Fore
SplineSet
369.407226562 1082 m 1,0,1
 370.349609375 1017.75488281 370.349609375 1017.75488281 371.291015625 1003.50976562 c 1,2,3
 463.291015625 1102 463.291015625 1102 606 1102 c 0,4,5
 665.90625 1102 665.90625 1102 699.15625 1085.375 c 2,6,7
 706.078125 1056.9140625 706.078125 1056.9140625 713 1078.453125 c 1,8,9
 713 944.96875 713 944.96875 713 861.485351562 c 1,10,11
 698.43359375 838.913085938 698.43359375 838.913085938 683.866210938 866.340820312 c 2,12,13
 643.911132812 873 643.911132812 873 597 873 c 0,14,15
 522.329101562 873 522.329101562 873 470.013671875 846.779296875 c 0,16,17
 407.53515625 815.46484375 407.53515625 815.46484375 375 745.182617188 c 1,18,19
 375 376.052734375 375 376.052734375 375 0 c 1,20,-1
 140 0 l 1,21,22
 140 541 140 541 140 1082 c 1,23,-1
 369.407226562 1082 l 1,0,1
EndSplineSet
Substitution2: "Podtablica 'smcp' Tekstowe na kapitaliki w tablicy 1" R.c2sc
EndChar

StartChar: s
Encoding: 115 115 87
Width: 1156
GlyphClass: 2
Flags: W
LayerCount: 2
Fore
SplineSet
762.647372634 217.319335938 m 0,0,1
 820 250.571289062 820 250.571289062 820 305.25390625 c 0,2,3
 820 364.390625 820 364.390625 769.479043204 396.631835938 c 0,4,5
 711.064925444 432.985351562 711.064925444 432.985351562 554.920420331 461.233398438 c 128,-1,6
 398.775915217 489.482421875 398.775915217 489.482421875 305.767578125 531.403320312 c 0,7,8
 218.951171875 573.325195312 218.951171875 573.325195312 175.475585938 633.875 c 128,-1,9
 132 694.42578125 132 694.42578125 132 777.610351562 c 0,10,11
 132 914.998046875 132 914.998046875 252.54296875 1008.49902344 c 0,12,13
 376.948241254 1102 376.948241254 1102 582.836360161 1102 c 0,14,15
 798.912403221 1102 798.912403221 1102 922.506835938 1000.36816406 c 0,16,17
 1045 898.737304688 1045 898.737304688 1045 739 c 2,18,19
 1045 701.5 1045 701.5 1045 714 c 1,20,-1
 808.971324794 714 l 1,21,22
 808.971324794 701.5 808.971324794 701.5 808.971324794 739 c 2,23,24
 808.971324794 803.46875 808.971324794 803.46875 745.605913066 851.734375 c 128,-1,25
 682.240501338 900 682.240501338 900 580.774505353 900 c 128,-1,26
 479.308509367 900 479.308509367 900 423.038239581 863.19921875 c 0,27,28
 370.135155802 828.600585938 370.135155802 828.600585938 370.135155802 772.907226562 c 0,29,30
 370.135155802 749.762695312 370.135155802 749.762695312 380.38430152 730.470703125 c 128,-1,31
 390.633447238 711.178710938 390.633447238 711.178710938 416.562965972 697.0859375 c 0,32,33
 471.742180032 667.095703125 471.742180032 667.095703125 626.048944991 637.833984375 c 128,-1,34
 780.354616708 608.573242188 780.354616708 608.573242188 873.696289062 565.76953125 c 0,35,36
 963.954101562 522.966796875 963.954101562 522.966796875 1009.47753906 460.0234375 c 128,-1,37
 1055 397.079101562 1055 397.079101562 1055 307.216796875 c 0,38,39
 1055 157.879882812 1055 157.879882812 929.034179688 67.759765625 c 0,40,41
 806.022850554 -20 806.022850554 -20 589.553240298 -20 c 0,42,43
 437.884468792 -20 437.884468792 -20 321.901367188 28.583984375 c 0,44,45
 216.283203125 77.16796875 216.283203125 77.16796875 155.641601562 165.715820312 c 128,-1,46
 95 254.263671875 95 254.263671875 95 358 c 2,47,48
 95 395.5 95 395.5 95 383 c 1,49,-1
 328.692382812 383 l 1,50,51
 329.328125 396.180664062 329.328125 396.180664062 329.963867188 359.361328125 c 2,52,53
 334.35546875 277.666015625 334.35546875 277.666015625 402.590237287 229.333007812 c 0,54,55
 471.590219365 181 471.590219365 181 589.553240298 181 c 0,56,57
 698.600871009 181 698.600871009 181 762.647372634 217.319335938 c 0,0,1
EndSplineSet
Substitution2: "Podtablica 'smcp' Tekstowe na kapitaliki w tablicy 1" S.c2sc
EndChar

StartChar: t
Encoding: 116 116 88
Width: 719
GlyphClass: 2
Flags: W
LayerCount: 2
Fore
SplineSet
9 1082 m 1,0,-1
 206 1082 l 1,1,2
 206 1188 206 1188 206 1344 c 1,3,-1
 441 1344 l 1,4,5
 441 1188 441 1188 441 1082 c 1,6,-1
 643 1082 l 1,7,8
 643 960.5 643 960.5 643 889 c 1,9,-1
 441 889 l 1,10,11
 441 584.2421875 441 584.2421875 441 286.009765625 c 2,12,13
 441 233.759765625 441 233.759765625 462.237304688 209.8984375 c 0,14,15
 481.727539062 188 481.727539062 188 535 188 c 0,16,17
 564.331054688 188 564.331054688 188 617.745117188 199.4453125 c 2,18,19
 632.872070312 227.6875 632.872070312 227.6875 648 205.928710938 c 1,20,21
 648 130.92578125 648 130.92578125 648 5.9228515625 c 1,22,23
 638.806640625 28.404296875 638.806640625 28.404296875 629.612304688 0.8857421875 c 2,24,25
 553.380859375 -20 553.380859375 -20 481 -20 c 0,26,27
 345.35546875 -20 345.35546875 -20 275.677734375 58.625 c 128,-1,28
 206 137.25 206 137.25 206 276.680664062 c 2,29,30
 206 575.106445312 206 575.106445312 206 889 c 1,31,-1
 9 889 l 1,32,33
 9 960.5 9 960.5 9 1082 c 1,0,-1
EndSplineSet
Substitution2: "Podtablica 'smcp' Tekstowe na kapitaliki w tablicy 1" T.c2sc
EndChar

StartChar: u
Encoding: 117 117 89
Width: 1229
GlyphClass: 2
Flags: W
LayerCount: 2
Fore
SplineSet
853 318.088867188 m 1,0,1
 853 696.576171875 853 696.576171875 853 1082 c 1,2,-1
 1088 1082 l 1,3,4
 1088 541 1088 541 1088 0 c 1,5,-1
 862.916992188 0 l 1,6,7
 862.466796875 37.025390625 862.466796875 37.025390625 862.017578125 24.0517578125 c 1,8,9
 861.083984375 74.01953125 861.083984375 74.01953125 860.151367188 73.9873046875 c 1,10,11
 736.923737703 -20 736.923737703 -20 532.136280201 -20 c 0,12,13
 331.875976562 -20 331.875976562 -20 234.462890625 83.482421875 c 128,-1,14
 137.048828125 186.96484375 137.048828125 186.96484375 136 384.640625 c 1,15,16
 136 724.5390625 136 724.5390625 136 1082 c 1,17,-1
 371 1082 l 1,18,19
 371 733.616210938 371 733.616210938 371 396.306640625 c 2,20,21
 371 299.778320312 371 299.778320312 410.584825304 248.116210938 c 0,22,23
 457.414338288 187 457.414338288 187 566.25462963 187 c 0,24,25
 665.127346463 187 665.127346463 187 733.340074327 214.309570312 c 0,26,27
 813.824860749 246.53125 813.824860749 246.53125 853 318.088867188 c 1,0,1
EndSplineSet
Substitution2: "Podtablica 'smcp' Tekstowe na kapitaliki w tablicy 1" U.c2sc
EndChar

StartChar: v
Encoding: 118 118 90
Width: 1092
GlyphClass: 2
Flags: W
LayerCount: 2
Fore
SplineSet
557.667980701 306.515625 m 1,0,1
 695.054693475 669.2578125 695.054693475 669.2578125 832.44140625 1082 c 1,2,3
 953.811523438 1057 953.811523438 1057 1075.18066406 1082 c 1,4,5
 872.215820312 541 872.215820312 541 653.1484683 0 c 1,6,7
 556.390129449 25 556.390129449 25 459.631790599 0 c 1,8,9
 238.057617188 541 238.057617188 541 33 1082 c 1,10,-1
 275.717773438 1082 l 1,11,12
 416.692340608 669.2578125 416.692340608 669.2578125 557.667980701 306.515625 c 1,0,1
EndSplineSet
Substitution2: "Podtablica 'smcp' Tekstowe na kapitaliki w tablicy 1" V.c2sc
EndChar

StartChar: w
Encoding: 119 119 91
Width: 1689
GlyphClass: 2
Flags: W
LayerCount: 2
Fore
SplineSet
475.307617188 337.653320312 m 1,0,1
 627.54625616 684.827148438 627.54625616 684.827148438 756.8828125 1082 c 1,2,3
 849.794921875 1057 849.794921875 1057 942.70703125 1082 c 1,4,5
 1074.54766776 677.211914062 1074.54766776 677.211914062 1178.75390625 322.424804688 c 1,6,7
 1313.0926468 677.211914062 1313.0926468 677.211914062 1419.79589844 1082 c 1,8,-1
 1657.61328125 1082 l 1,9,10
 1442.83496094 541 1442.83496094 541 1278.05664062 0 c 1,11,12
 1184.55371094 25 1184.55371094 25 1091.05078125 0 c 1,13,14
 956.163439946 406.061523438 956.163439946 406.061523438 846.61328125 762.124023438 c 1,15,16
 689.978869634 406.061523438 689.978869634 406.061523438 558.681640625 0 c 1,17,18
 465.095703125 25 465.095703125 25 371.509765625 -0 c 1,19,20
 207.254882812 541 207.254882812 541 43 1082 c 1,21,-1
 279.572265625 1082 l 1,22,23
 388.892073554 684.827148438 388.892073554 684.827148438 475.307617188 337.653320312 c 1,0,1
EndSplineSet
Substitution2: "Podtablica 'smcp' Tekstowe na kapitaliki w tablicy 1" W.c2sc
EndChar

StartChar: x
Encoding: 120 120 92
Width: 1115
GlyphClass: 2
Flags: W
LayerCount: 2
Fore
SplineSet
433.397491221 546.791015625 m 1,0,1
 237.46875 802.319335938 237.46875 802.319335938 52.216796875 1082 c 1,2,3
 189.552734375 1057 189.552734375 1057 326.889648438 1082 c 1,4,5
 450.800215653 871.18359375 450.800215653 871.18359375 574.711868232 710.366210938 c 1,6,7
 700.191871616 871.18359375 700.191871616 871.18359375 825.671875 1082 c 1,8,9
 963.961914062 1057 963.961914062 1057 1102.25195312 1082 c 1,10,11
 917 802.319335938 917 802.319335938 721.284833235 546.791015625 c 1,12,13
 922.609375 285.21484375 922.609375 285.21484375 1113.46972656 0 c 1,14,15
 976.12890625 25 976.12890625 25 838.788085938 0 c 1,16,17
 708.261744607 216.203125 708.261744607 216.203125 577.734323287 382.40625 c 1,18,19
 447.207981956 216.203125 447.207981956 216.203125 316.681640625 0 c 1,20,21
 178.840820312 25 178.840820312 25 41 0 c 1,22,23
 231.860351562 285.21484375 231.860351562 285.21484375 433.397491221 546.791015625 c 1,0,1
EndSplineSet
Substitution2: "Podtablica 'smcp' Tekstowe na kapitaliki w tablicy 1" X.c2sc
EndChar

StartChar: y
Encoding: 121 121 93
Width: 1069
GlyphClass: 2
Flags: W
LayerCount: 2
Fore
SplineSet
431.315951054 32.9013671875 m 1,0,1
 219.484375 555.419921875 219.484375 555.419921875 22 1082 c 1,2,3
 149.815429688 1057 149.815429688 1057 277.631835938 1082 c 1,4,5
 416.137113444 679.8125 416.137113444 679.8125 554.641313826 327.625976562 c 1,6,7
 683.913480631 679.8125 683.913480631 679.8125 813.184570312 1082 c 1,8,9
 938.985351562 1057 938.985351562 1057 1064.78515625 1082 c 1,10,11
 841.500976562 465.891601562 841.500976562 465.891601562 598.139907216 -150.215820312 c 1,12,13
 598.03434902 -125.482421875 598.03434902 -125.482421875 597.927713701 -150.748046875 c 1,14,15
 546.258054308 -275.98046875 546.258054308 -275.98046875 466.383891451 -346.567382812 c 0,16,17
 364.052761142 -437 364.052761142 -437 223.600585938 -437 c 2,18,-1
 222.516601562 -437 l 1,19,20
 221.978515625 -411.954101562 221.978515625 -411.954101562 221.44140625 -436.908203125 c 1,21,22
 203.94140625 -410.408203125 203.94140625 -410.408203125 186.44140625 -433.908203125 c 1,23,24
 185.813476562 -408.854492188 185.813476562 -408.854492188 185.185546875 -433.799804688 c 1,25,26
 139.893554688 -400.266601562 139.893554688 -400.266601562 94.6005859375 -416.733398438 c 1,27,28
 94.6005859375 -292.826171875 94.6005859375 -292.826171875 94.6005859375 -218.918945312 c 1,29,30
 108.109375 -195 108.109375 -195 121.618164062 -221.080078125 c 1,31,32
 146.108398438 -198.040039062 146.108398438 -198.040039062 170.598632812 -224.999023438 c 1,33,34
 255.779296875 -224.802734375 255.779296875 -224.802734375 304.086012187 -191.625976562 c 0,35,36
 354.641924908 -158.44921875 354.641924908 -158.44921875 389.328563254 -65.0283203125 c 1,37,38
 389.475052178 -39.654296875 389.475052178 -39.654296875 389.621541101 -64.279296875 c 1,39,40
 410.46928464 6.2353515625 410.46928464 6.2353515625 431.315951054 32.9013671875 c 1,0,1
EndSplineSet
Substitution2: "Podtablica 'smcp' Tekstowe na kapitaliki w tablicy 1" Y.c2sc
EndChar

StartChar: z
Encoding: 122 122 94
Width: 1115
GlyphClass: 2
Flags: W
LayerCount: 2
Fore
SplineSet
698.950055991 879 m 1,0,-1
 97 879 l 1,1,2
 97 955.5 97 955.5 97 1082 c 1,3,-1
 1017 1082 l 1,4,5
 1017 984.751953125 1017 984.751953125 1017 926.465820312 c 1,6,7
 719.310336442 567.909179688 719.310336442 567.909179688 395.779914045 201 c 1,8,-1
 1047 201 l 1,9,10
 1047 125.5 1047 125.5 1047 0 c 1,11,-1
 88 0 l 1,12,13
 88 99.4619140625 88 99.4619140625 88 160.23828125 c 1,14,15
 378.758155331 515.306640625 378.758155331 515.306640625 698.950055991 879 c 1,0,-1
EndSplineSet
Substitution2: "Podtablica 'smcp' Tekstowe na kapitaliki w tablicy 1" Z.c2sc
EndChar

StartChar: braceleft
Encoding: 123 123 95
Width: 693
GlyphClass: 1
Flags: W
LayerCount: 2
Fore
SplineSet
341.740403696 614.888706559 m 1
 486 513.545588691 486 513.545588691 486 296 c 2
 486 90.1401625826 l 1
 487.29077424 -26.108052624 487.29077424 -26.108052624 526.034113233 -101.79378875 c 0
 573.075339757 -193.689581685 573.075339757 -193.689581685 677.625895383 -227.186361643 c 2
 701.659097416 -234.886319576 l 1
 648.233476245 -396.569120489 l 1
 625.198764297 -390.062139713 l 2
 440.34822323 -337.844472745 440.34822323 -337.844472745 345.674111615 -216.725078556 c 0
 251 -95.6056843669 251 -95.6056843669 251 101 c 2
 251 300 l 2
 251 400.14229057 251 400.14229057 213.608870137 453.715666494 c 0
 168.742108974 518 168.742108974 518 64 518 c 2
 39 518 l 1
 39 713 l 1
 64 713 l 2
 168.772956135 713 168.772956135 713 213.636718785 777.015510385 c 0
 251 830.328682874 251 830.328682874 251 930 c 2
 251 1138.27825988 l 1
 253.091955546 1329.69219237 253.091955546 1329.69219237 345.755676037 1448.82930741 c 0
 438.296854725 1567.81082287 438.296854725 1567.81082287 625.145117256 1621.04692001 c 2
 648.2165499 1627.62034496 l 1
 701.657763248 1465.89035719 l 1
 677.629873908 1458.18763669 l 2
 571.562823729 1424.18528089 571.562823729 1424.18528089 524.675134717 1330.07338835 c 0
 486 1252.44554618 486 1252.44554618 486 1133 c 2
 486 931 l 2
 486 715.242036338 486 715.242036338 341.740403696 614.888706559 c 1
EndSplineSet
EndChar

StartChar: bar
Encoding: 124 124 96
Width: 499
GlyphClass: 1
Flags: W
LayerCount: 2
Fore
SplineSet
349 -295 m 1
 150 -295 l 1
 150 1481 l 1
 349 1481 l 1
 349 -295 l 1
EndSplineSet
EndChar

StartChar: braceright
Encoding: 125 125 97
Width: 693
GlyphClass: 1
Flags: W
LayerCount: 2
Fore
SplineSet
357.360151092 614.796820364 m 1
 204 710.375273282 204 710.375273282 204 930 c 2
 204 1133 l 2
 204 1252.44554618 204 1252.44554618 165.324865283 1330.07338835 c 0
 118.437176271 1424.18528089 118.437176271 1424.18528089 12.3701260925 1458.18763669 c 2
 -11.6577632476 1465.89035719 l 1
 41.766523755 1627.56912049 l 1
 64.8012357026 1621.06213971 l 2
 249.573761499 1568.86651096 249.573761499 1568.86651096 343.763240094 1449.80677678 c 0
 437.952718689 1330.7470426 437.952718689 1330.7470426 439 1137 c 1
 439 927 l 2
 439 828.742598136 439 828.742598136 476.278317798 776.210063032 c 0
 521.133659598 713 521.133659598 713 626 713 c 2
 651 713 l 1
 651 518 l 1
 626 518 l 2
 521.257891026 518 521.257891026 518 476.391129863 453.715666494 c 0
 439 400.14229057 439 400.14229057 439 300 c 2
 439 98 l 2
 439 -98.7710472685 439 -98.7710472685 343.259833108 -218.314018084 c 0
 247.519666216 -337.856988899 247.519666216 -337.856988899 64.8724770923 -390.041900077 c 2
 41.9690062971 -396.585748876 l 1
 -12.8491168708 -234.942565176 l 1
 11.3782014003 -227.185049473 l 2
 114.48738044 -194.169795101 114.48738044 -194.169795101 161.981765369 -105.012685258 c 0
 200.994562878 -31.7773274781 200.994562878 -31.7773274781 204 80.3378258488 c 1
 204 300 l 2
 204 517.864302279 204 517.864302279 357.360151092 614.796820364 c 1
EndSplineSet
EndChar

StartChar: asciitilde
Encoding: 126 126 98
Width: 1393
GlyphClass: 1
Flags: W
LayerCount: 2
Fore
SplineSet
1288 777 m 2
 1288 609.720931066 1288 609.720931066 1187.72623477 493.360465533 c 0
 1087.45246954 377 1087.45246954 377 939 377 c 0
 862.018671143 377 862.018671143 377 793.834934155 405.232328597 c 0
 725.651197167 433.464657193 725.651197167 433.464657193 640.861935407 507.717975184 c 0
 556.072673648 581.971293174 556.072673648 581.971293174 523.154280522 597.985646587 c 0
 490.235887395 614 490.235887395 614 454 614 c 0
 388.152703846 614 388.152703846 614 353.674470796 570.081298377 c 0
 317 523.365008197 317 523.365008197 317 438 c 2
 317 413.308593911 l 1
 106 410.687475899 l 1
 106 436 l 2
 106 605.53250439 106 605.53250439 204.907813573 716.266252195 c 0
 303.815627147 827 303.815627147 827 454 827 c 0
 535.450840013 827 535.450840013 827 609.700524027 793.057287308 c 0
 683.950208041 759.114574616 683.950208041 759.114574616 774.864727073 675.948452092 c 0
 856.497773956 601.272767159 856.497773956 601.272767159 912.881310694 591.861558729 c 1
 939.845618137 590.001951319 l 1
 1003.40760354 590.295794446 1003.40760354 590.295794446 1043.15025549 638.823664193 c 0
 1085 689.92440486 1085 689.92440486 1085 776 c 2
 1085 800.837145546 l 1
 1288 802.163942931 l 1
 1288 777 l 2
EndSplineSet
EndChar

StartChar: exclamdown
Encoding: 161 161 99
Width: 499
GlyphClass: 1
Flags: W
LayerCount: 2
Fore
SplineSet
145.309328169 709 m 1
 362.690671831 709 l 1
 376.313277195 -385 l 1
 131.686722805 -385 l 1
 145.309328169 709 l 1
249 1126 m 0
 313.9911367 1126 313.9911367 1126 348.49556835 1088.35880184 c 0
 383 1050.71760367 383 1050.71760367 383 996.116915299 c 0
 383 941.516226925 383 941.516226925 348.617802574 902.758113463 c 0
 314.235605147 864 314.235605147 864 249 864 c 0
 183.898858169 864 183.898858169 864 148.949429085 902.694010772 c 0
 114 941.388021545 114 941.388021545 114 996.117541319 c 0
 114 1050.84706109 114 1050.84706109 149.071371489 1088.42353055 c 0
 184.142742979 1126 184.142742979 1126 249 1126 c 0
EndSplineSet
EndChar

StartChar: cent
Encoding: 162 162 100
Width: 1120
GlyphClass: 1
Flags: W
LayerCount: 2
Fore
SplineSet
586 156 m 0
 677.087378176 156 677.087378176 156 743.563257002 210.348522553 c 0
 810.039135827 264.697045107 810.039135827 264.697045107 817.101225111 343.262788393 c 2
 819.145019413 366 l 1
 1043.21926725 366 l 1
 1041.97133145 339.79334806 l 2
 1035.51794423 204.272216595 1035.51794423 204.272216595 929.807603307 96.9602038351 c 0
 832.472721002 -1.84944941411 832.472721002 -1.84944941411 694 -32.4807174275 c 1
 694 -270 l 1
 459 -270 l 1
 459 -31.3090734583 l 1
 284.523080575 8.66179241328 284.523080575 8.66179241328 184.546086542 150.62912394 c 0
 80 299.084566829 80 299.084566829 80 527 c 2
 80 562 l 2
 80 781.957042639 80 781.957042639 185.590000471 930.933033402 c 0
 286.449998699 1073.23550615 286.449998699 1073.23550615 459 1112.366663 c 1
 459 1343 l 1
 694 1343 l 1
 694 1116.01237642 l 1
 838.554420626 1087.64401927 838.554420626 1087.64401927 933.532916719 982.771929835 c 0
 1035.61821894 870.052741966 1035.61821894 870.052741966 1041.97974204 711.014664537 c 2
 1043.02032862 685 l 1
 818.83125444 685 l 1
 817.072955152 708.077678152 l 2
 809.805174724 803.467296267 809.805174724 803.467296267 745.345444825 864.32088743 c 0
 681.070532992 925 681.070532992 925 586 925 c 0
 457.361557969 925 457.361557969 925 387.381291689 833.348425453 c 0
 315 738.552282144 315 738.552282144 315 555 c 2
 315 520 l 2
 315 341.480859032 315 341.480859032 387.344886541 247.199135927 c 0
 457.324421534 156 457.324421534 156 586 156 c 0
EndSplineSet
EndChar

StartChar: sterling
Encoding: 163 163 101
Width: 1190
GlyphClass: 1
Flags: W
LayerCount: 2
Fore
SplineSet
788 804 m 1
 788 597 l 1
 474.925896694 597 l 1
 482 402.462159089 l 1
 482 270.714306027 482 270.714306027 438.368074062 182 c 1
 1153.15975254 182 l 1
 1151.8412812 -25 l 1
 70 -25 l 1
 70 182 l 1
 168.776850174 182 l 1
 194.360679954 189.906092615 194.360679954 189.906092615 213.634213065 240.402749367 c 0
 237.061905924 301.783304658 237.061905924 301.783304658 239 393.267336044 c 1
 239 400.539925641 l 1
 231.8883231 597 l 1
 66 597 l 1
 66 804 l 1
 225.119384421 804 l 1
 217 1038.55999438 l 1
 217 1248.56140183 217 1248.56140183 346.931631409 1374.78070092 c 0
 476.863262818 1501 476.863262818 1501 687 1501 c 0
 887.012526749 1501 887.012526749 1501 1005.50626337 1387.84381908 c 0
 1124 1274.68763816 1124 1274.68763816 1124 1087 c 2
 1124 1062 l 1
 883 1062 l 1
 883 1087 l 2
 883 1183.47602937 883 1183.47602937 826.913127944 1238.23801469 c 0
 770.826255889 1293 770.826255889 1293 670 1293 c 0
 576.607137832 1293 576.607137832 1293 518.35816229 1223.99736744 c 0
 460.109186749 1154.99473487 460.109186749 1154.99473487 460.000204611 1039.43409462 c 1
 468.149846348 804 l 1
 788 804 l 1
EndSplineSet
Substitution2: "Podtablica 'c2sc' Wersaliki na kapitaliki w tablicy 0" sterling.c2sc
Position2: "Podtablica 'cpsp' +AVoA-wiat+AUIA-o wersalikowe w tablicy 0" dx=36 dy=0 dh=72 dv=0
EndChar

StartChar: currency
Encoding: 164 164 102
Width: 1460
GlyphClass: 1
Flags: W
LayerCount: 2
Fore
SplineSet
1100.95792986 78.3466946122 m 1
 941 -45 941 -45 735.884764077 -45 c 0
 530.769528153 -45 530.769528153 -45 371.093839851 76.5119063737 c 1
 234.794748857 -61.8214994117 l 1
 70.1030175711 109.204529231 l 1
 212.146969151 253.292278675 l 1
 115 409 115 409 115 609.978369862 c 0
 115 810.956739725 115 810.956739725 220.003880081 974.034173379 c 1
 70.2709452664 1127.84147377 l 1
 234.776213804 1299.93929316 l 1
 384.680448096 1146.97578878 l 1
 542.606863051 1259 542.606863051 1259 735.51235308 1259 c 0
 928.417843108 1259 928.417843108 1259 1087.3382588 1145.9907163 c 1
 1239.15456805 1300.86372977 l 1
 1405.85630899 1127.84752895 l 1
 1251.92052154 970.853414603 l 1
 1355 807.988681997 1355 807.988681997 1355 608 c 0
 1355 415.186810422 1355 415.186810422 1259.65869343 256.592136154 c 1
 1406.02693432 109.20034113 l 1
 1239.07191434 -62.8139218789 l 1
 1100.95792986 78.3466946122 l 1
735 176 m 0
 840.806747031 176 840.806747031 176 932.948302692 233.823527277 c 0
 1025.08985835 291.647054554 1025.08985835 291.647054554 1078.54492918 391.46139034 c 0
 1132 491.275726126 1132 491.275726126 1132 607.5 c 0
 1132 723.724273874 1132 723.724273874 1078.57553062 823.481468909 c 0
 1025.15106124 923.238663943 1025.15106124 923.238663943 932.543692635 980.119331972 c 0
 839.936324026 1037 839.936324026 1037 734.490389464 1037 c 0
 629.044454901 1037 629.044454901 1037 536.911411062 980.592013976 c 0
 444.778367223 924.184027952 444.778367223 924.184027952 390.389183612 823.918750338 c 0
 336 723.653472723 336 723.653472723 336 607.5 c 0
 336 491.346527277 336 491.346527277 390.412885383 391.037555963 c 0
 444.825770765 290.728584648 444.825770765 290.728584648 536.984797778 233.364292324 c 0
 629.143824791 176 629.143824791 176 735 176 c 0
EndSplineSet
EndChar

StartChar: yen
Encoding: 165 165 103
Width: 1075
GlyphClass: 1
Flags: W
LayerCount: 2
Fore
SplineSet
-25.8056404949 1481 m 1
 246.955335295 1481 l 1
 539 852.345413313 l 1
 831.044664705 1481 l 1
 1100.80564049 1481 l 1
 733.805640495 761 l 1
 979 761 l 1
 979 586 l 1
 655 586 l 1
 655 471 l 1
 979 471 l 1
 979 297 l 1
 655 297 l 1
 655 -25 l 1
 412 -25 l 1
 412 297 l 1
 94 297 l 1
 94 471 l 1
 412 471 l 1
 412 586 l 1
 94 586 l 1
 94 761 l 1
 341.194359505 761 l 1
 -25.8056404949 1481 l 1
EndSplineSet
Substitution2: "Podtablica 'c2sc' Wersaliki na kapitaliki w tablicy 0" yen.c2sc
Position2: "Podtablica 'cpsp' +AVoA-wiat+AUIA-o wersalikowe w tablicy 0" dx=36 dy=0 dh=72 dv=0
EndChar

StartChar: brokenbar
Encoding: 166 166 104
Width: 491
GlyphClass: 1
Flags: W
LayerCount: 2
Fore
SplineSet
122 -295 m 1
 122 546 l 1
 358 546 l 1
 358 -295 l 1
 122 -295 l 1
358 673 m 1
 122 673 l 1
 122 1481 l 1
 358 1481 l 1
 358 673 l 1
EndSplineSet
EndChar

StartChar: section
Encoding: 167 167 105
Width: 1256
GlyphClass: 1
Flags: W
LayerCount: 2
Fore
SplineSet
1170 431 m 0
 1170 317.344102332 1170 317.344102332 1107.24381122 237.650490561 c 0
 1068.16932846 188.030099007 1068.16932846 188.030099007 1005.20863434 152.46635525 c 1
 1056.19828254 108.171405577 1056.19828254 108.171405577 1086.11001313 51.6714700236 c 0
 1125 -21.7873940644 1125 -21.7873940644 1125 -128 c 0
 1125 -308.34347965 1125 -308.34347965 985.174731102 -415.363589306 c 0
 848.463842758 -520 848.463842758 -520 612 -520 c 0
 496.5644156 -520 496.5644156 -520 391.922662469 -490.84607873 c 0
 287.280909338 -461.692157459 287.280909338 -461.692157459 213.24671641 -401.407171789 c 0
 65 -280.89005701 65 -280.89005701 65 -64 c 2
 65 -39.267344669 l 1
 301 -36.7297102604 l 1
 301 -62 l 2
 301 -180.345892059 301 -180.345892059 383.045494799 -249.172946029 c 0
 465.090989599 -318 465.090989599 -318 612 -318 c 0
 740.079123636 -318 740.079123636 -318 816.620981982 -264.051822732 c 0
 889 -213.037695575 889 -213.037695575 889 -130 c 0
 889 -53.6027145446 889 -53.6027145446 828.157883605 -8.61382566076 c 0
 760.757837547 41.2242365646 760.757837547 41.2242365646 556.24856841 101.920852195 c 1
 371.305017912 150.727297115 371.305017912 150.727297115 271.097568266 208.659728977 c 0
 170.890118619 266.59216084 170.890118619 266.59216084 120.94505931 349.833926356 c 0
 71 433.075691871 71 433.075691871 71 551 c 0
 71 662.82516964 71 662.82516964 132.340030051 742.634615333 c 0
 170.864394586 792.758623695 170.864394586 792.758623695 233.170733544 829.402260118 c 1
 183.895814964 873.809429771 183.895814964 873.809429771 154.323127628 930.455704106 c 0
 116 1003.8633852 116 1003.8633852 116 1110 c 0
 116 1288.50552634 116 1288.50552634 259.533048579 1396.02091854 c 0
 399.680122331 1501 399.680122331 1501 630 1501 c 0
 871.339892212 1501 871.339892212 1501 1009.16994611 1381.19387623 c 0
 1147 1261.38775246 1147 1261.38775246 1147 1045 c 2
 1147 1020 l 1
 912 1020 l 1
 912 1045 l 2
 912 1159.05699552 912 1159.05699552 835.617984667 1229.52849776 c 0
 759.235969335 1300 759.235969335 1300 627.621645681 1300 c 0
 496.007322028 1300 496.007322028 1300 422.007888871 1247.14326203 c 0
 352 1197.13762712 352 1197.13762712 352 1112 c 0
 352 1050.87664195 352 1050.87664195 375.863069597 1016.78654253 c 0
 399.726139193 982.696443103 399.726139193 982.696443103 463.281775643 952.095581108 c 0
 526.837412094 921.494719113 526.837412094 921.494719113 670.060830732 881.571814963 c 0
 813.284249371 841.648910813 813.284249371 841.648910813 900.307090347 804.574090989 c 0
 987.329931324 767.499271164 987.329931324 767.499271164 1047.42732952 715.911239083 c 0
 1107.52472772 664.323207002 1107.52472772 664.323207002 1138.76236386 594.846395586 c 0
 1170 525.36958417 1170 525.36958417 1170 431 c 0
934 428 m 0
 934 503.838916781 934 503.838916781 874.091998415 550.817133851 c 0
 808.352657723 602.368127632 808.352657723 602.368127632 595.148880358 666.948420399 c 0
 508.635642708 690.033481167 508.635642708 690.033481167 435.71496371 715.905784124 c 1
 370.040100536 698.631846647 370.040100536 698.631846647 339.583538711 657.617010764 c 0
 307 613.7378453 307 613.7378453 307 552.191286484 c 0
 307 490.644727667 307 490.644727667 330.010758649 456.554714853 c 0
 353.021517298 422.46470204 353.021517298 422.46470204 415.553140154 391.433971901 c 0
 478.08476301 360.403241762 478.08476301 360.403241762 614.161983179 321.113340164 c 0
 750.239203347 281.823438566 750.239203347 281.823438566 798.258703523 264.236035642 c 1
 862.91773409 282.563066758 862.91773409 282.563066758 898.458867045 325.29704851 c 0
 934 368.031030263 934 368.031030263 934 428 c 0
EndSplineSet
EndChar

StartChar: dieresis
Encoding: 168 168 106
Width: 856
GlyphClass: 1
Flags: W
LayerCount: 2
Fore
SplineSet
76 1371 m 0
 76 1425.59943867 76 1425.59943867 110.442876008 1463.79971934 c 0
 144.885752016 1502 144.885752016 1502 210 1502 c 0
 274.980058478 1502 274.980058478 1502 309.990029239 1463.86413899 c 0
 345 1425.72827799 345 1425.72827799 345 1371 c 0
 345 1316.15293891 345 1316.15293891 309.928628511 1278.57646945 c 0
 274.857257021 1241 274.857257021 1241 210 1241 c 0
 145.0088633 1241 145.0088633 1241 110.50443165 1278.64119816 c 0
 76 1316.28239633 76 1316.28239633 76 1371 c 0
640 1239 m 0
 575.0088633 1239 575.0088633 1239 540.50443165 1276.64119816 c 0
 506 1314.28239633 506 1314.28239633 506 1368.8830847 c 0
 506 1423.48377307 506 1423.48377307 540.382197426 1462.24188654 c 0
 574.764394853 1501 574.764394853 1501 640 1501 c 0
 705.101141831 1501 705.101141831 1501 740.050570915 1462.30598923 c 0
 775 1423.61197846 775 1423.61197846 775 1368.88245868 c 0
 775 1314.15293891 775 1314.15293891 739.928628511 1276.57646945 c 0
 704.857257021 1239 704.857257021 1239 640 1239 c 0
EndSplineSet
EndChar

StartChar: copyright
Encoding: 169 169 107
Width: 1609
GlyphClass: 1
Flags: W
LayerCount: 2
Fore
SplineSet
1144 597 m 2
 1144 433.121261763 1144 433.121261763 1049.91311092 345.560630881 c 0
 955.826221833 258 955.826221833 258 787.83148234 258 c 0
 619.836742847 258 619.836742847 258 518.418371424 371.223684499 c 0
 417 484.447368999 417 484.447368999 417 676 c 2
 417 786 l 2
 417 971.627666192 417 971.627666192 519.457620278 1084.8138331 c 0
 621.915240556 1198 621.915240556 1198 789.958315864 1198 c 0
 958.001391171 1198 958.001391171 1198 1051.50069559 1108.84950044 c 0
 1145 1019.69900088 1145 1019.69900088 1145 860 c 2
 1145 835 l 1
 949 835 l 1
 949 860 l 2
 949 947.828425777 949 947.828425777 909.227649699 983.414212888 c 0
 869.455299397 1019 869.455299397 1019 787.815699585 1019 c 0
 706.176099772 1019 706.176099772 1019 659.697890901 959.611177554 c 0
 611 897.386094735 611 897.386094735 611 783 c 2
 611 670 l 2
 611 558.613905265 611 558.613905265 659.697890901 496.388822446 c 0
 706.176099772 437 706.176099772 437 788.282060658 437 c 0
 870.388021545 437 870.388021545 437 909.194010772 472.050570915 c 0
 948 507.101141831 948 507.101141831 948 597 c 2
 948 622 l 1
 1144 622 l 1
 1144 597 l 2
515.801279681 1252.02622026 m 0
 383.692008071 1173.04785137 383.692008071 1173.04785137 307.346004035 1032.84009553 c 0
 231 892.632339688 231 892.632339688 231 728.007934946 c 0
 231 563.383530204 231 563.383530204 307.852867878 422.646715903 c 0
 384.705735756 281.909901601 384.705735756 281.909901601 516.392816146 202.418791256 c 0
 647.960090818 123 647.960090818 123 801 123 c 0
 954.018272827 123 954.018272827 123 1085.07265553 202.39791069 c 0
 1216.28384479 281.890820968 1216.28384479 281.890820968 1293.14192239 422.637175586 c 0
 1370 563.383530204 1370 563.383530204 1370 728.006367087 c 0
 1370 892.629203971 1370 892.629203971 1294.13300859 1031.87874516 c 0
 1218.26601719 1171.12828635 1218.26601719 1171.12828635 1086.55024412 1251.11568308 c 0
 955.004213269 1331 955.004213269 1331 801.453544073 1331 c 0
 647.902874878 1331 647.902874878 1331 515.801279681 1252.02622026 c 0
1170.88330013 1397.92453258 m 0
 1341.75288212 1294.88499678 1341.75288212 1294.88499678 1438.37644106 1116.10557756 c 0
 1535 937.326158347 1535 937.326158347 1535 731.588574629 c 0
 1535 525.850990911 1535 525.850990911 1442.01840155 348.152824982 c 0
 1349.0368031 170.454659052 1349.0368031 170.454659052 1177.63371184 62.2273295262 c 0
 1006.23062058 -46 1006.23062058 -46 801.529201091 -46 c 0
 596.827781603 -46 596.827781603 -46 425.435014368 61.1852048871 c 0
 254.042247133 168.370409774 254.042247133 168.370409774 160.021123566 346.080665306 c 0
 66 523.790920838 66 523.790920838 66 730.558539593 c 0
 66 937.326158347 66 937.326158347 162.627849991 1116.11351715 c 0
 259.255699983 1294.90087596 259.255699983 1294.90087596 430.645350269 1397.94178354 c 0
 602.063790719 1501 602.063790719 1501 801 1501 c 0
 999.954133061 1501 999.954133061 1501 1170.88330013 1397.92453258 c 0
EndSplineSet
EndChar

StartChar: ordfeminine
Encoding: 170 170 108
Width: 1015
GlyphClass: 1
Flags: W
LayerCount: 2
Fore
SplineSet
540.013653635 1149 m 2,0,-1
 643.380139188 1149 l 1,1,2
 643.380139188 1137.5 643.380139188 1137.5 643.380139188 1176 c 2,3,4
 643.380139188 1227.80761719 643.380139188 1227.80761719 618.90551622 1254.55175781 c 0,5,6
 590.126794133 1286 590.126794133 1286 520.087584131 1286 c 0,7,8
 443.776478351 1286 443.776478351 1286 402.502612338 1263.34667969 c 0,9,10
 372 1243.80859375 372 1243.80859375 372 1206 c 2,11,12
 372 1167.53320312 372 1167.53320312 372 1179.06640625 c 1,13,14
 266.5 1161.9296875 266.5 1161.9296875 161 1194.79296875 c 1,15,16
 161 1181.39648438 161 1181.39648438 161 1218 c 2,17,18
 161 1333.43847656 161 1333.43847656 256.946289062 1405.95605469 c 0,19,20
 349.620117188 1476 349.620117188 1476 518.487077084 1476 c 0,21,22
 687.810546875 1476 687.810546875 1476 772.405273438 1397.44726562 c 128,-1,23
 857 1318.89550781 857 1318.89550781 857 1174 c 2,24,25
 857 1006.64648438 857 1006.64648438 857 872.821289062 c 2,26,27
 857 784.1171875 857 784.1171875 881.809570312 710.451171875 c 2,28,29
 887.047851562 693.541992188 887.047851562 693.541992188 892.286132812 679.34375 c 1,30,-1
 675.307617188 679.34375 l 1,31,32
 664.037109375 709.778320312 664.037109375 709.778320312 659.793945312 725.010742188 c 1,33,34
 567.529969708 666 567.529969708 666 427.929512675 666 c 0,35,36
 291.99609375 666 291.99609375 666 219.498046875 731.251953125 c 128,-1,37
 147 796.50390625 147 796.50390625 147 903.7890625 c 0,38,39
 147 1020.62402344 147 1020.62402344 240.934570312 1084.31542969 c 0,40,41
 330.954101562 1149 330.954101562 1149 540.013653635 1149 c 2,0,-1
365.939453125 884.510742188 m 0,42,43
 382.241210938 853 382.241210938 853 476.499307091 853 c 0,44,45
 523.297111562 853 523.297111562 853 568.910346227 867.030273438 c 128,-1,46
 614.523580891 881.061523438 614.523580891 881.061523438 643.380139188 897.717773438 c 1,47,48
 643.380139188 928.30859375 643.380139188 928.30859375 643.380139188 987 c 1,49,-1
 535.225510591 987 l 2,50,51
 441.683414043 986.213867188 441.683414043 986.213867188 394.205758935 963.470703125 c 0,52,53
 360 943.235351562 360 943.235351562 360 911.151367188 c 0,54,55
 360 895.991210938 360 895.991210938 365.939453125 884.510742188 c 0,42,43
EndSplineSet
EndChar

StartChar: guillemotleft
Encoding: 171 171 109
Width: 961
GlyphClass: 1
Flags: W
LayerCount: 2
Fore
SplineSet
914.060794811 126 m 1
 714.606491338 126 l 1
 407 530.580741149 l 1
 407 539 l 1
 407 558 l 1
 407 566.402044993 l 1
 714.587138116 972 l 1
 913.93514295 972 l 1
 639.791780876 548.034102838 l 1
 914.060794811 126 l 1
584.060794811 126 m 1
 384.606491338 126 l 1
 77 530.580741149 l 1
 77 539 l 1
 77 558 l 1
 77 566.402044993 l 1
 384.587138116 972 l 1
 583.93514295 972 l 1
 309.791780876 548.034102838 l 1
 584.060794811 126 l 1
EndSplineSet
EndChar

StartChar: logicalnot
Encoding: 172 172 110
Width: 1134
GlyphClass: 1
Flags: W
LayerCount: 2
Fore
SplineSet
983 350 m 1
 747 350 l 1
 747 614 l 1
 102 614 l 1
 102 825 l 1
 983 825 l 1
 983 350 l 1
EndSplineSet
EndChar

StartChar: registered
Encoding: 174 174 111
Width: 1610
GlyphClass: 1
Flags: W
LayerCount: 2
Fore
SplineSet
1169.88330013 1397.92453258 m 0
 1340.75288212 1294.88499678 1340.75288212 1294.88499678 1437.37644106 1116.10557756 c 0
 1534 937.326158347 1534 937.326158347 1534 731.588574629 c 0
 1534 525.850990911 1534 525.850990911 1441.01840155 348.152824982 c 0
 1348.0368031 170.454659052 1348.0368031 170.454659052 1176.63371184 62.2273295262 c 0
 1005.23062058 -46 1005.23062058 -46 800.529201091 -46 c 0
 595.827781603 -46 595.827781603 -46 424.435014368 61.1852048871 c 0
 253.042247133 168.370409774 253.042247133 168.370409774 159.021123566 346.080665306 c 0
 65 523.790920838 65 523.790920838 65 730.558539593 c 0
 65 937.326158347 65 937.326158347 161.627849991 1116.11351715 c 0
 258.255699983 1294.90087596 258.255699983 1294.90087596 429.645350269 1397.94178354 c 0
 601.063790719 1501 601.063790719 1501 800 1501 c 0
 998.954133061 1501 998.954133061 1501 1169.88330013 1397.92453258 c 0
514.801279681 1252.02622026 m 0
 382.692008071 1173.04785137 382.692008071 1173.04785137 306.346004035 1032.84009553 c 0
 230 892.632339688 230 892.632339688 230 728.007934946 c 0
 230 563.383530204 230 563.383530204 306.852867878 422.646715903 c 0
 383.705735756 281.909901601 383.705735756 281.909901601 515.392816146 202.418791256 c 0
 646.960090818 123 646.960090818 123 800.457456692 123 c 0
 953.954822566 123 953.954822566 123 1086.08329349 203.904752122 c 0
 1218.21176441 284.809504243 1218.21176441 284.809504243 1293.6058822 424.072524377 c 0
 1369 563.335544511 1369 563.335544511 1369 728.490419994 c 0
 1369 893.645295477 1369 893.645295477 1293.63119296 1032.38150717 c 0
 1218.26238591 1171.11771886 1218.26238591 1171.11771886 1086.08466477 1251.09481824 c 0
 954.025801512 1331 954.025801512 1331 800.464338195 1331 c 0
 646.902874878 1331 646.902874878 1331 514.801279681 1252.02622026 c 0
1033.13108724 722.194224264 m 1
 1129.08145503 658.455924958 1129.08145503 658.455924958 1130 517 c 2
 1130 502 l 1
 1130 471.5 l 1
 1130 456 l 2
 1130 375.345303582 1130 375.345303582 1144.83306304 342.189045023 c 2
 1147 337.345303582 l 1
 1147 332 l 1
 1147 316 l 1
 1147 291 l 1
 959.893730219 291 l 1
 953.690233888 306.951847707 l 2
 938 347.29816342 938 347.29816342 938 441.044567523 c 0
 938 534.36650876 938 534.36650876 935.340741448 549.866598449 c 0
 928.287354932 592.186917542 928.287354932 592.186917542 898.333198069 611.125069925 c 0
 872.605504218 627.391092328 872.605504218 627.391092328 828.547157786 629 c 1
 678 629 l 1
 678 291 l 1
 487 291 l 1
 487 1190 l 1
 788 1190 l 2
 949.549139347 1190 949.549139347 1190 1040.79673488 1119.26961529 c 0
 1135 1046.24814943 1135 1046.24814943 1135 909 c 0
 1135 792.134068948 1135 792.134068948 1033.13108724 722.194224264 c 1
678 1013 m 1
 678 807 l 1
 808.63959996 807 l 1
 872.466439002 808.845966998 872.466439002 808.845966998 910.020997591 837.01188594 c 0
 944 862.496137747 944 862.496137747 944 904 c 0
 944 964.818540919 944 964.818540919 914.618023622 987.796753214 c 0
 901.40691221 998.128519832 901.40691221 998.128519832 872.395336144 1005.56425992 c 0
 843.383760077 1013 843.383760077 1013 791 1013 c 2
 678 1013 l 1
EndSplineSet
EndChar

StartChar: macron
Encoding: 175 175 112
Width: 938
GlyphClass: 1
Flags: W
LayerCount: 2
Fore
SplineSet
839 1277 m 1
 117 1277 l 1
 117 1470 l 1
 839 1470 l 1
 839 1277 l 1
EndSplineSet
EndChar

StartChar: degree
Encoding: 176 176 113
Width: 765
GlyphClass: 1
Flags: W
LayerCount: 2
Fore
SplineSet
187.325796875 1017.32579688 m 0
 105 1099.65159375 105 1099.65159375 105 1214.83271756 c 0
 105 1330.01384137 105 1330.01384137 186.656851395 1415.50692069 c 0
 268.31370279 1501 268.31370279 1501 384.026193672 1501 c 0
 499.738684554 1501 499.738684554 1501 580.369342277 1415.98127927 c 0
 661 1330.96255854 661 1330.96255854 661 1215.38091136 c 0
 661 1099.79926418 661 1099.79926418 580.24836055 1017.39963209 c 0
 499.496721099 935 499.496721099 935 384.574157425 935 c 0
 269.65159375 935 269.65159375 935 187.325796875 1017.32579688 c 0
310.054276625 1142.79332745 m 0
 340.250216609 1113 340.250216609 1113 384.601783627 1113 c 0
 428.953350645 1113 428.953350645 1113 458.476675323 1141.32643314 c 0
 488 1169.65286627 488 1169.65286627 488 1216.70132483 c 0
 488 1263.74978339 488 1263.74978339 458.206672549 1293.94572338 c 0
 428.553119612 1324 428.553119612 1324 384.642080639 1324 c 0
 340.731041665 1324 340.731041665 1324 310.365520833 1292.01498472 c 0
 280 1260.02996945 280 1260.02996945 280 1216.23842492 c 0
 280 1172.44688039 280 1172.44688039 310.054276625 1142.79332745 c 0
EndSplineSet
EndChar

StartChar: plusminus
Encoding: 177 177 114
Width: 1094
GlyphClass: 1
Flags: W
LayerCount: 2
Fore
SplineSet
457 879 m 1
 457 1292 l 1
 674 1292 l 1
 674 879 l 1
 1038 879 l 1
 1038 678 l 1
 674 678 l 1
 674 264 l 1
 457 264 l 1
 457 678 l 1
 72 678 l 1
 72 879 l 1
 457 879 l 1
995 -25 m 1
 110 -25 l 1
 110 177 l 1
 995 177 l 1
 995 -25 l 1
EndSplineSet
EndChar

StartChar: uni00B2
Encoding: 178 178 115
Width: 751
GlyphClass: 1
Flags: W
LayerCount: 2
Fore
SplineSet
708 642 m 1
 59 642 l 1
 58.9999988575 785.804475455 l 1
 366.926078334 1075.25490076 l 2
 424.764423474 1129.37885676 424.764423474 1129.37885676 449.818232647 1172.64839416 c 0
 468 1204.04947402 468 1204.04947402 468 1228 c 0
 468 1266.29818063 468 1266.29818063 443.500684918 1289.64909031 c 0
 419.001369836 1313 419.001369836 1313 369 1313 c 0
 304.850287028 1313 304.850287028 1313 276.425143514 1282.57308582 c 0
 248 1252.14617163 248 1252.14617163 248 1205 c 2
 248 1180 l 1
 41 1180 l 1
 41 1205 l 2
 41 1330.24292895 41 1330.24292895 132.261590762 1411.12146447 c 0
 223.523181524 1492 223.523181524 1492 364.747792208 1492 c 0
 505.972402891 1492 505.972402891 1492 590.986201445 1421.89121807 c 0
 676 1351.78243615 676 1351.78243615 676 1230 c 0
 676 1115.65159375 676 1115.65159375 561.401117912 1001.05271166 c 1
 476.517947027 921.222110473 l 1
 353.655247419 820 l 1
 708 820 l 1
 708 642 l 1
EndSplineSet
EndChar

StartChar: uni00B3
Encoding: 179 179 116
Width: 751
GlyphClass: 1
Flags: W
LayerCount: 2
Fore
SplineSet
240 1151 m 1
 349 1151 l 2
 413.840075752 1151 413.840075752 1151 441.920037876 1174.78996791 c 0
 470 1198.57993582 470 1198.57993582 470 1233.81046339 c 0
 470 1269.04099096 470 1269.04099096 446.125710606 1291.02049548 c 0
 422.251421213 1313 422.251421213 1313 362 1313 c 0
 312.691439234 1313 312.691439234 1313 281.53302928 1291.81228123 c 0
 255 1273.76982132 255 1273.76982132 255 1246 c 2
 255 1221 l 1
 48 1221 l 1
 48 1246 l 2
 48 1356.45016472 48 1356.45016472 139.462009711 1425.46750947 c 0
 227.631082528 1492 227.631082528 1492 360 1492 c 0
 505.553430926 1492 505.553430926 1492 590.302851588 1426.26487244 c 0
 678 1358.2433663 678 1358.2433663 678 1242 c 0
 678 1178.50248203 678 1178.50248203 637.826554903 1126.2770034 c 0
 614.601290443 1096.0841596 614.601290443 1096.0841596 579.570049081 1074.02497767 c 1
 614.042717159 1056.74905704 614.042717159 1056.74905704 638.056972445 1031.70331696 c 0
 691 976.486226479 691 976.486226479 691 887 c 0
 691 768.355094165 691 768.355094165 595.787875764 698.346179286 c 0
 504.197071936 631 504.197071936 631 361.894511504 631 c 0
 219.591951073 631 219.591951073 631 129.905517645 699.07524465 c 0
 37 769.593890573 37 769.593890573 37 889 c 2
 37 914 l 1
 245 914 l 1
 245 889 l 2
 245 856.40157872 245 856.40157872 274.60029008 833.920345748 c 0
 307.412078649 809 307.412078649 809 367.231415147 809 c 0
 427.050751645 809 427.050751645 809 455.525375823 832.403800694 c 0
 484 855.807601387 484 855.807601387 484 895 c 0
 484 917.527225701 484 917.527225701 476.023007685 935.253023047 c 0
 468.04601537 952.978820393 468.04601537 952.978820393 448.13814568 964.770404748 c 0
 415.381577903 984.172371816 415.381577903 984.172371816 352.834169351 985 c 2
 240 985 l 1
 240 1151 l 1
EndSplineSet
EndChar

StartChar: acute
Encoding: 180 180 117
Width: 642
GlyphClass: 1
Flags: W
LayerCount: 2
Fore
SplineSet
302.507717231 1561 m 1
 596.610908496 1561 l 1
 283.032677204 1217 l 1
 76.6845879797 1217 l 1
 302.507717231 1561 l 1
EndSplineSet
EndChar

StartChar: mu
Encoding: 181 181 118
Width: 1160
GlyphClass: 1
Flags: W
LayerCount: 2
Fore
SplineSet
559 155 m 0
 641.652277107 155 641.652277107 155 697.865969081 182.496319163 c 0
 764.08736327 214.887797576 764.08736327 214.887797576 795 287.023565926 c 1
 795 1107 l 1
 1031 1107 l 1
 1031 -25 l 1
 815.878980911 -25 l 1
 809.902319411 51.3684525042 l 1
 715 -45 715 -45 567 -45 c 0
 444.689720757 -45 444.689720757 -45 364 3.56211773071 c 1
 364 -441 l 1
 129 -441 l 1
 129 1107 l 1
 364 1107 l 1
 364 449.156288362 l 2
 364.954482161 293.575696155 364.954482161 293.575696155 412.377847636 221.749290475 c 0
 456.449494552 155 456.449494552 155 559 155 c 0
EndSplineSet
EndChar

StartChar: paragraph
Encoding: 182 182 119
Width: 1001
GlyphClass: 1
Flags: W
LayerCount: 2
Fore
SplineSet
775 1231 m 1
 775 -25 l 1
 598.915538015 -25 l 1
 600.915538015 568 l 1
 595 568 l 2
 354.960680107 568 354.960680107 568 214.980340053 702.169835372 c 0
 75 836.339670744 75 836.339670744 75 1024 c 0
 75 1211.65912666 75 1211.65912666 215.479749623 1346.32956333 c 0
 355.959499245 1481 355.959499245 1481 596 1481 c 2
 968 1481 l 1
 968 -25 l 1
 810 -25 l 1
 810 1231 l 1
 775 1231 l 1
EndSplineSet
EndChar

StartChar: periodcentered
Encoding: 183 183 120
Width: 534
GlyphClass: 1
Flags: W
LayerCount: 2
Fore
SplineSet
122 729.443924381 m 0
 122 786.511954284 122 786.511954284 157.397020358 826.255977142 c 0
 192.794040716 866 192.794040716 866 260.871521145 866 c 0
 328.949001574 866 328.949001574 866 365.474500787 826.379119498 c 0
 402 786.758238996 402 786.758238996 402 729.44335433 c 0
 402 672.128469664 402 672.128469664 365.416034046 633.064234832 c 0
 328.832068092 594 328.832068092 594 260.871795834 594 c 0
 192.911523575 594 192.911523575 594 157.455761788 633.187947239 c 0
 122 672.375894478 122 672.375894478 122 729.443924381 c 0
EndSplineSet
EndChar

StartChar: cedilla
Encoding: 184 184 121
Width: 507
GlyphClass: 2
Flags: W
LayerCount: 2
Fore
SplineSet
451 -225 m 0
 451 -334.947122758 451 -334.947122758 360.398603916 -398.934358743 c 0
 273.933979127 -460 273.933979127 -460 123 -460 c 2
 99.5812625258 -460 l 1
 89.3102344884 -303 l 1
 116 -303 l 2
 188.098357859 -303 188.098357859 -303 225.700696146 -280.525039185 c 0
 240.300353073 -271.798807459 240.300353073 -271.798807459 248.650176536 -259.590789705 c 0
 257 -247.382771951 257 -247.382771951 257 -229 c 0
 257 -198.494686608 257 -198.494686608 236.309217299 -184.91636046 c 0
 225.565132833 -177.86555503 225.565132833 -177.86555503 197.862574684 -170.789358111 c 0
 170.160016535 -163.713161193 170.160016535 -163.713161193 117.688912404 -158.894386323 c 2
 88.9771230643 -156.257589343 l 1
 132.262517534 25 l 1
 316.430828367 25 l 1
 309.361009893 -5.63588005297 l 1
 303.05771945 -32.9501386396 l 1
 360.328159827 -47.863706633 360.328159827 -47.863706633 395.891667198 -81.288754738 c 0
 451 -133.083383868 451 -133.083383868 451 -225 c 0
EndSplineSet
EndChar

StartChar: uni00B9
Encoding: 185 185 122
Width: 751
GlyphClass: 1
Flags: W
LayerCount: 2
Fore
SplineSet
520 642 m 1
 313 642 l 1
 313 1235.54202814 l 1
 97 1178.54202814 l 1
 97 1357.08842667 l 1
 472.971013103 1481 l 1
 477 1481 l 1
 495 1481 l 1
 520 1481 l 1
 520 642 l 1
EndSplineSet
EndChar

StartChar: ordmasculine
Encoding: 186 186 123
Width: 1031
GlyphClass: 1
Flags: W
LayerCount: 2
Fore
SplineSet
122 1028.0390625 m 2,0,1
 122 1041.29394531 122 1041.29394531 122 1098 c 2,2,3
 122 1266.08203125 122 1266.08203125 223.19140625 1371.04101562 c 128,-1,4
 324.3828125 1476 324.3828125 1476 514.454092899 1476 c 128,-1,5
 704.541015625 1476 704.541015625 1476 805.770507812 1372.078125 c 128,-1,6
 907 1268.15625 907 1268.15625 907 1092 c 2,7,8
 907 1035.36230469 907 1035.36230469 907 1022.09277344 c 2,9,10
 907 862.364257812 907 862.364257812 806.309570312 763.682617188 c 128,-1,11
 705.618164062 665 705.618164062 665 516.308033514 665 c 0,12,13
 326.499023438 665 326.499023438 665 224.249023438 763.703125 c 128,-1,14
 122 862.40625 122 862.40625 122 1028.0390625 c 2,0,1
335 1103.73339844 m 1,15,16
 335 1045.58789062 335 1045.58789062 335 1025.80175781 c 2,17,18
 335 943.254882812 335 943.254882812 378.624398051 898.627929688 c 0,19,20
 428.977425154 854 428.977425154 854 515.571165689 854 c 128,-1,21
 602.166083328 854 602.166083328 854 651.446767637 898.892578125 c 0,22,23
 694 943.78515625 694 943.78515625 694 1027.24902344 c 2,24,25
 694 1043.23535156 694 1043.23535156 694 1098 c 2,26,27
 694 1187.80957031 694 1187.80957031 650.375601949 1236.90527344 c 0,28,29
 600.022574846 1286 600.022574846 1286 514.988498638 1286 c 128,-1,30
 429.953245326 1286 429.953245326 1286 380.23938632 1238.74121094 c 0,31,32
 336.869140625 1191.48144531 336.869140625 1191.48144531 335 1103.73339844 c 1,15,16
EndSplineSet
EndChar

StartChar: guillemotright
Encoding: 187 187 124
Width: 960
GlyphClass: 1
Flags: W
LayerCount: 2
Fore
SplineSet
913 560 m 1
 913 541 l 1
 913 532.597955007 l 1
 605.412861884 127 l 1
 405.002208606 127 l 1
 679.219268492 550.017014863 l 1
 405.06485705 974 l 1
 605.412861884 974 l 1
 913 568.402044993 l 1
 913 560 l 1
564 560 m 1
 564 541 l 1
 564 532.597955007 l 1
 256.412861884 127 l 1
 56.002208606 127 l 1
 330.219268492 550.017014863 l 1
 56.0648570498 974 l 1
 256.412861884 974 l 1
 564 568.402044993 l 1
 564 560 l 1
EndSplineSet
EndChar

StartChar: onequarter
Encoding: 188 188 125
Width: 1500
GlyphClass: 1
Flags: W
LayerCount: 2
Fore
SplineSet
1136 144 m 1
 762.426699325 144 l 1
 754.51693604 278.465975836 l 1
 1144.27818529 814 l 1
 1343 814 l 1
 1343 324 l 1
 1450 324 l 1
 1450 144 l 1
 1343 144 l 1
 1343 -25 l 1
 1136 -25 l 1
 1136 144 l 1
1136 324 m 1
 1136 509.517874478 l 1
 989.575930489 324 l 1
 1136 324 l 1
450.861698155 83.402643399 m 1
 304.645376121 176.193770844 l 1
 1042.13830184 1356.5973566 l 1
 1188.35462388 1263.80622916 l 1
 450.861698155 83.402643399 l 1
483 639 m 1
 276 639 l 1
 276 1232.54202814 l 1
 60 1175.54202814 l 1
 60 1354.08842667 l 1
 435.971013103 1478 l 1
 440 1478 l 1
 458 1478 l 1
 483 1478 l 1
 483 639 l 1
EndSplineSet
EndChar

StartChar: onehalf
Encoding: 189 189 126
Width: 1589
GlyphClass: 1
Flags: W
LayerCount: 2
Fore
SplineSet
1506 -25 m 1
 857 -25 l 1
 856.999998858 118.804475455 l 1
 1164.92607833 408.254900759 l 2
 1222.76442347 462.378856762 1222.76442347 462.378856762 1247.81823265 505.648394165 c 0
 1266 537.04947402 1266 537.04947402 1266 561 c 0
 1266 599.298180625 1266 599.298180625 1241.50068492 622.649090313 c 0
 1217.00136984 646 1217.00136984 646 1167 646 c 0
 1102.85028703 646 1102.85028703 646 1074.42514351 615.573085816 c 0
 1046 585.146171632 1046 585.146171632 1046 538 c 2
 1046 513 l 1
 839 513 l 1
 839 538 l 2
 839 663.242928948 839 663.242928948 930.261590762 744.121464474 c 0
 1021.52318152 825 1021.52318152 825 1162.74779221 825 c 0
 1303.97240289 825 1303.97240289 825 1388.98620145 754.891218075 c 0
 1474 684.78243615 1474 684.78243615 1474 563 c 0
 1474 448.65159375 1474 448.65159375 1359.40111791 334.052711662 c 1
 1274.51794703 254.222110473 l 1
 1151.65524742 153 l 1
 1506 153 l 1
 1506 -25 l 1
478 639 m 1
 271 639 l 1
 271 1232.54202814 l 1
 55 1175.54202814 l 1
 55 1354.08842667 l 1
 430.971013103 1478 l 1
 435 1478 l 1
 453 1478 l 1
 478 1478 l 1
 478 639 l 1
406.861698155 83.402643399 m 1
 260.645376121 176.193770844 l 1
 998.138301845 1356.5973566 l 1
 1144.35462388 1263.80622916 l 1
 406.861698155 83.402643399 l 1
EndSplineSet
EndChar

StartChar: threequarters
Encoding: 190 190 127
Width: 1593
GlyphClass: 1
Flags: W
LayerCount: 2
Fore
SplineSet
289 1151 m 1
 398 1151 l 2
 462.840075752 1151 462.840075752 1151 490.920037876 1174.78996791 c 0
 519 1198.57993582 519 1198.57993582 519 1233.81046339 c 0
 519 1269.04099096 519 1269.04099096 495.125710606 1291.02049548 c 0
 471.251421213 1313 471.251421213 1313 411 1313 c 0
 361.691439234 1313 361.691439234 1313 330.53302928 1291.81228123 c 0
 304 1273.76982132 304 1273.76982132 304 1246 c 2
 304 1221 l 1
 97 1221 l 1
 97 1246 l 2
 97 1356.45016472 97 1356.45016472 188.462009711 1425.46750947 c 0
 276.631082528 1492 276.631082528 1492 409 1492 c 0
 554.553430926 1492 554.553430926 1492 639.302851588 1426.26487244 c 0
 727 1358.2433663 727 1358.2433663 727 1242 c 0
 727 1178.50248203 727 1178.50248203 686.826554903 1126.2770034 c 0
 663.601290443 1096.0841596 663.601290443 1096.0841596 628.570049081 1074.02497767 c 1
 663.042717159 1056.74905704 663.042717159 1056.74905704 687.056972445 1031.70331696 c 0
 740 976.486226479 740 976.486226479 740 887 c 0
 740 768.355094165 740 768.355094165 644.787875764 698.346179286 c 0
 553.197071936 631 553.197071936 631 410.894511504 631 c 0
 268.591951073 631 268.591951073 631 178.905517645 699.07524465 c 0
 86 769.593890573 86 769.593890573 86 889 c 2
 86 914 l 1
 294 914 l 1
 294 889 l 2
 294 856.40157872 294 856.40157872 323.60029008 833.920345748 c 0
 356.412078649 809 356.412078649 809 416.231415147 809 c 0
 476.050751645 809 476.050751645 809 504.525375823 832.403800694 c 0
 533 855.807601387 533 855.807601387 533 895 c 0
 533 917.527225701 533 917.527225701 525.023007685 935.253023047 c 0
 517.04601537 952.978820393 517.04601537 952.978820393 497.13814568 964.770404748 c 0
 464.381577903 984.172371816 464.381577903 984.172371816 401.834169351 985 c 2
 289 985 l 1
 289 1151 l 1
1228 144 m 1
 854.426699325 144 l 1
 846.51693604 278.465975836 l 1
 1236.27818529 814 l 1
 1435 814 l 1
 1435 324 l 1
 1542 324 l 1
 1542 144 l 1
 1435 144 l 1
 1435 -25 l 1
 1228 -25 l 1
 1228 144 l 1
1228 324 m 1
 1228 509.517874478 l 1
 1081.57593049 324 l 1
 1228 324 l 1
577.861698155 83.402643399 m 1
 431.645376121 176.193770844 l 1
 1169.13830184 1356.5973566 l 1
 1315.35462388 1263.80622916 l 1
 577.861698155 83.402643399 l 1
EndSplineSet
EndChar

StartChar: questiondown
Encoding: 191 191 128
Width: 969
GlyphClass: 1
Flags: W
LayerCount: 2
Fore
SplineSet
478 -199 m 0
 568.381907705 -199 568.381907705 -199 623.190953852 -149.452622283 c 0
 678 -99.9052445653 678 -99.9052445653 678 -20 c 2
 678 5 l 1
 913.312524101 5 l 1
 912.998036809 -20.3162269934 l 2
 910.862870238 -192.197135942 910.862870238 -192.197135942 790.750996677 -301.098567971 c 0
 670.639123116 -410 670.639123116 -410 478 -410 c 0
 272.107364954 -410 272.107364954 -410 157.553682477 -302.405186085 c 0
 43 -194.810372169 43 -194.810372169 43 -5 c 0
 43 177.698972861 43 177.698972861 209.547041248 359.859799225 c 1
 210.007847945 360.350473822 l 1
 318.42107967 472.742172766 l 1
 378 543.739370821 378 543.739370821 378 680 c 2
 378 705 l 1
 613.236982668 705 l 1
 612.998867213 679.759761749 l 2
 611.962769557 569.933410251 611.962769557 569.933410251 590.162738586 502.406485048 c 0
 568.362707615 434.879559845 568.362707615 434.879559845 518.569883964 373.675880774 c 0
 468.777060313 312.472201703 468.777060313 312.472201703 376.094164284 215.25590315 c 0
 290.244185445 125.206740565 290.244185445 125.206740565 279.923603907 34.9007547159 c 1
 278.000584827 -0.67509826862 l 1
 278.170668694 -98.7573054223 278.170668694 -98.7573054223 328.727853786 -148.878652711 c 0
 379.285038877 -199 379.285038877 -199 478 -199 c 0
487 1126 m 0
 551.9911367 1126 551.9911367 1126 586.49556835 1088.35880184 c 0
 621 1050.71760367 621 1050.71760367 621 996.616915299 c 0
 621 942.516226925 621 942.516226925 586.617802574 903.758113463 c 0
 552.235605147 865 552.235605147 865 487 865 c 0
 421.898858169 865 421.898858169 865 386.949429085 903.694010772 c 0
 352 942.388021545 352 942.388021545 352 996.617541319 c 0
 352 1050.84706109 352 1050.84706109 387.071371489 1088.42353055 c 0
 422.142742979 1126 422.142742979 1126 487 1126 c 0
EndSplineSet
EndChar

StartChar: AE
Encoding: 198 198 129
Width: 2014
GlyphClass: 2
Flags: W
LayerCount: 2
Fore
SplineSet
1998.32128906 201 m 1,0,1
 1998.32128906 125.5 1998.32128906 125.5 1998.32128906 0 c 1,2,3
 1524.85440898 25 1524.85440898 25 1043.03289929 -0 c 1,4,-1
 1027.52297316 328 l 1,5,-1
 484.006087416 328 l 1,6,-1
 272.03709706 0 l 1,7,8
 128.356445312 25 128.356445312 25 -14 -0 c 1,9,10
 448.227232446 728 448.227232446 728 918.808084742 1456 c 1,11,-1
 1936.32128906 1456 l 1,12,13
 1936.32128906 1330 1936.32128906 1330 1936.32128906 1254 c 1,14,-1
 1229.19846177 1254 l 1,15,-1
 1247.68314326 858 l 1,16,-1
 1855.32128906 858 l 1,17,-1
 1855.32128906 657 l 1,18,-1
 1256.05507018 657 l 1,19,-1
 1276.66024937 201 l 1,20,-1
 1998.32128906 201 l 1,0,1
1018.09382667 552 m 1,21,-1
 990.923182652 1173.32421875 l 1,22,-1
 618.427466676 552 l 1,23,-1
 1018.09382667 552 l 1,21,-1
EndSplineSet
Substitution2: "Podtablica 'c2sc' Wersaliki na kapitaliki w tablicy 0" AE.c2sc
Position2: "Podtablica 'cpsp' +AVoA-wiat+AUIA-o wersalikowe w tablicy 0" dx=36 dy=0 dh=72 dv=0
EndChar

StartChar: multiply
Encoding: 215 215 130
Width: 1092
GlyphClass: 1
Flags: W
LayerCount: 2
Fore
SplineSet
539 507.32976562 m 1
 207.864890382 170.192206886 l 1
 54.0946371272 329.131208149 l 1
 383.992397654 665.027109777 l 1
 56.1208647165 999.89590104 l 1
 209.865855402 1158.80879057 l 1
 539 823.672199568 l 1
 868.134144598 1158.80879057 l 1
 1021.87913528 999.89590104 l 1
 694.007602346 665.027109777 l 1
 1023.90536287 329.131208149 l 1
 870.135109618 170.192206886 l 1
 539 507.32976562 l 1
EndSplineSet
EndChar

StartChar: Oslash
Encoding: 216 216 131
Width: 1508
GlyphClass: 2
Flags: W
LayerCount: 2
Fore
SplineSet
1389 707.32421875 m 1,0,1
 1389 696.881835938 1389 696.881835938 1389 683.112304688 c 2,2,3
 1389 470.639648438 1389 470.639648438 1314.36132812 310.505859375 c 128,-1,4
 1239.72167969 150.373046875 1239.72167969 150.373046875 1096.18578531 65.1865234375 c 0,5,6
 948.983176338 -20 948.983176338 -20 753.796379461 -20 c 0,7,8
 578.823303946 -20 578.823303946 -20 440.939224686 53.02734375 c 1,9,10
 392.277987352 5.013671875 392.277987352 5.013671875 344.845703125 -93 c 1,11,12
 244.401367188 -68 244.401367188 -68 143.95703125 -93 c 1,13,14
 222.735351562 49.9169921875 222.735351562 49.9169921875 301.513671875 151.942382812 c 1,15,16
 118 343.967773438 118 343.967773438 118 690.045898438 c 2,17,18
 118 729.067382812 118 729.067382812 118 770.483398438 c 2,19,20
 118 979.241210938 118 979.241210938 193.640625 1140.91210938 c 128,-1,21
 269.280273438 1302.58398438 269.280273438 1302.58398438 411.985221665 1389.33007812 c 0,22,23
 560.697931652 1476 560.697931652 1476 751.666429813 1476 c 0,24,25
 972.195259436 1476 972.195259436 1476 1130.45842236 1363.08789062 c 1,26,27
 1181.28600985 1414.54394531 1181.28600985 1414.54394531 1229.13574219 1516 c 1,28,29
 1329.09277344 1491 1329.09277344 1491 1429.04882812 1516 c 1,30,31
 1342.04296875 1360.90917969 1342.04296875 1360.90917969 1255.03613281 1245.72070312 c 1,32,33
 1387.01660156 1061.3203125 1387.01660156 1061.3203125 1389 778.991210938 c 1,34,35
 1389 766.524414062 1389 766.524414062 1389 755.263671875 c 1,36,37
 1389 731.8203125 1389 731.8203125 1389 707.32421875 c 1,0,1
359 762.84375 m 1,38,39
 359 684.421875 359 684.421875 359 656 c 2,40,41
 359 447.5859375 359 447.5859375 436.370441092 318.133789062 c 1,42,43
 719.918947908 719.887695312 719.918947908 719.887695312 1003.46849474 1171.64160156 c 1,44,45
 905.804895323 1261 905.804895323 1261 751.666429813 1261 c 0,46,47
 571.101196459 1261 571.101196459 1261 467.817358813 1132.46289062 c 0,48,49
 361.930664062 1000.54003906 361.930664062 1000.54003906 359 762.84375 c 1,38,39
1145.70711461 692.151367188 m 1,50,51
 1145.70711461 771.076171875 1145.70711461 771.076171875 1145.70711461 800 c 2,52,53
 1145.70711461 945.45703125 1145.70711461 945.45703125 1106.77625272 1056.81640625 c 1,54,55
 835.59455804 673.19140625 835.59455804 673.19140625 564.412863361 239.56640625 c 1,56,57
 647.027453304 193 647.027453304 193 753.796379461 193 c 0,58,59
 938.60279185 193 938.60279185 193 1039.22523245 318.514648438 c 0,60,61
 1142.58499115 447.444335938 1142.58499115 447.444335938 1145.70711461 692.151367188 c 1,50,51
EndSplineSet
Substitution2: "Podtablica 'c2sc' Wersaliki na kapitaliki w tablicy 0" Oslash.c2sc
Position2: "Podtablica 'cpsp' +AVoA-wiat+AUIA-o wersalikowe w tablicy 0" dx=36 dy=0 dh=72 dv=0
EndChar

StartChar: Thorn
Encoding: 222 222 132
Width: 1310
GlyphClass: 1
Flags: W
LayerCount: 2
Fore
SplineSet
674.977351514 302.608398438 m 2,0,-1
 402 302.608398438 l 1,1,2
 402 170.451171875 402 170.451171875 402 0 c 1,3,-1
 166 0 l 1,4,5
 166 728 166 728 166 1456 c 1,6,-1
 402 1456 l 1,7,8
 402 1294.89648438 402 1294.89648438 402 1172.72753906 c 1,9,-1
 680.458824436 1172.72753906 l 2,10,11
 847.825750586 1172.72753906 847.825750586 1172.72753906 974.552734375 1119.25488281 c 0,12,13
 1090.43945312 1065.78125 1090.43945312 1065.78125 1153.71972656 966.043945312 c 128,-1,14
 1217 866.306640625 1217 866.306640625 1217 737.66796875 c 0,15,16
 1217 539.147460938 1217 539.147460938 1077.19335938 420.877929688 c 0,17,18
 934.126831102 302.608398438 934.126831102 302.608398438 674.977351514 302.608398438 c 2,0,-1
902.456336575 916.649414062 m 0,19,20
 822.972838006 985.073242188 822.972838006 985.073242188 684.638447539 986.000976562 c 2,21,-1
 402 986 l 1,22,-1
 402 490 l 1,23,-1
 678.266235267 490 l 2,24,25
 823.05741542 490 823.05741542 490 902.498089982 558.387695312 c 0,26,27
 981 626.775390625 981 626.775390625 981 737.5 c 128,-1,28
 981 848.224609375 981 848.224609375 902.456336575 916.649414062 c 0,19,20
EndSplineSet
Substitution2: "Podtablica 'c2sc' Wersaliki na kapitaliki w tablicy 0" Thorn.c2sc
Position2: "Podtablica 'cpsp' +AVoA-wiat+AUIA-o wersalikowe w tablicy 0" dx=36 dy=0 dh=72 dv=0
EndChar

StartChar: germandbls
Encoding: 223 223 133
Width: 1318
GlyphClass: 1
Flags: W
LayerCount: 2
Fore
SplineSet
374 1084 m 2,0,1
 374 542 374 542 374 0 c 1,2,-1
 139 0 l 1,3,4
 139 543 139 543 139 1086 c 2,5,6
 139 1303.43359375 139 1303.43359375 249.35546875 1428.71679688 c 128,-1,7
 359.711914062 1554 359.711914062 1554 572.672999927 1554 c 0,8,9
 779.58491281 1554 779.58491281 1554 895.418976023 1457.52832031 c 0,10,11
 1009 1361.05664062 1009 1361.05664062 1009 1191 c 0,12,13
 1009 1064.02050781 1009 1064.02050781 937.243296859 960.701171875 c 0,14,15
 871.605663536 869.069335938 871.605663536 869.069335938 871.605663536 809.741210938 c 0,16,17
 871.605663536 769.092773438 871.605663536 769.092773438 906.661339826 730.005859375 c 0,18,19
 945.444937927 686.762695312 945.444937927 686.762695312 1043.21484375 617.225585938 c 0,20,21
 1137.74804688 547.6875 1137.74804688 547.6875 1183.87402344 477.63671875 c 128,-1,22
 1230 407.584960938 1230 407.584960938 1230 327.646484375 c 0,23,24
 1230 164.077148438 1230 164.077148438 1120.70117188 72.0390625 c 128,-1,25
 1011.40136719 -20 1011.40136719 -20 805.054961054 -20 c 0,26,27
 713.395389377 -20 713.395389377 -20 610.430593826 2.9423828125 c 128,-1,28
 507.46473285 25.884765625 507.46473285 25.884765625 461.600320701 56.861328125 c 2,29,30
 454.024084063 86.978515625 454.024084063 86.978515625 446.447847425 67.0947265625 c 1,31,32
 477.399506906 194.360351562 477.399506906 194.360351562 508.352231812 271.625 c 1,33,34
 523.953248981 287.286132812 523.953248981 287.286132812 539.55426615 252.947265625 c 2,35,36
 589.993612924 222.754882812 589.993612924 222.754882812 659.878029995 201.876953125 c 128,-1,37
 729.762447066 181 729.762447066 181 783.235058601 181 c 0,38,39
 890.117421599 181 890.117421599 181 943.047731847 219.427734375 c 0,40,41
 995 257.85546875 995 257.85546875 995 324.775390625 c 0,42,43
 995 366.182617188 995 366.182617188 959.50854693 407.474609375 c 0,44,45
 923.039051765 448.765625 923.039051765 448.765625 819.417954461 519.103515625 c 128,-1,46
 715.796857156 589.440429688 715.796857156 589.440429688 664.964368585 659.811523438 c 128,-1,47
 614.130814588 730.181640625 614.130814588 730.181640625 614.130814588 814.181640625 c 0,48,49
 614.130814588 906.170898438 614.130814588 906.170898438 694.570396386 1010.71777344 c 0,50,51
 765.779136638 1103.26660156 765.779136638 1103.26660156 765.779136638 1176 c 0,52,53
 765.779136638 1259.859375 765.779136638 1259.859375 716.926207576 1305.9296875 c 128,-1,54
 668.07221309 1352 668.07221309 1352 583.582951154 1352 c 0,55,56
 466.957277221 1352 466.957277221 1352 416.181256171 1273.80761719 c 0,57,58
 374 1207.34472656 374 1207.34472656 374 1084 c 2,0,1
EndSplineSet
Substitution2: "Podtablica 'smcp' Tekstowe na kapitaliki w tablicy 1" germandbls.sc
EndChar

StartChar: ae
Encoding: 230 230 134
Width: 1829
GlyphClass: 2
Flags: W
LayerCount: 2
Fore
SplineSet
739.025061131 28.90625 m 0,0,1
 616.288093747 -20 616.288093747 -20 463.885241302 -20 c 0,2,3
 281.254882812 -20 281.254882812 -20 179.626953125 68.6982421875 c 128,-1,4
 78 157.396484375 78 157.396484375 78 311.010742188 c 0,5,6
 78 471.614257812 78 471.614257812 201.310546875 561.262695312 c 0,7,8
 321.526367188 648.66015625 321.526367188 648.66015625 560.962471942 648.66015625 c 2,9,-1
 767.643027497 648.66015625 l 1,10,11
 767.643027497 664.890625 767.643027497 664.890625 767.643027497 705.567382812 c 2,12,13
 767.643027497 798.001953125 767.643027497 798.001953125 717.446906538 849.000976562 c 128,-1,14
 667.251804955 900 667.251804955 900 568.511971796 900 c 128,-1,15
 469.773158012 900 469.773158012 900 403.787919683 850.33203125 c 0,16,17
 340.71198092 802.853515625 340.71198092 802.853515625 340.71198092 734 c 2,18,19
 340.71198092 695.141601562 340.71198092 695.141601562 340.71198092 706.284179688 c 1,20,21
 223 693.365234375 223 693.365234375 106 730.447265625 c 1,22,23
 106 716.723632812 106 716.723632812 106 753 c 2,24,25
 106 908.516601562 106 908.516601562 237.047851562 1006.53222656 c 0,26,27
 366.484868419 1102 366.484868419 1102 570.357042649 1102 c 0,28,29
 696.24999863 1102 696.24999863 1102 793.364946188 1058.125 c 0,30,31
 875.732578813 1020.91210938 875.732578813 1020.91210938 928.815573062 952.313476562 c 1,32,33
 990.740636138 1017.31640625 990.740636138 1017.31640625 1071.23771351 1055.875 c 0,34,35
 1167.53206325 1102 1167.53206325 1102 1283.3005752 1102 c 0,36,37
 1514.09957074 1102 1514.09957074 1102 1637.05273438 971.001953125 c 128,-1,38
 1760 840.004882812 1760 840.004882812 1760 606.65625 c 2,39,-1
 1760 472 l 1,40,-1
 1012.42480585 472 l 1,41,42
 1024.45956082 335.721679688 1024.45956082 335.721679688 1102.17679939 260.439453125 c 0,43,44
 1185.21823966 180 1185.21823966 180 1330.63734602 180 c 128,-1,45
 1476.05645238 180 1476.05645238 180 1592.49609375 252.040039062 c 1,46,47
 1627.91503906 300.401367188 1627.91503906 300.401367188 1663.33300781 298.76171875 c 1,48,49
 1705.76855469 233.586914062 1705.76855469 233.586914062 1748.20410156 118.412109375 c 1,50,51
 1740.19238281 137.276367188 1740.19238281 137.276367188 1732.18066406 106.140625 c 2,52,53
 1567 -20 1567 -20 1329.22958754 -20 c 0,54,55
 1063.2458044 -20 1063.2458044 -20 914.645225037 145.41015625 c 1,56,57
 846.134991955 71.5849609375 846.134991955 71.5849609375 739.025061131 28.90625 c 0,0,1
360.756993766 216.51171875 m 0,58,59
 407.940858167 180 407.940858167 180 501.46352413 180 c 0,60,61
 570.804548784 180 570.804548784 180 645.627778435 210.907226562 c 128,-1,62
 720.451008087 241.815429688 720.451008087 241.815429688 767.643027497 284.04296875 c 1,63,-1
 767.643027497 470 l 1,64,-1
 555.973645006 470 l 1,65,66
 442.76376723 468.249023438 442.76376723 468.249023438 376.648048752 422.432617188 c 0,67,68
 314 378.72265625 314 378.72265625 314 313.4921875 c 0,69,70
 314 253.0234375 314 253.0234375 360.756993766 216.51171875 c 0,58,59
1462.82393043 840.4921875 m 0,71,72
 1400.17714903 900 1400.17714903 900 1283.3005752 900 c 0,73,74
 1175.12641566 900 1175.12641566 900 1105.17274593 830.484375 c 0,75,76
 1040.53104538 766.247070312 1040.53104538 766.247070312 1020.20366534 665 c 1,77,-1
 1525 665 l 1,78,-1
 1525 670.422851562 l 2,79,80
 1525 780.983398438 1525 780.983398438 1462.82393043 840.4921875 c 0,71,72
EndSplineSet
Substitution2: "Podtablica 'smcp' Tekstowe na kapitaliki w tablicy 1" AE.c2sc
EndChar

StartChar: eth
Encoding: 240 240 135
Width: 1300
GlyphClass: 1
Flags: W
LayerCount: 2
Fore
SplineSet
932.869140625 1271.62890625 m 1,0,1
 1169 1015.28710938 1169 1015.28710938 1169 627.918945312 c 2,2,3
 1169 584.741210938 1169 584.741210938 1169 538.384765625 c 2,4,5
 1169 380.969726562 1169 380.969726562 1107.86914062 253.708007812 c 128,-1,6
 1046.73828125 126.4453125 1046.73828125 126.4453125 932.65234375 53.22265625 c 0,7,8
 808.129938819 -20 808.129938819 -20 652.326243849 -20 c 128,-1,9
 496.52254888 -20 496.52254888 -20 369.267578125 45.1796875 c 0,10,11
 253.323242188 110.358398438 253.323242188 110.358398438 189.662109375 223.348632812 c 128,-1,12
 126 336.337890625 126 336.337890625 126 470.870117188 c 0,13,14
 126 617.270507812 126 617.270507812 184.794921875 734.536132812 c 128,-1,15
 243.588867188 851.801757812 243.588867188 851.801757812 353.23046875 917.817382812 c 0,16,17
 471.879064765 983.791015625 471.879064765 983.791015625 618.736918331 983.791015625 c 128,-1,18
 765.593697967 983.791015625 765.593697967 983.791015625 882.184967107 916.866210938 c 1,19,20
 829.525856979 1042.8515625 829.525856979 1042.8515625 722.499013233 1141.54492188 c 1,21,22
 601.229702658 1041.67871094 601.229702658 1041.67871094 479.960392083 991.813476562 c 1,23,24
 423.513528939 1036.42480469 423.513528939 1036.42480469 367.491210938 1131.03515625 c 1,25,26
 467.444805563 1168.31347656 467.444805563 1168.31347656 567.824019262 1255.59179688 c 1,27,28
 437.375824357 1329.56835938 437.375824357 1329.56835938 273.526367188 1371.84765625 c 2,29,30
 260.411132812 1350.359375 260.411132812 1350.359375 247.296875 1378.87109375 c 1,31,32
 284.112304688 1456.56835938 284.112304688 1456.56835938 320.928710938 1584.265625 c 1,33,34
 331.7265625 1556.82617188 331.7265625 1556.82617188 342.524414062 1579.38671875 c 2,35,36
 597.667475055 1526.3671875 597.667475055 1526.3671875 789.87634142 1392.92675781 c 1,37,38
 896.516570171 1434.11328125 896.516570171 1434.11328125 995.91015625 1525.29980469 c 1,39,40
 1047.14648438 1430.11328125 1047.14648438 1430.11328125 1098.3828125 1384.92675781 c 1,41,42
 1015.62597656 1303.27734375 1015.62597656 1303.27734375 932.869140625 1271.62890625 c 1,0,1
832.611259422 792.440429688 m 128,-1,44
 764.432779052 825 764.432779052 825 670.043949908 825 c 0,45,46
 523.311746216 825 523.311746216 825 441.619997853 737.416015625 c 0,47,48
 361 649.83203125 361 649.83203125 361 492 c 0,49,50
 361 361.19921875 361 361.19921875 444.349929287 271.099609375 c 0,51,52
 528.772683015 181 528.772683015 181 656.847491425 181 c 0,53,54
 779.72447602 181 779.72447602 181 855.655660962 282.990234375 c 0,55,56
 934 389.663085938 934 389.663085938 934 566 c 2,57,58
 934 637.7734375 934 637.7734375 934 659.545898438 c 1,59,60
 933.115234375 709.30859375 933.115234375 709.30859375 932.231445312 709.0703125 c 1,61,43
 900.789739792 759.880859375 900.789739792 759.880859375 832.611259422 792.440429688 c 128,-1,44
EndSplineSet
Substitution2: "Podtablica 'smcp' Tekstowe na kapitaliki w tablicy 1" Eth.c2sc
EndChar

StartChar: divide
Encoding: 247 247 136
Width: 1169
GlyphClass: 1
Flags: W
LayerCount: 2
Fore
SplineSet
1094 575 m 1
 46 575 l 1
 46 809 l 1
 1094 809 l 1
 1094 575 l 1
436 1098.38667853 m 0
 436 1155.51195428 436 1155.51195428 471.397020358 1195.25597714 c 0
 506.794040716 1235 506.794040716 1235 574.871521145 1235 c 0
 642.949001574 1235 642.949001574 1235 679.474500787 1195.3791195 c 0
 716 1155.758239 716 1155.758239 716 1098.38555329 c 0
 716 1041.01286759 716 1041.01286759 679.356780744 1002.50643379 c 0
 642.713561488 964 642.713561488 964 574.872102991 964 c 0
 507.030644494 964 507.030644494 964 471.515322247 1002.63070139 c 0
 436 1041.26140278 436 1041.26140278 436 1098.38667853 c 0
436 281.943924381 m 0
 436 338.511954284 436 338.511954284 471.397020358 378.255977142 c 0
 506.794040716 418 506.794040716 418 574.871521145 418 c 0
 642.949001574 418 642.949001574 418 679.474500787 378.379119498 c 0
 716 338.758238996 716 338.758238996 716 281.94335433 c 0
 716 225.128469664 716 225.128469664 679.416034046 186.064234832 c 0
 642.832068092 147 642.832068092 147 574.871795834 147 c 0
 506.911523575 147 506.911523575 147 471.455761788 186.187947239 c 0
 436 225.375894478 436 225.375894478 436 281.943924381 c 0
EndSplineSet
EndChar

StartChar: oslash
Encoding: 248 248 137
Width: 1260
GlyphClass: 2
Flags: W
LayerCount: 2
Fore
SplineSet
289.469726562 77.9970703125 m 1,0,1
 91 229.303710938 91 229.303710938 91 548.395507812 c 0,2,3
 91 706.75 91 706.75 155.341796875 833.950195312 c 128,-1,4
 219.68359375 961.150390625 219.68359375 961.150390625 338.537442802 1031.63085938 c 0,5,6
 467.954337599 1102 467.954337599 1102 631.862000442 1102 c 0,7,8
 743.734384344 1102 743.734384344 1102 841.488619708 1067.12109375 c 1,9,10
 879.428144636 1112.56054688 879.428144636 1112.56054688 917.36873597 1208 c 1,11,12
 1008.40917969 1183 1008.40917969 1183 1098.36523438 1208 c 1,13,14
 1042.80273438 1080.875 1042.80273438 1080.875 987.240234375 993.3984375 c 1,15,16
 1176 837.963867188 1176 837.963867188 1176 531.54296875 c 0,17,18
 1176 374.168945312 1176 374.168945312 1111.13476562 246.499023438 c 128,-1,19
 1046.27050781 118.828125 1046.27050781 118.828125 927.962412802 49.4140625 c 0,20,21
 798.979545231 -20 798.979545231 -20 634.045999853 -20 c 0,22,23
 529.266282007 -20 529.266282007 -20 440.028364659 8.61328125 c 1,24,25
 401.356218835 -37.693359375 401.356218835 -37.693359375 362.684073011 -134 c 1,26,27
 270.65625 -109 270.65625 -109 180.813476562 -134 c 1,28,29
 235.141601562 -8.0947265625 235.141601562 -8.0947265625 289.469726562 77.9970703125 c 1,0,1
741.278451412 881.037109375 m 1,30,31
 689.987523834 900 689.987523834 900 631.862000442 900 c 0,32,33
 494.588892919 900 494.588892919 900 411.073309965 800.759765625 c 0,34,35
 326 698.490234375 326 698.490234375 326 504 c 0,36,37
 326 344.958984375 326 344.958984375 398.503582885 245.921875 c 1,38,39
 569.891017149 538.479492188 569.891017149 538.479492188 741.278451412 881.037109375 c 1,30,31
855.295377705 280.638671875 m 0,40,41
 940 383.439453125 940 383.439453125 940 560 c 2,42,43
 940 593 940 593 940 576 c 2,44,45
 940 722.723632812 940 722.723632812 877.10018042 819.8046875 c 1,46,47
 708.326507171 532.05859375 708.326507171 532.05859375 539.552833922 194.3125 c 1,48,49
 583.370388515 181 583.370388515 181 634.045999853 181 c 0,50,51
 772.324728198 181 772.324728198 181 855.295377705 280.638671875 c 0,40,41
EndSplineSet
Substitution2: "Podtablica 'smcp' Tekstowe na kapitaliki w tablicy 1" Oslash.c2sc
EndChar

StartChar: thorn
Encoding: 254 254 138
Width: 1280
GlyphClass: 1
Flags: W
LayerCount: 2
Fore
SplineSet
1163 545.787109375 m 2,0,1
 1163 537.791992188 1163 537.791992188 1163 529.51171875 c 2,2,3
 1163 285.090820312 1163 285.090820312 1045.02832031 134.171875 c 0,4,5
 924.512695312 -20 924.512695312 -20 698.021334236 -20 c 0,6,7
 507.590565341 -20 507.590565341 -20 384 71.82421875 c 1,8,9
 384 -147.087890625 384 -147.087890625 384 -416 c 1,10,-1
 149 -416 l 1,11,12
 149 560 149 560 149 1536 c 1,13,-1
 384 1536 l 1,14,15
 384 1245.71191406 384 1245.71191406 384 1005.42285156 c 1,16,17
 507.181280656 1102 507.181280656 1102 694.703860481 1102 c 0,18,19
 923.27734375 1102 923.27734375 1102 1044.29882812 951.946289062 c 0,20,21
 1163 804.768554688 1163 804.768554688 1163 545.787109375 c 2,0,1
847.783892142 270.159179688 m 0,22,23
 928 362.561523438 928 362.561523438 928 549.21484375 c 0,24,25
 928 712.573242188 928 712.573242188 848.249331982 805.474609375 c 0,26,27
 770.298417889 895 770.298417889 895 633.883508297 895 c 0,28,29
 557.926102196 895 557.926102196 895 499.565777751 870.00390625 c 0,30,31
 429.433389046 839.965820312 429.433389046 839.965820312 384 772.876953125 c 1,32,33
 384 537.551757812 384 537.551757812 384 302.1640625 c 1,34,35
 428.830801039 235.68359375 428.830801039 235.68359375 499.544179615 205.87890625 c 0,36,37
 558.569726662 181 558.569726662 181 636.095157467 181 c 0,38,39
 769.285465291 181 769.285465291 181 847.783892142 270.159179688 c 0,22,23
EndSplineSet
Substitution2: "Podtablica 'smcp' Tekstowe na kapitaliki w tablicy 1" Thorn.c2sc
EndChar

StartChar: dcroat
Encoding: 273 273 139
Width: 1323
GlyphClass: 2
Flags: W
LayerCount: 2
Fore
SplineSet
1108 1536 m 1,0,1
 1108 1435 1108 1435 1108 1384 c 1,2,-1
 1296 1384 l 1,3,4
 1296 1258.5 1296 1258.5 1296 1183 c 1,5,-1
 1108 1183 l 1,6,7
 1108 591.5 1108 591.5 1108 0 c 1,8,9
 998.931640625 25 998.931640625 25 889.86328125 -0 c 1,10,11
 886.327449921 66.4287109375 886.327449921 66.4287109375 882.790544198 82.8583984375 c 1,12,13
 759.092316188 -20 759.092316188 -20 565.460694978 -20 c 0,14,15
 345.090625186 -20 345.090625186 -20 218.67578125 136.787109375 c 0,16,17
 95 291.134765625 95 291.134765625 95 536.212890625 c 2,18,19
 95 542.833007812 95 542.833007812 95 549.616210938 c 2,20,21
 95 796.208984375 95 796.208984375 218.266601562 947.717773438 c 0,22,23
 344.01766727 1102 344.01766727 1102 562.63656214 1102 c 0,24,25
 740.888143997 1102 740.888143997 1102 859.562139868 1007.43554688 c 1,26,27
 859.562139868 1070.21777344 859.562139868 1070.21777344 859.562139868 1183 c 1,28,-1
 575.546369867 1183 l 1,29,30
 575.546369867 1258.5 575.546369867 1258.5 575.546369867 1384 c 1,31,-1
 859.562139868 1384 l 1,32,33
 859.562139868 1435 859.562139868 1435 859.562139868 1536 c 1,34,-1
 1108 1536 l 1,0,1
405.851948161 806.606445312 m 0,35,36
 330 714.643554688 330 714.643554688 330 529.791992188 c 0,37,38
 330 365.546875 330 365.546875 407.251850707 274.545898438 c 0,39,40
 482.607711461 187 482.607711461 187 616.068959612 187 c 0,41,42
 695.343136032 187 695.343136032 187 754.78506982 213.490234375 c 0,43,44
 826.426749807 245.416992188 826.426749807 245.416992188 871.310642117 316.961914062 c 1,45,46
 859.562139868 543.043945312 859.562139868 543.043945312 859.562139868 769.415039062 c 1,47,48
 814.698246689 838.459960938 814.698246689 838.459960938 745.434102496 869.334960938 c 0,49,50
 687.858965527 895 687.858965527 895 612.124158428 895 c 0,51,52
 479.543332732 895 479.543332732 895 405.851948161 806.606445312 c 0,35,36
EndSplineSet
Substitution2: "Podtablica 'smcp' Tekstowe na kapitaliki w tablicy 1" Dcroat.c2sc
EndChar

StartChar: Hbar
Encoding: 294 294 140
Width: 1534
GlyphClass: 2
Flags: W
LayerCount: 2
Fore
SplineSet
406 1166 m 1,0,-1
 1139 1166 l 1,1,2
 1139 1286 1139 1286 1139 1456 c 1,3,-1
 1382 1456 l 1,4,5
 1382 1296.29785156 1382 1296.29785156 1382 1175.62792969 c 1,6,-1
 1516 1175.62792969 l 1,7,8
 1516 1071.03515625 1516 1071.03515625 1516 990.002929688 c 1,9,-1
 1382 990.002929688 l 1,10,11
 1382 502.737304688 1382 502.737304688 1382 0 c 1,12,-1
 1139 0 l 1,13,-1
 1139 648 l 1,14,-1
 406 648 l 1,15,-1
 406 0 l 1,16,-1
 163 0 l 1,17,18
 163 502.737304688 163 502.737304688 163 990.002929688 c 1,19,-1
 29 990.002929688 l 1,20,21
 29 1071.03515625 29 1071.03515625 29 1175.62792969 c 1,22,-1
 163 1175.62792969 l 1,23,24
 163 1296.29785156 163 1296.29785156 163 1456 c 1,25,-1
 406 1456 l 1,26,27
 406 1286 406 1286 406 1166 c 1,0,-1
1139 999 m 1,28,-1
 406 999 l 1,29,-1
 406 855 l 1,30,-1
 1139 855 l 1,31,-1
 1139 999 l 1,28,-1
EndSplineSet
Substitution2: "Podtablica 'c2sc' Wersaliki na kapitaliki w tablicy 0" Hbar.c2sc
Position2: "Podtablica 'cpsp' +AVoA-wiat+AUIA-o wersalikowe w tablicy 0" dx=36 dy=0 dh=72 dv=0
EndChar

StartChar: dotlessi
Encoding: 305 305 141
Width: 556
GlyphClass: 2
Flags: W
LayerCount: 2
Fore
SplineSet
391 1082 m 1,0,1
 391 541 391 541 391 0 c 1,2,-1
 155 0 l 1,3,4
 155 541 155 541 155 1082 c 1,5,-1
 391 1082 l 1,0,1
EndSplineSet
Substitution2: "Podtablica 'smcp' Tekstowe na kapitaliki w tablicy 1" I.c2sc
EndChar

StartChar: kgreenlandic
Encoding: 312 312 142
Width: 1239
GlyphClass: 2
Flags: W
LayerCount: 2
Fore
SplineSet
686.680326765 556.4296875 m 1,0,1
 962.120117188 289.822265625 962.120117188 289.822265625 1217.13476562 -0 c 1,2,3
 1067.43164062 25 1067.43164062 25 917.728515625 -0 c 1,4,-1
 468.131100285 436 l 1,5,-1
 390 436 l 1,6,-1
 390 0 l 1,7,-1
 154 0 l 1,8,9
 154 541 154 541 154 1082 c 1,10,-1
 390 1082 l 1,11,-1
 390 649 l 1,12,-1
 450.636171159 649 l 1,13,-1
 891.591796875 1082 l 1,14,15
 1036.04882812 1057 1036.04882812 1057 1180.50683594 1082 c 1,16,17
 943.806640625 806.926757812 943.806640625 806.926757812 686.680326765 556.4296875 c 1,0,1
EndSplineSet
EndChar

StartChar: Lslash
Encoding: 321 321 143
Width: 1203
GlyphClass: 2
Flags: W
LayerCount: 2
Fore
SplineSet
168 797.965820312 m 1,0,1
 168 1113.73632812 168 1113.73632812 168 1456 c 1,2,-1
 411 1456 l 1,3,4
 411 1152.87207031 411 1152.87207031 411 875.473632812 c 1,5,6
 557.300558257 912.610351562 557.300558257 912.610351562 703.601116514 956.240234375 c 1,7,8
 703.601116514 869.390625 703.601116514 869.390625 703.601116514 785.57421875 c 1,9,10
 557.300558257 748.512695312 557.300558257 748.512695312 422.402655175 704.807617188 c 1,11,12
 422.402655175 470.360351562 422.402655175 470.360351562 422.402655175 207 c 1,13,-1
 1151 207 l 1,14,15
 1151 128.5 1151 128.5 1151 0 c 1,16,-1
 168 0 l 1,17,18
 168 326.994140625 168 326.994140625 168 626.447265625 c 1,19,20
 101 610.190429688 101 610.190429688 34 585.841796875 c 1,21,22
 34 673.473632812 34 673.473632812 34 757.360351562 c 1,23,24
 101 776.014648438 101 776.014648438 168 797.965820312 c 1,0,1
EndSplineSet
Substitution2: "Podtablica 'c2sc' Wersaliki na kapitaliki w tablicy 0" Lslash.c2sc
Position2: "Podtablica 'cpsp' +AVoA-wiat+AUIA-o wersalikowe w tablicy 0" dx=36 dy=0 dh=72 dv=0
EndChar

StartChar: lslash
Encoding: 322 322 144
Width: 603
GlyphClass: 2
Flags: W
LayerCount: 2
Fore
SplineSet
178 813.728515625 m 1,0,1
 178 1162.03808594 178 1162.03808594 178 1536 c 1,2,-1
 414 1536 l 1,3,4
 414 1204.35644531 414 1204.35644531 414 901.122070312 c 1,5,6
 493 925.532226562 493 925.532226562 572 960.198242188 c 1,7,8
 572 871.31640625 572 871.31640625 572 789.16015625 c 1,9,10
 493 759.885742188 493 759.885742188 414 730.083007812 c 1,11,12
 414 377.745117188 414 377.745117188 414 0 c 1,13,-1
 178 0 l 1,14,15
 178 335.4609375 178 335.4609375 178 642.76171875 c 1,16,17
 106 620.916992188 106 620.916992188 34 589.49609375 c 1,18,19
 34 677.912109375 34 677.912109375 34 760.462890625 c 1,20,21
 106 786.494140625 106 786.494140625 178 813.728515625 c 1,0,1
EndSplineSet
Substitution2: "Podtablica 'smcp' Tekstowe na kapitaliki w tablicy 1" Lslash.c2sc
EndChar

StartChar: Eng
Encoding: 330 330 145
Width: 1519
GlyphClass: 2
Flags: W
LayerCount: 2
Fore
SplineSet
1121 1456 m 1,0,-1
 1365 1456 l 1,1,2
 1365 699 1365 699 1365 -58 c 2,3,4
 1365 -235.73828125 1365 -235.73828125 1272.484375 -336.369140625 c 128,-1,5
 1179.96972656 -437 1179.96972656 -437 1005.03856321 -437 c 0,6,7
 935.169364903 -437 935.169364903 -437 873.077275037 -417.723632812 c 2,8,9
 862.989158507 -389.591796875 862.989158507 -389.591796875 852.902090528 -411.459960938 c 1,10,11
 862.979721541 -283.215820312 862.979721541 -283.215820312 873.057352554 -204.971679688 c 1,12,13
 889.568897197 -185.790039062 889.568897197 -185.790039062 906.08044184 -216.608398438 c 2,14,15
 941.242576726 -229 941.242576726 -229 1001.81741219 -229 c 0,16,17
 1031.51449527 -229 1031.51449527 -229 1053.02029197 -218.95703125 c 0,18,19
 1121 -187.208984375 1121 -187.208984375 1121 -46 c 2,20,21
 1121 10.8701171875 1121 10.8701171875 1121 17.7392578125 c 1,22,23
 762.915378059 568.338867188 762.915378059 568.338867188 404.830756118 1068.93945312 c 1,24,25
 404.830756118 559.469726562 404.830756118 559.469726562 404.830756118 0 c 1,26,-1
 162 0 l 1,27,28
 162 728 162 728 162 1456 c 1,29,30
 277.365234375 1431 277.365234375 1431 392.73046875 1456 c 1,31,32
 756.865234375 897.465820312 756.865234375 897.465820312 1121 388.932617188 c 1,33,34
 1121 897.465820312 1121 897.465820312 1121 1456 c 1,0,-1
EndSplineSet
Substitution2: "Podtablica 'c2sc' Wersaliki na kapitaliki w tablicy 0" Eng.c2sc
Position2: "Podtablica 'cpsp' +AVoA-wiat+AUIA-o wersalikowe w tablicy 0" dx=36 dy=0 dh=72 dv=0
EndChar

StartChar: eng
Encoding: 331 331 146
Width: 1260
GlyphClass: 2
Flags: W
LayerCount: 2
Fore
SplineSet
820.111397826 841.643554688 m 0,0,1
 766.036814274 895 766.036814274 895 639.911217566 895 c 0,2,3
 465.364520866 895 465.364520866 895 383.429127938 785.930664062 c 1,4,5
 383.429127938 395.850585938 383.429127938 395.850585938 383.429127938 0 c 1,6,-1
 145 0 l 1,7,8
 145 541 145 541 145 1082 c 1,9,-1
 358.979492188 1082 l 1,10,11
 364.256727417 1000.70019531 364.256727417 1000.70019531 369.533962647 969.399414062 c 1,12,13
 499.763593739 1102 499.763593739 1102 702.08869384 1102 c 0,14,15
 908.256835938 1102 908.256835938 1102 1007.08203125 994.877929688 c 128,-1,16
 1105.90722656 887.755859375 1105.90722656 887.755859375 1107.99902344 684.16796875 c 1,17,18
 1107.99902344 318.674804688 1107.99902344 318.674804688 1107.99902344 -64 c 2,19,20
 1107.99902344 -237.646484375 1107.99902344 -237.646484375 1017.53222656 -337.323242188 c 128,-1,21
 927.065429688 -437 927.065429688 -437 749.832113121 -437 c 0,22,23
 677.581590765 -437 677.581590765 -437 613.373240937 -417.723632812 c 2,24,25
 602.959728066 -389.59765625 602.959728066 -389.59765625 592.547299483 -411.471679688 c 1,26,27
 602.908766476 -281.814453125 602.908766476 -281.814453125 613.271317759 -202.157226562 c 1,28,29
 630.307668679 -182.856445312 630.307668679 -182.856445312 647.3440196 -213.555664062 c 2,30,31
 681.554426163 -225 681.554426163 -225 749.832113121 -225 c 0,32,33
 781.253728023 -225 781.253728023 -225 804.010788431 -215.484375 c 0,34,35
 873 -186.139648438 873 -186.139648438 873 -56 c 2,36,37
 873 310.286132812 873 310.286132812 873 665.087890625 c 2,38,39
 873 788.287109375 873 788.287109375 820.111397826 841.643554688 c 0,0,1
EndSplineSet
Substitution2: "Podtablica 'smcp' Tekstowe na kapitaliki w tablicy 1" Eng.c2sc
EndChar

StartChar: OE
Encoding: 338 338 147
Width: 2053
GlyphClass: 2
Flags: W
LayerCount: 2
Fore
SplineSet
1148.59546946 648 m 1,0,-1
 1148.59546946 207 l 1,1,-1
 1901 207 l 1,2,3
 1901 128.5 1901 128.5 1901 0 c 1,4,-1
 1004.56441899 0 l 1,5,6
 818.990109578 -21 818.990109578 -21 699.390894319 -21 c 0,7,8
 523.836074431 -21 523.836074431 -21 385.497661875 55.02734375 c 0,9,10
 251.088867188 131.055664062 251.088867188 131.055664062 178.0625 267.844726562 c 128,-1,11
 105.036132812 404.633789062 105.036132812 404.633789062 104 576.05859375 c 1,12,13
 104 725.626953125 104 725.626953125 104 875.071289062 c 2,14,15
 104 1047.3203125 104 1047.3203125 176.500976562 1185.11132812 c 128,-1,16
 249.001953125 1322.90332031 249.001953125 1322.90332031 383.352006522 1399.45117188 c 0,17,18
 521.71580544 1476 521.71580544 1476 697.311243508 1476 c 0,19,20
 827.236615552 1476 827.236615552 1476 1004.56035718 1456 c 1,21,-1
 1891 1456 l 1,22,23
 1891 1327 1891 1327 1891 1248 c 1,24,-1
 1148.59546946 1248 l 1,25,-1
 1148.59546946 855 l 1,26,-1
 1799 855 l 1,27,-1
 1799 648 l 1,28,-1
 1148.59546946 648 l 1,0,-1
340 881.829101562 m 1,29,30
 340 732.016601562 340 732.016601562 340 582.615234375 c 2,31,32
 340 389.451171875 340 389.451171875 434.098329579 284.725585938 c 0,33,34
 528.585355116 180 528.585355116 180 699.390894319 180 c 0,35,36
 802.721513074 180 802.721513074 180 896.95772135 190.500976562 c 1,37,38
 896.95772135 727.05859375 896.95772135 727.05859375 896.95772135 1263.57617188 c 1,39,40
 796.703929722 1275 796.703929722 1275 697.311243508 1275 c 0,41,42
 529.462707801 1275 529.462707801 1275 435.545352238 1173.04003906 c 0,43,44
 341.939453125 1071.08105469 341.939453125 1071.08105469 340 881.829101562 c 1,29,30
EndSplineSet
Substitution2: "Podtablica 'c2sc' Wersaliki na kapitaliki w tablicy 0" OE.c2sc
Position2: "Podtablica 'cpsp' +AVoA-wiat+AUIA-o wersalikowe w tablicy 0" dx=36 dy=0 dh=72 dv=0
EndChar

